<svg xmlns="http://www.w3.org/2000/svg" viewBox="0 0 41.74 41.74"><defs><style>.cls-1{fill:#e8921f;}.cls-2{fill:#fff;}</style></defs><title>Recurso 13</title><g id="Capa_2" data-name="Capa 2"><g id="Capa_1-2" data-name="Capa 1"><rect class="cls-1" width="41.74" height="41.74" rx="20.87"/><path class="cls-2" d="M15.25,21.84a6.38,6.38,0,0,1,2.12-5.11c.25-.25.66-.37.69-.86s-.64-1.1.25-1.18c.65-.06.43.77.68,1.16a11.58,11.58,0,0,0,6.85,4.94c1,.29,1.41.4,1.09,1.71-.39,1.58-.59,3.15-1.63,4.45-.22.27-.5.78-.91.48s0-.66.21-.95a6.2,6.2,0,0,0,1.08-1.86c.73-2.08.51-2.6-1.43-3.49a13.8,13.8,0,0,1-5-3.51c-.69-.82-1-.66-1.63,0a6.43,6.43,0,0,0,.91,9.52c.27.2.88.31.52.81s-.67.05-1-.17C16.22,26.64,15.27,24.68,15.25,21.84Z"/><path class="cls-2" d="M29.64,19.66c-1.33-.4-1-1.24-1.12-2a7.71,7.71,0,0,0-7.2-6.46,7.76,7.76,0,0,0-7.67,5.92c-.22,1.06.3,2.54-1.67,2.53-.38,0-.63.71-.62,1.25,0,.72,0,1.44,0,2.17,0,1.44,1.05,1.4,2.11,1.44,1.36,0,.78-.92.83-1.5s0-1.45,0-2.17h0v-2a6.7,6.7,0,0,1,13.4-.22c0,.66,0,1.33,0,2,0,.33-.09.76.31.84s.55-.25.54-.64,0-.58.42-.53c.14,0,.37.18.37.28a15.28,15.28,0,0,1,0,2.79c-.07.47-.54.52-.78,0-.11-.27-.23-.54-.58-.41s-.27.42-.28.7a11.24,11.24,0,0,1-.14,1.65,3.65,3.65,0,0,1-5,2.91A4.52,4.52,0,0,0,21.07,28c-.83,0-1.46.28-1.47,1.19s.63,1.2,1.52,1.35c1.31.22,2.09-.82,3.18-1.06a5.14,5.14,0,0,0,4.06-4c.15-.55.22-.93.92-1.15C30.51,24,30.84,20,29.64,19.66ZM13.56,22.05v1c0,.38-.16.62-.57.64a.63.63,0,0,1-.77-.64,3.58,3.58,0,0,1,0-1c.13-.66-.48-1.65.69-1.87C13.5,20.07,13.58,20.35,13.56,22.05Zm7.78,7.69c-.37,0-1,.22-.94-.53s.66-.42,1.07-.47,1.07-.1,1.06.49S21.79,29.74,21.34,29.74Z"/></g></g></svg>