<svg xmlns="http://www.w3.org/2000/svg" viewBox="0 0 20.17 10.86"><defs><style>.cls-1{fill:none;stroke:#fff;stroke-linecap:round;stroke-linejoin:round;}</style></defs><title>Recurso 33</title><g id="Capa_2" data-name="Capa 2"><g id="Capa_1-2" data-name="Capa 1"><path class="cls-1" d="M12.32,5.1l4.19-1.4a2,2,0,0,1,1.35,0l1.4.52a.46.46,0,0,1,.25.26l.13.41a.41.41,0,0,1-.26.53L5.05,10.26a2.08,2.08,0,0,1-2.11-.5L.62,7.46a.42.42,0,0,1,.17-.7l.93-.31a.38.38,0,0,1,.36,0L4,7.74a.44.44,0,0,0,.37,0L8.89,6.26"/><polyline class="cls-1" points="13.06 5.84 7.7 0.5 5.81 1.13 9.51 7.04"/><path class="cls-1" d="M13.06,5.84,9.5,7"/></g></g></svg>