<svg xmlns="http://www.w3.org/2000/svg" viewBox="0 0 81 81"><defs><style>.cls-1{fill:#fff;}.cls-2{fill:#3864a9;}.cls-3{fill:none;stroke:#3864a9;stroke-linejoin:round;}</style></defs><title>Recurso 83</title><g id="Capa_2" data-name="Capa 2"><g id="Capa_1-2" data-name="Capa 1"><path class="cls-1" d="M40.61,80.75a124.33,124.33,0,0,1-21.86-1.94A20.58,20.58,0,0,1,1.91,61.93,144.29,144.29,0,0,1,.25,39.63,125.48,125.48,0,0,1,1.94,19.38,20.77,20.77,0,0,1,18.4,2.44,120.55,120.55,0,0,1,41.86.25,104.58,104.58,0,0,1,62.5,2.38,20.79,20.79,0,0,1,79.16,19.5a120.8,120.8,0,0,1,1.59,19.83A150.31,150.31,0,0,1,79.2,61.78,20.64,20.64,0,0,1,62.15,78.86a124.74,124.74,0,0,1-20.59,1.89Z"/><path class="cls-1" d="M41.86.5A104.94,104.94,0,0,1,62.45,2.62,20.48,20.48,0,0,1,78.91,19.54,120.48,120.48,0,0,1,80.5,39.33,149,149,0,0,1,79,61.74,20.41,20.41,0,0,1,62.1,78.62,124.26,124.26,0,0,1,41.56,80.5h-1A123.24,123.24,0,0,1,18.8,78.56,20.34,20.34,0,0,1,2.15,61.9,145.93,145.93,0,0,1,.5,39.63,126.3,126.3,0,0,1,2.19,19.42,20.41,20.41,0,0,1,18.45,2.69,119.66,119.66,0,0,1,41.86.5m0-.5A120.2,120.2,0,0,0,18.35,2.2,21,21,0,0,0,1.69,19.34,126,126,0,0,0,0,39.63,143.67,143.67,0,0,0,1.66,62,20.81,20.81,0,0,0,18.71,79.05a124.7,124.7,0,0,0,21.9,2h1a125.12,125.12,0,0,0,20.63-1.89,20.87,20.87,0,0,0,17.25-17.3A149.26,149.26,0,0,0,81,39.33a122.37,122.37,0,0,0-1.59-19.87A21.06,21.06,0,0,0,62.55,2.13,105.14,105.14,0,0,0,41.86,0Z"/><ellipse class="cls-1" cx="28.9" cy="45.5" rx="3.28" ry="3.25"/><ellipse class="cls-1" cx="52.21" cy="45.5" rx="3.28" ry="3.25"/><path class="cls-1" d="M55.49,45.5h.62A2.33,2.33,0,0,0,58,44.58a2.19,2.19,0,0,0,.39-1.53A4.51,4.51,0,0,0,55,38.88l-5.27-1.59a2.79,2.79,0,0,1-.55-.33c-1-1-5-4.71-6.34-4.71H28.27a4.5,4.5,0,0,0-2.55.8,4.42,4.42,0,0,0-1.65,2.1l-.47,1.27a15.19,15.19,0,0,0-1,5.33v2.39A1.36,1.36,0,0,0,24,45.5h1.47"/><line class="cls-1" x1="32.19" y1="45.5" x2="48.93" y2="45.5"/><path class="cls-1" d="M49.43,37.19C47,37,36.61,36.41,31.06,35.88c-.77-.07-.7-2.21-.76-3.63"/><path class="cls-1" d="M40.61,80.75a124.33,124.33,0,0,1-21.86-1.94A20.58,20.58,0,0,1,1.91,61.93,144.29,144.29,0,0,1,.25,39.63,125.48,125.48,0,0,1,1.94,19.38,20.77,20.77,0,0,1,18.4,2.44,120.55,120.55,0,0,1,41.86.25,104.58,104.58,0,0,1,62.5,2.38,20.79,20.79,0,0,1,79.16,19.5a120.8,120.8,0,0,1,1.59,19.83A150.31,150.31,0,0,1,79.2,61.78,20.64,20.64,0,0,1,62.15,78.86a124.74,124.74,0,0,1-20.59,1.89Z"/><path class="cls-2" d="M41.86.5A104.94,104.94,0,0,1,62.45,2.62,20.48,20.48,0,0,1,78.91,19.54,120.48,120.48,0,0,1,80.5,39.33,149,149,0,0,1,79,61.74,20.41,20.41,0,0,1,62.1,78.62,124.26,124.26,0,0,1,41.56,80.5h-1A123.24,123.24,0,0,1,18.8,78.56,20.34,20.34,0,0,1,2.15,61.9,145.93,145.93,0,0,1,.5,39.63,126.3,126.3,0,0,1,2.19,19.42,20.41,20.41,0,0,1,18.45,2.69,119.66,119.66,0,0,1,41.86.5m0-.5A120.2,120.2,0,0,0,18.35,2.2,21,21,0,0,0,1.69,19.34,126,126,0,0,0,0,39.63,143.67,143.67,0,0,0,1.66,62,20.81,20.81,0,0,0,18.71,79.05a124.7,124.7,0,0,0,21.9,2h1a125.12,125.12,0,0,0,20.63-1.89,20.87,20.87,0,0,0,17.25-17.3A149.26,149.26,0,0,0,81,39.33a122.37,122.37,0,0,0-1.59-19.87A21.06,21.06,0,0,0,62.55,2.13,105.14,105.14,0,0,0,41.86,0Z"/><ellipse class="cls-3" cx="28.9" cy="45.5" rx="3.28" ry="3.25"/><ellipse class="cls-3" cx="52.21" cy="45.5" rx="3.28" ry="3.25"/><path class="cls-3" d="M55.49,45.5h.62A2.33,2.33,0,0,0,58,44.58a2.19,2.19,0,0,0,.39-1.53A4.51,4.51,0,0,0,55,38.88l-5.27-1.59a2.79,2.79,0,0,1-.55-.33c-1-1-5-4.71-6.34-4.71H28.27a4.5,4.5,0,0,0-2.55.8,4.42,4.42,0,0,0-1.65,2.1l-.47,1.27a15.19,15.19,0,0,0-1,5.33v2.39A1.36,1.36,0,0,0,24,45.5h1.47"/><line class="cls-3" x1="32.19" y1="45.5" x2="48.93" y2="45.5"/><path class="cls-3" d="M49.43,37.19C47,37,36.61,36.41,31.06,35.88c-.77-.07-.7-2.21-.76-3.63"/></g></g></svg>