<svg xmlns="http://www.w3.org/2000/svg" viewBox="0 0 231 230.74"><defs><style>.cls-1{isolation:isolate;}.cls-2{opacity:0.6;}.cls-3{fill:#d7def2;}.cls-4{fill:#d3ad88;mix-blend-mode:multiply;}.cls-5{fill:#232230;}.cls-6{fill:none;stroke:#232230;stroke-linecap:round;stroke-linejoin:round;stroke-width:0.58px;}</style></defs><title>Recurso 94</title><g class="cls-1"><g id="Capa_2" data-name="Capa 2"><g id="Movil"><g class="cls-2"><path class="cls-3" d="M44.73,62C34.14,69,19.41,85.29,16.39,93.45c-4.28,11.54-3.3,21.65,1.27,32.43,9.18,21.73,26.91,39.47,46.87,40.17,12.73.44,33.14-15.57,34.91-17.83,23.71-30.09,11.14-57.13-8.82-80.82C84.84,55.75,48.56,59.49,44.73,62Z"/><path class="cls-4" d="M99.45,50C115.58,63.17,142.28,23.44,113,13.17,107,11.1,86.25,14.22,89.15,33,90.81,43.87,93.3,44.92,99.45,50Z"/><path class="cls-3" d="M163.17,103.77a16.5,16.5,0,0,0,2.17,8.19c1.55,2.87,7.62,4.23,10.93.71a7.44,7.44,0,0,0,1.51-3.74c.17-.93,1.49-4,.68-5.87C175.47,96.32,165.24,97.88,163.17,103.77Z"/><path class="cls-5" d="M71.19,67.25h0a.23.23,0,0,1-.2-.2c-.58-5.79-3.27-7.28-9.75-10.87L59.15,55c-5.14-2.89-6.43-6.89-5.92-9.67.73-4,2.88-5.88,5-7.71,1.66-1.46,3.23-2.84,3.87-5.21a.23.23,0,0,1,.24-.16.22.22,0,0,1,.2.22c0,.55,0,1.05,0,1.5a23,23,0,0,0,.19,3,15.44,15.44,0,0,1,1.81-5.41c2.72-4.85,7.09-6.33,10.94-7.63,2.94-1,5.71-1.94,7.36-4.22a.22.22,0,0,1,.18-.1.26.26,0,0,1,.19.1,2.61,2.61,0,0,1,.36,2,9.92,9.92,0,0,1,4.62-1.32,8.25,8.25,0,0,1,3.87,1.42,9.44,9.44,0,0,0,6.55,1.62,7.66,7.66,0,0,0,5.33-2.57.22.22,0,0,1,.23-.08.23.23,0,0,1,.17.17,4.4,4.4,0,0,1,0,2.14,17.3,17.3,0,0,1,3.51-.41h.45c6.22,0,10.55,2,14.38,3.76s6.9,3.19,10.73,2.18a.23.23,0,0,1,.27.13.24.24,0,0,1-.1.29c-6.68,3.89-14.23,4-20.89,4.12-4.93.08-9.58.16-13.3,1.7-17.57,7.27-25.42,25-28,32.25A.24.24,0,0,1,71.19,67.25Zm-9.11-33.5A12.62,12.62,0,0,1,58.49,38c-2,1.77-4.11,3.61-4.81,7.44-.49,2.63.76,6.42,5.69,9.19l2.06,1.14c6.27,3.48,9.07,5,9.87,10.27a66,66,0,0,1,7.48-14.52c5.55-8,12.42-13.79,20.43-17.1,3.8-1.57,8.49-1.65,13.46-1.73,6.18-.1,13.14-.22,19.4-3.37-3.36.39-6.28-.95-9.59-2.48-3.88-1.79-8.28-3.82-14.63-3.72a16.42,16.42,0,0,0-3.69.45c-.86,2-3.37,3.07-5.82,4.13l-.75.33a7.79,7.79,0,0,0-.75,1.63c-1,2.93-3,5.8-4.42,6.4a1.14,1.14,0,0,1-1,0,1.26,1.26,0,0,1-.67-.92c-.24-1.29.86-3.37,2-4.67a13,13,0,0,1,4.51-2.82,9.46,9.46,0,0,1,3.56-3.3,12.77,12.77,0,0,1,3-1.17,3.74,3.74,0,0,0,.17-1.7,8.47,8.47,0,0,1-5.32,2.37,10,10,0,0,1-6.83-1.69,7.8,7.8,0,0,0-3.65-1.35,9.82,9.82,0,0,0-4.73,1.46,22.33,22.33,0,0,1-1.22,3.07c-1.1,2.45-2.47,5.5-2.13,8.81.14,1.12.28,2.14.41,3,.41,2.93.66,4.69,0,5.44a1.27,1.27,0,0,1-1,.39,2.93,2.93,0,0,1-2.06-1.46c-1.49-2.07-2.65-6.24-1-11.16a15,15,0,0,1,5.84-7.92,8.9,8.9,0,0,1,.8-.51A2.68,2.68,0,0,0,83,20.28c-1.74,2.19-4.48,3.12-7.36,4.1-4,1.34-8.06,2.73-10.69,7.42A15.25,15.25,0,0,0,63,38.35a22.94,22.94,0,0,0,1.45,3.45A32.25,32.25,0,0,0,68,46.94c1.91,2.47,3.42,4.41,2.5,5.68a1.22,1.22,0,0,1-1.28.5c-1.88-.32-4.78-3.92-5.49-6.28a24.16,24.16,0,0,1-1.13-8.43A14.91,14.91,0,0,1,62.09,34ZM63,39.61a24.35,24.35,0,0,0,1.15,7.1c.67,2.22,3.43,5.68,5.12,6a.78.78,0,0,0,.84-.32c.72-1-.77-2.91-2.49-5.13A31.85,31.85,0,0,1,64.09,42C63.62,41.07,63.27,40.29,63,39.61Zm19.87-17-.37.24a14.64,14.64,0,0,0-5.66,7.69c-1.55,4.76-.43,8.77,1,10.76a2.57,2.57,0,0,0,1.69,1.26.75.75,0,0,0,.64-.23c.53-.59.28-2.38-.1-5.08-.13-.9-.27-1.92-.41-3.05-.36-3.43,1-6.54,2.17-9C82.23,24.25,82.62,23.4,82.87,22.64Zm14,5.71a11.34,11.34,0,0,0-3.79,2.45c-1.26,1.41-2.1,3.29-1.91,4.29a.82.82,0,0,0,.42.6.75.75,0,0,0,.63,0c1.32-.54,3.22-3.35,4.16-6.12A8.14,8.14,0,0,1,96.9,28.35Zm6.67-4.62a10.23,10.23,0,0,0-5.51,3.61l.1-.05C100.45,26.3,102.65,25.35,103.57,23.73Z"/><path class="cls-5" d="M156,98.31c-.32-3.12-5.47-4.67-7-5.07a23.17,23.17,0,0,0-2.79-.43c-2.4-.28-5.68-.67-6-1.85a.42.42,0,0,1,.13-.39c.57-.6,2.43-1,5.31-.39a13.32,13.32,0,0,1,6.77,3.56,9.26,9.26,0,0,0,2.18,1.56.22.22,0,0,0,.26-.06.21.21,0,0,0,0-.27c-.8-1.24-.31-3,.27-5,.78-2.73,1.67-5.82-.27-9a6.37,6.37,0,0,0-4.7-3c.06-.75.18-1.54.28-2.24a15.24,15.24,0,0,0,.24-2.05c0-2.15-.64-4.23-3.9-7.9-1.75-2-4.47-3-8.11-3.06a7.55,7.55,0,0,0-.61-1.74c.39-3.29-1.06-4.2-7.86-8.47-3.21-2-5.56-3-7.4-3.13a6.77,6.77,0,0,0-4.26,1.32c-1.87,1.14-3.14,3.87-4.26,6.28-1.24,2.65-2.4,5.15-4,4.81a1.35,1.35,0,0,1-1.12-1c-.63-2.13,2.37-6.87,3.87-8.38l.23-.24c1.62-1.66,4.63-4.74,8.73-3.83a.24.24,0,0,0,.24-.1.24.24,0,0,0,0-.26c-1-1.31-4-2.19-8.66-2.55a3.79,3.79,0,0,0-1,.06.18.18,0,0,0,0-.1.24.24,0,0,0-.16-.25c-5.68-1.61-9.85-.2-12.07,4.06-1.41,2.73-2.14,8.41-.85,12.84a19.24,19.24,0,0,0,4.76,7.88,22.28,22.28,0,0,1-2.84-1.51,19.92,19.92,0,0,1-2.78-2.38c-2.39-2.3-4.85-4.67-10.21-4.15-5.19.5-6,2.76-7.21,6.19a25,25,0,0,1-5.06,9,6.61,6.61,0,0,0-1.3,4.95,4,4,0,0,0-.65.8c-.59,1-.52,3.81.29,4.69a.81.81,0,0,0,1,.21c.68-.32.48-1.46.2-3-.13-.76-.28-1.61-.35-2.49A9.28,9.28,0,0,1,81,79.91a14.24,14.24,0,0,0-3.2,4.69c-2.5,6-3.53,14.28-2.9,23.4,0,.49.07,1,.12,1.45a60.54,60.54,0,0,1-4.69-16.23c-.74-6.86-.17-25.22,6.42-35.1,8.5-12.73,16.43-20.12,23.59-22a52.07,52.07,0,0,1,13.84-1.49,79.8,79.8,0,0,0,9.35-.49c1.75-.22,4.61-1.68,7.64-3.23a58.9,58.9,0,0,1,6.57-3.05,3.53,3.53,0,0,0,1.51.88c1.32.35,2.13-.19,2.33-.62a.49.49,0,0,0-.12-.63c-.63-.78-1.93-.7-3.61-.15l-.37-.37a5.11,5.11,0,0,0-1.57-1.25,6.23,6.23,0,0,0-1.46-.43c-1.2-.25-2.16-.45-3.51-3.31a7.84,7.84,0,0,1-.33-1.33c-.49-2.42-1.39-6.93-6.15-9a.22.22,0,0,0-.21,0c-1.11.72-2.92.94-5.11,1a16.1,16.1,0,0,0-6.57-7.65,18,18,0,0,0-11.16-2.72c-5.88.7-9.91,5.18-13.15,8.78l-.9,1a22.93,22.93,0,0,0-1.86,2.63c-.61.93-1.23,1.9-1.79,2.6-.82,1-1.06.95-1.07.94a.61.61,0,0,1-.38-.43c-.26-1,.91-3.31,3.13-6.24C87.78,8.46,96.27,2,100.1,1.38a.22.22,0,0,0,.19-.2.2.2,0,0,0-.14-.23C95.39-.92,90.06.32,86.42,1.69c-4.3,1.62-7.87,4.05-9.17,5.62C75.11,9.9,74,13.36,73,16.14c-.77,2.32-1.44,4.33-2.36,4.65-.43.15-.61,0-.71-.16-.71-1,.08-4.83,1.72-7C72.8,12.23,73,10.09,73.2,8.33a4,4,0,0,0,1.67-2.25.7.7,0,0,0-.31-.73,1,1,0,0,0-1-.15c-.59.3-.69,1.38-.84,2.87a3,3,0,0,1-.73.37c-1.42.47-5.7,2.52-7.35,5.91L62.3,15.7l-1.08.61a17.42,17.42,0,0,0-5.55,5.27,16.06,16.06,0,0,0-2.73,7.51c-.49,5.49,4.73,16.44,8.39,20.67.82,1,1.75,1.89,2.73,2.89,2.67,2.72,5.44,5.54,5.87,8.32.18,1.21-.27,3.75-.85,7-1,5.76-2.44,13.65-2,22.21.36,6.59,2.23,19.11,4.8,25.45h0c-2.09-2.57-5.8-5.2-9.42-7.75-4.47-3.17-8.69-6.15-8.15-8.06.42-1.5,1.67-2.25,3.25-3.2a16.37,16.37,0,0,0,4.59-3.67c4.05-4.92,1.12-10.36-.46-13.28A10,10,0,0,1,61,78.16c-.47-1.63,1.6-3.27,1.62-3.28a.23.23,0,0,0,.08-.26.23.23,0,0,0-.21-.15,9,9,0,0,0-4,.9A8.71,8.71,0,0,0,55,73a9.87,9.87,0,0,1-3.2-2c-.32-.37-.64-.79-1-1.19C49.43,68,48,66.22,46.55,66.58a.22.22,0,0,0-.15.12.23.23,0,0,0,0,.2,5.94,5.94,0,0,0,.56.87c.68,1,1.45,2,1.39,7C48.29,81.3,44.82,84.92,43,85a1.22,1.22,0,0,1-1.2-.84C41.26,83,41.66,80.93,43.7,79c2.26-2.16,3.43-4.48,3.48-6.88a7.61,7.61,0,0,0-1.61-4.8c-1.2-1.53-3.79-1.56-5.88-1.59a14.53,14.53,0,0,1-2.25-.14,16,16,0,0,1-2-.56c-1.55-.52-3.15-1-4.45-.45a.22.22,0,0,0-.13.15.22.22,0,0,0,.05.19c4,5.08,4.92,10.23,2.6,14.13a8.41,8.41,0,0,0-1.11,5.42c0,.52.08,1-.06,1.1s-.2.08-.41.06a1.77,1.77,0,0,1-1.43-.75c-.76-1.23.2-3.78,1-5.83a16.44,16.44,0,0,0,.8-2.44c1.17-5.61-2.14-8.13-3.91-9.49-.41-.31-1-.78-1-.91a.23.23,0,0,0,0-.25.22.22,0,0,0-.24-.07c-5.74,1.79-8.79,4.6-10.15,6.52l-.19,0c-1.52-.18-3.14,1.84-4.56,3.61-.37.47-.72.91-1,1.29a3,3,0,0,1-2.33.81c-.66,0-1.35.06-1.42.72a.19.19,0,0,0,0,.16,6.35,6.35,0,0,0,4,2.71,6.31,6.31,0,0,1,2.82,1.43c1.49,1.39,2,2.94,1.83,3.79a.69.69,0,0,1-.33.52c-.64.24-1.69-.5-2.82-2-1.37-1.79-2.77-2-3.7-2A5.19,5.19,0,0,0,5.58,86.2a4.63,4.63,0,0,0-.32,2.38,7.86,7.86,0,0,1,0,1.45l-.75.48-.05,0C3.25,91.33,3,93.6,2.72,95.61c-.1.76-.19,1.49-.32,2l-.7.22C.93,98.1.26,98.3.23,99a.75.75,0,0,0,.5.84c.58.16,1.36-.4,1.85-1.33a2.5,2.5,0,0,0,.2-.49,4,4,0,0,0,1.4-.89h0l.94-1c1.34-1.53,2.31-2.64,3.5-3a3.14,3.14,0,0,1,3.27.71,3.13,3.13,0,0,0,1.88.85l0,0A15.67,15.67,0,0,0,9.84,95,13.19,13.19,0,0,0,3,98.21a.23.23,0,0,0-.06.22.26.26,0,0,0,.18.16,13.69,13.69,0,0,0,5-.23,11.26,11.26,0,0,0,5.84-3.22,4.93,4.93,0,0,1,1.89.43c.62.33.55.69.52.81-.35,1.77-2.48,2-4.73,2.14A16.48,16.48,0,0,0,8.25,99c-2.44.76-4.35,3.42-5.33,4.84A5.61,5.61,0,0,0,.22,106a1.54,1.54,0,0,0,.14,1.79,1.6,1.6,0,0,0,1.59.73.21.21,0,0,0,.16-.23,1.31,1.31,0,0,1,1-1.42,2.79,2.79,0,0,1,1.57.65,5.43,5.43,0,0,0,4.38,1.09c1.69-.35,4-1.84,6.25-3.29,2.4-1.55,4.89-3.16,6-2.87a.7.7,0,0,1,.46.35s0,.13-.49.51-1.09.69-1.86,1.13a22.49,22.49,0,0,0-5.22,3.68c-4,4.23-3.58,8-1.89,10.05a10.17,10.17,0,0,0,3.6,2.47c.4,1.25,1,2,1.59,2.18.28.06.71,0,1.11-.59a.54.54,0,0,0,.08-.44c-.13-.44-.85-.77-1.93-1.26l-.48-.22a11.8,11.8,0,0,1-.29-1.2c-.66-3.6-.18-10.71,5.8-14.54,5.52-3.53,9.15-4.39,11.06-2.62l-.39.09h-.1a13.2,13.2,0,0,0-7,1.55,14.54,14.54,0,0,0-6.21,5.63c-3.78,6.66-1.71,10.81-.69,11.74a.23.23,0,0,0,.25,0,.22.22,0,0,0,.13-.22,17.49,17.49,0,0,1,4.66-12.83,18.38,18.38,0,0,1,8.94-5.44,2.69,2.69,0,0,1,2.42,1.62c.16.54-1,1-2.54,1.53-3.09,1.14-7.76,2.86-9.84,8-1,2.48-.42,5,.05,7,.34,1.43.63,2.66.19,3.34a.24.24,0,0,0,0,.27.23.23,0,0,0,.26.07c1.68-.65,2.59-1.74,4.33-6.56a8.47,8.47,0,0,1,2.89-4.17,8.61,8.61,0,0,0,1.91,4.57,4.43,4.43,0,0,1,.92,1.7.24.24,0,0,0,.22.21.25.25,0,0,0,.23-.21c.67-5.74,4.56-6.84,8.68-8a23.47,23.47,0,0,0,5.21-1.93,9.5,9.5,0,0,0,4.33-4.21,18.77,18.77,0,0,0,3.64,2.54c1.31.71,2.76,1.38,4.29,2.08,5,2.3,10.63,4.89,13.24,10.29l.51,0c-2.63-5.69-8.4-8.36-13.56-10.72-1.52-.7-3-1.36-4.26-2.07A17.15,17.15,0,0,1,52,105.22a2.4,2.4,0,0,0,.1-.74.81.81,0,0,0-.37-.78.57.57,0,0,0-.62.08.56.56,0,0,0-.24.5,2,2,0,0,0,.61,1c-.4,1.07-1.55,2.68-4.2,4.18a23.59,23.59,0,0,1-5.12,1.89,17.94,17.94,0,0,0-5.79,2.36,7.82,7.82,0,0,0-3.08,5.15,11.88,11.88,0,0,0-.67-1,8,8,0,0,1-1.84-4.62,13.69,13.69,0,0,1,2.18-1.07c.51-.21,1-.4,1.43-.64,1.87-1,3.63-2.13,3.79-3.4a1.77,1.77,0,0,0-.68-1.54,1.83,1.83,0,0,0-1.76-.26,8.49,8.49,0,0,0-5,4.45,8,8,0,0,0-.41,2.22,8.75,8.75,0,0,0-3.3,4.57c-1.57,4.33-2.43,5.48-3.57,6.06a7.78,7.78,0,0,0-.36-3.13c-.46-2-1-4.39-.08-6.73,2-5,6.57-6.65,9.58-7.76,1.87-.69,3.1-1.14,2.81-2.09a2.66,2.66,0,0,0-1.87-1.73.14.14,0,0,0,.05-.08.22.22,0,0,0,0-.23c-2-2.35-5.89-1.62-11.92,2.24a13.21,13.21,0,0,0-5.52,7.35,16.58,16.58,0,0,0-.48,7.65c0,.31.11.59.18.86a8.93,8.93,0,0,1-3.06-2.17c-1.57-1.93-1.91-5.43,1.86-9.44a21.9,21.9,0,0,1,5.12-3.61c1.79-1,2.86-1.63,2.52-2.25a1.18,1.18,0,0,0-.75-.58c-1.31-.32-3.77,1.26-6.37,2.94-2.2,1.42-4.48,2.89-6.09,3.22a5,5,0,0,1-4-1,3.07,3.07,0,0,0-1.88-.73,1.76,1.76,0,0,0-1.4,1.69,1.37,1.37,0,0,1-.94-.58,1.15,1.15,0,0,1-.11-1.28,4.68,4.68,0,0,1,1.91-1.63v0a.23.23,0,0,0,.12.15c2.22,1.1,6.36-.53,9.79-1.93,3.19-.2,4.73-.33,4.91-1.06a.64.64,0,0,0-.14-.69c-.52-.45-1.94.1-4.63,1.2l-.24.1a36.21,36.21,0,0,0-8.66,1.24c1-1.43,2.69-3.49,4.72-4.12a15.22,15.22,0,0,1,3.27-.5c2.32-.2,4.72-.41,5.14-2.51a1.2,1.2,0,0,0-.76-1.3,4.92,4.92,0,0,0-1.73-.46l.17-.21a.23.23,0,0,0,0-.26.24.24,0,0,0-.24-.11,2.41,2.41,0,0,1-2.08-.71,3.57,3.57,0,0,0-3.67-.79c-1.32.37-2.33,1.52-3.73,3.11-.29.33-.59.68-.92,1a3.42,3.42,0,0,1-.95.65c.1-.51.18-1.11.26-1.77.22-1.81.5-4.07,1.51-4.74l.05,0,.36-.24a3.55,3.55,0,0,1-.35.81.24.24,0,0,0,0,.27.25.25,0,0,0,.26.06C9.23,90,15.31,89.61,22.61,90.53c.91.11,1.81.24,2.68.38,2.93,1.07,7,2.69,11.55,4.63,7.44,3.17,13.57,6.06,15.25,7.19a.26.26,0,0,0,.23,0,.24.24,0,0,0,.13-.18c.21-1.76-4.13-5.29-12.58-8.36a83.26,83.26,0,0,0-14.42-3.73,34.13,34.13,0,0,0-4.27-1.34c-9.28-1.74-13.29-.55-15.46.61a9.4,9.4,0,0,0,0-1.19A4.31,4.31,0,0,1,6,86.4a4.77,4.77,0,0,1,3.37-2.5,3.75,3.75,0,0,1,3.29,1.79c.75,1,2.18,2.57,3.34,2.12a1.06,1.06,0,0,0,.62-.86c.19-1-.34-2.69-2-4.21a7,7,0,0,0-3-1.53,5.9,5.9,0,0,1-3.7-2.45c.06-.18.32-.22,1-.24a3.44,3.44,0,0,0,2.65-1c.34-.39.69-.83,1.07-1.3,1.33-1.67,2.84-3.55,4.11-3.45A5.32,5.32,0,0,0,16.15,74a.83.83,0,0,0,0,.76A6.27,6.27,0,0,0,18,75.83l1.62.83a18.52,18.52,0,0,1,.45,2.39c.32,2.72,1,6.31,2.94,6.31h.13c.68-.06,1.17-.58,1.38-1.48.42-1.81-.42-5.16-2.72-6.52-.65-.39-1.25-.72-1.79-1-.57-2-1.45-3.34-2.52-3.82,1.14-1.55,3.84-4.3,9.55-6.15.12.32.55.65,1.11,1.07,1.69,1.3,4.84,3.71,3.73,9a16.59,16.59,0,0,1-.77,2.37c-.81,2.14-1.81,4.81-.93,6.23a2.18,2.18,0,0,0,1.77,1,.88.88,0,0,0,.77-.19c.29-.28.25-.77.19-1.46A7.92,7.92,0,0,1,34,79.25c2.37-4,1.48-9.24-2.46-14.39,1.1-.34,2.49.12,3.84.57a16.91,16.91,0,0,0,2,.58,14.41,14.41,0,0,0,2.33.14c2,0,4.46.07,5.53,1.42a7.18,7.18,0,0,1,1.5,4.51c0,2.28-1.17,4.48-3.34,6.57s-2.6,4.39-2,5.71A1.69,1.69,0,0,0,43,85.48c2-.12,5.74-3.8,5.81-10.7,0-5.14-.76-6.27-1.49-7.28-.12-.17-.24-.33-.35-.51,1.09,0,2.3,1.56,3.47,3,.32.41.65.83,1,1.21a10.09,10.09,0,0,0,3.35,2.13,8.35,8.35,0,0,1,3.36,2.25,3.94,3.94,0,0,0-.74.61,3.9,3.9,0,0,0-1,3.07c.07,1.08.11,2,.12,2.92a31.9,31.9,0,0,1-2.28,2.35c-1.58,1.52-2.84,2.73-2.66,3.91.1.64.61,1.18,1.57,1.66a1.79,1.79,0,0,0,1.87,0c1.28-.86,2-3.55,1.95-7.7,1.47-1.77,2.54-3.83,1.93-6.3v0l-.12-.29a8.23,8.23,0,0,1,3.1-.82c-.65.65-1.7,2-1.3,3.33a10.25,10.25,0,0,0,.77,1.59c1.52,2.82,4.37,8.09.51,12.77a16.07,16.07,0,0,1-4.47,3.57c-1.61,1-3,1.8-3.46,3.47-.63,2.21,3.52,5.15,8.33,8.55,4.35,3.08,9.29,6.57,10.59,9.68a.23.23,0,0,0,.3.12.22.22,0,0,0,.12-.29l-.91-2.3c-2.55-6.31-4.41-18.75-4.77-25.31-.47-8.51.94-16.37,2-22.11.61-3.39,1-5.84.85-7.12-.46-2.93-3.27-5.8-6-8.57-1-1-1.9-1.93-2.71-2.87-3.53-4.08-8.76-15-8.29-20.33a16.67,16.67,0,0,1,8.06-12.42l1.07-.61c.53-.3,1.18-.66,1.86-1.06A32.1,32.1,0,0,0,63,21.43l-.35.41a22.43,22.43,0,0,0-1.52,1.92c-1.24,1.79-2.16,4.46-1.49,5.67a1.24,1.24,0,0,0,1.25.62c1.42-.07,1.83-3.16,2.36-7.08q.09-.66.18-1.35a34.3,34.3,0,0,0,5.74-9.75.22.22,0,0,0-.08-.28.23.23,0,0,0-.29,0,21.6,21.6,0,0,1-3.36,2.27c1.78-2.86,5.44-4.61,6.72-5a4.16,4.16,0,0,0,.54-.23,9.39,9.39,0,0,1-1.38,4.74c-1.69,2.2-2.63,6.27-1.73,7.52a1,1,0,0,0,1.22.32c1.14-.39,1.81-2.4,2.65-4.94.91-2.74,2-6.16,4.13-8.68C80,4.77,90.82-1.6,99.25,1.11,95,2.33,87.36,8.25,85,11.34c-1.38,1.81-3.62,5.08-3.21,6.63a1.09,1.09,0,0,0,.64.73c.75.32,1.79-1.2,3.43-3.72a22.88,22.88,0,0,1,1.81-2.57l.89-1c3.19-3.55,7.16-8,12.88-8.63,6.35-.76,14.32,3.09,17.18,9.92-.83,0-1.72,0-2.63,0-4.26,0-9.08,0-13.17,1.7-3.42,1.42-8.32,4.62-8.54,6.63a1.05,1.05,0,0,0,.47,1c1.33.95,2.24.22,3.9-1.12a32.24,32.24,0,0,1,7.11-4.54c4.5-2.11,9.7-1.47,12.5-1.12.59.07,1,.13,1.37.14a.23.23,0,0,0,.18-.08.2.2,0,0,0,0-.19,12.86,12.86,0,0,0-.58-2,11.24,11.24,0,0,0,5.08-1c4.44,2,5.31,6.31,5.77,8.63a7.48,7.48,0,0,0,.37,1.43c1.45,3.07,2.61,3.31,3.83,3.56a6.06,6.06,0,0,1,1.36.4,4.93,4.93,0,0,1,1.43,1.15l.22.23a60,60,0,0,0-6.41,3c-3,1.53-5.81,3-7.48,3.18a79,79,0,0,1-9.3.49,52.56,52.56,0,0,0-14,1.51C93,37.59,84.93,45.05,76.37,57.87c-6.65,10-7.24,28.49-6.49,35.4.61,5.6,2.71,11.77,5.28,17.68a75.19,75.19,0,0,0,1.72,9.91l.51,0a74.09,74.09,0,0,1-1.56-8.45c1.37,3,2.84,6,4.27,8.74l.54,0c-1.68-3.22-3.42-6.71-5-10.32-1-9.25-.4-19.06,2.57-26.15A13.94,13.94,0,0,1,81.65,80l2.22.24c5.93.67,8.39,1,15.65-1.2,2.06-.61,3.44-.2,4,.38a1.15,1.15,0,0,1,.37,1.13c-.25,1-4.38.75-7.39.6A19.22,19.22,0,0,0,89,82.48a16.7,16.7,0,0,0-7.85,6.09c-2.12,3.14-2.38,7-.76,11.38a41.06,41.06,0,0,0,5.24,9.18c-.11,1.22.08,2.61.78,3a.94.94,0,0,0,1.1-.11.36.36,0,0,0,.16-.25c.08-.43-.43-1.17-1.57-2.8,0-.05,0-.09,0-.13.15-1.06,1.73-2.46,3.4-3.93a24.17,24.17,0,0,0,3.43-3.44A29.18,29.18,0,0,0,96.65,95a10.91,10.91,0,0,1,1.72-3c2.27-2.64,4.25-4,5.74-4a2.09,2.09,0,0,1,1.64.91c1.34,1.79-1.38,4-4.52,6.44-2.3,1.82-4.9,3.89-6.35,6.19-1.91,3-2.87,9.69-1.75,12a1.36,1.36,0,0,0,1,.89A38.37,38.37,0,0,1,99,116.3a.21.21,0,0,0,.23,0,.24.24,0,0,0,.09-.22c0-.07-1.15-7.55-.61-10.16,1-4.79,2.47-7.36,3.49-7.79a.48.48,0,0,1,.45,0s.26.21-.31,2.29c-.37,1.33-.94,3-1.49,4.54a36.17,36.17,0,0,0-1.33,4.23,16,16,0,0,0,.37,7.86c.49,1.68,2.56,3,4.21,3.79,2.69,1.3,6.08,2.1,7.1,1.68a.23.23,0,0,0,.14-.15.22.22,0,0,0,0-.19c-.87-1.27-1.67-5.24-2-10.11-.39-5-.21-9.73.47-12.21,1.19-4.34,4-7.53,5.91-8a1.35,1.35,0,0,1,1.41.36c.57.61-.18,2.17-1.23,4.33a38,38,0,0,0-3.94,11.82c-.55,4,.71,15.81,2.91,17.09a.88.88,0,0,0,1-.1c1.95-1.5,5.82-1.69,8.93-1.85,2.31-.11,4.13-.2,4.89-.75,1.67-1.19.42-4.08-.9-7.14a18.72,18.72,0,0,1-1.84-5.73c-.14-2.74.49-5.72,2.67-5.85,1.95-.11,3.06,1.75,3.3,5.54a11.53,11.53,0,0,1-.92,3.75c-.94,2.74-2.12,6.16-.68,8.8s9.54,2.63,15.56,2.47h.1a3.72,3.72,0,0,1,1.18.15,4.14,4.14,0,0,0,.59,2.22,1,1,0,0,0,.72.41.68.68,0,0,0,.66-.32,1.46,1.46,0,0,0-.12-1.45,2.84,2.84,0,0,0-1.4-1.19,8.52,8.52,0,0,1,.1-1.49,35.2,35.2,0,0,1,1.32-4.42,28.08,28.08,0,0,0,1.21-4.07,10.19,10.19,0,0,0-1.47-6.43,30.79,30.79,0,0,0-2.54-3.1c-2.39-2.69-5.65-6.39-4.74-7.69a.74.74,0,0,1,.59-.33c.93-.05,2.47,1.1,3.45,2.22a20.31,20.31,0,0,1,2.67,4.42c1.13,2.3,2.2,4.47,4.13,5.43a.23.23,0,0,0,.26,0,.21.21,0,0,0,0-.25c-.72-1.73.09-3.42.94-5.21A9.66,9.66,0,0,0,156,98.31ZM141.13,27.82l0,.05s0,0,0,.09c-.11.23-.72.66-1.8.37a3,3,0,0,1-1.13-.6C139.61,27.31,140.67,27.24,141.13,27.82ZM73.8,5.61a.23.23,0,0,1,.12,0,.83.83,0,0,1,.4.15s.13.07.1.29A3.32,3.32,0,0,1,73.26,7.7C73.36,6.67,73.48,5.77,73.8,5.61ZM2.18,98.27c-.45.83-1.06,1.17-1.33,1.1S.68,99.14.69,99c0-.34.42-.48,1.14-.69l.39-.12A.59.59,0,0,1,2.18,98.27Zm1.47-.06a13.35,13.35,0,0,1,6.28-2.79,16.71,16.71,0,0,1,3.4-.31C10.23,98.18,5.64,98.42,3.65,98.21ZM16.59,120.9c.75.34,1.61.73,1.68,1a.1.1,0,0,1,0,0c-.21.31-.42.44-.64.4s-.75-.55-1.11-1.46Zm6.64-13.32a17.85,17.85,0,0,0-4.8,12.48,6.38,6.38,0,0,1-.91-2.81,13.55,13.55,0,0,1,2.09-7.87,15.07,15.07,0,0,1,11.45-7A19.35,19.35,0,0,0,23.23,107.58Zm28.05-3.33a.11.11,0,0,1,0-.1.31.31,0,0,1,.13-.05h0s.11.13.12.39a2,2,0,0,1,0,.32A1.19,1.19,0,0,1,51.28,104.25ZM31.12,111a7.9,7.9,0,0,1,4.68-4.16,2.51,2.51,0,0,1,.62-.08,1.06,1.06,0,0,1,.72.23,1.34,1.34,0,0,1,.54,1.15c-.16,1.22-2.46,2.46-3.56,3.06-.42.22-.89.42-1.38.62a15.34,15.34,0,0,0-2,.94A7.3,7.3,0,0,1,31.12,111Zm-14.44-9.61a.32.32,0,0,1,.22.06s0,.12,0,.24c-.08.34-1.56.51-3.13.62A11.87,11.87,0,0,1,16.68,101.34ZM11,102.9c-2.82,1.12-6.06,2.21-7.89,1.54l.09-.12,0-.08A27.73,27.73,0,0,1,11,102.9Zm28.73-8.27a40,40,0,0,1,9.55,4.69,7.17,7.17,0,0,1,2.67,2.77c-3.42-2-15.9-7.57-24.1-10.72A83.64,83.64,0,0,1,39.71,94.63Zm-18.61-5a18.46,18.46,0,0,1,1.88.52l-.31,0c-7.07-.88-13-.51-17.27,1.08a4.85,4.85,0,0,0,.25-.83C7.69,89.14,11.53,87.79,21.1,89.59Zm.45-11.84a6.2,6.2,0,0,1,2.51,6c-.12.49-.38,1.09-1,1.13C21.83,85,21,83.07,20.5,79a18.7,18.7,0,0,0-.36-2C20.58,77.19,21.05,77.45,21.55,77.75Zm-2.13-1.7-1.24-.62a7.33,7.33,0,0,1-1.65-1,2,2,0,0,1,.28-.9,6.05,6.05,0,0,1,.39-.67C18.1,73.27,18.88,74.39,19.42,76.05ZM54.73,89.7a1.32,1.32,0,0,1-1.41,0c-.81-.41-1.24-.84-1.32-1.32-.14-1,1.1-2.14,2.53-3.51.64-.62,1.32-1.28,2-2C56.42,88,55.29,89.33,54.73,89.7Zm2.2-8c0-.76,0-1.56-.1-2.41a3.39,3.39,0,0,1,.89-2.71,4.16,4.16,0,0,1,.64-.54c0,.07,0,.13.07.2A6.3,6.3,0,0,1,56.93,81.66ZM62.8,22.91c-.43,3.26-.88,6.64-1.92,6.69a.82.82,0,0,1-.83-.39c-.56-1,.32-3.54,1.46-5.2.42-.6.87-1.13,1.38-1.74Zm5.59-10.35a33.67,33.67,0,0,1-4.83,8.2,26.6,26.6,0,0,1,1.36-5.84,1.89,1.89,0,0,1,.11-.25C66.28,13.94,67.56,13.17,68.39,12.56Zm51,2.42-1-.11c-2.85-.35-8.14-1-12.75,1.16a33,33,0,0,0-7.21,4.59C96.65,22,96.05,22.45,95,21.73a.62.62,0,0,1-.28-.62c.19-1.64,4.67-4.77,8.26-6.26,4-1.65,8.69-1.66,12.87-1.66H116c1,0,1.92,0,2.81,0A14.15,14.15,0,0,1,119.38,15Zm30.23,110.84a1,1,0,0,1,.14,1,.25.25,0,0,1-.25.11.54.54,0,0,1-.39-.24,3.45,3.45,0,0,1-.48-1.76A2.4,2.4,0,0,1,149.61,125.82ZM138,66.88a21.11,21.11,0,0,0-3.25-3.3,25.58,25.58,0,0,1,3.13-.25h.34A8.17,8.17,0,0,1,138,66.88Zm.13-4a28.79,28.79,0,0,0-3.87.32,23.19,23.19,0,0,0-2.84-1.87,16.89,16.89,0,0,0-5.86-2.07,10.28,10.28,0,0,1,1.87-1.08c2.31-1,5.62-1.38,8,.66a8.26,8.26,0,0,1,2.13,2.44h0A7.21,7.21,0,0,1,138.13,62.86Zm-15.26.74a5.66,5.66,0,0,1,2.18-4,18.2,18.2,0,0,1,8.57,3.64,53.27,53.27,0,0,0-7.3,1.83,16.19,16.19,0,0,1-1.82.46C123.47,65.07,122.85,64.43,122.87,63.6Zm.88,2.07c-1.46.14-2.49-.17-3-.93-.8-1.16-.21-3.11.51-4a3.76,3.76,0,0,1,3.06-1.13h.1a5.88,5.88,0,0,0-2,4A2.35,2.35,0,0,0,123.75,65.67ZM99.89,62.09c-1.34-4.57-.38-10.19.82-12.5,2.43-4.67,6.88-4.9,10.53-4.08-2.8.78-7.14,3.79-7.51,5.76a1.18,1.18,0,0,0,.78,1.4c.67.3,1.45-.66,2.64-2.11,1.62-2,3.83-4.69,6.32-4.5,4.66.36,6.82,1.16,7.81,1.89-4-.46-6.93,2.57-8.4,4.08l-.24.24c-1.47,1.49-4.69,6.44-4,8.83a1.8,1.8,0,0,0,1.45,1.28c1.95.41,3.19-2.25,4.5-5.06,1.09-2.36,2.33-5,4.08-6.09,2.63-1.58,4.57-2.34,11.19,1.81,6.25,3.92,7.79,4.89,7.7,7.39a10.9,10.9,0,0,0-1.87-2c-2.53-2.18-6-1.81-8.47-.73a10.14,10.14,0,0,0-2.35,1.42l-.47,0a4.28,4.28,0,0,0-3.54,1.3c-.82,1-1.46,3.19-.53,4.55.52.75,1.64,1.44,4.08,1,2.3,1.06,6.27,1.48,10.15,1.88a38.79,38.79,0,0,1,7.9,1.3c2.94,1.09,3.95,2.55,4.29,3.57a2.61,2.61,0,0,1,0,1.63c-4.59-4.67-11.13-5.78-15.84-5.89h-.78a35.12,35.12,0,0,0-15.72,3.61,14.9,14.9,0,0,0-2.06,1.31q-1.65-.68-3.24-1.29c-1.3-.52-2.58-1-3.75-1.52A18.79,18.79,0,0,1,99.89,62.09Zm12-16.28c-2,.67-3.79,2.81-5.15,4.47-.81,1-1.74,2.13-2.09,2a.76.76,0,0,1-.53-.89C104.51,49.59,109.3,46.23,111.94,45.81ZM112.49,74a39.78,39.78,0,0,1,9.92,5.42c3.82,3.14,8.74,9.13,12.57,15.67a174.76,174.76,0,0,0-12.09-13.5c-2.41-2.29-7.47-5.07-11.11-7C112,74.36,112.24,74.16,112.49,74Zm-1.14.38-1.4-.73c-1-.52-1.73-.89-2-1.06-.46-.29-.9-.6-1.34-.93l2.4.95,3,1.19C111.77,74,111.56,74.15,111.35,74.34ZM75.25,87.53a.35.35,0,0,1-.46-.11c-.64-.68-.77-3.21-.23-4.15a2.37,2.37,0,0,1,.31-.43c.08.76.21,1.48.33,2.14C75.41,86.2,75.62,87.36,75.25,87.53Zm6.22-8.06a9.23,9.23,0,0,0-6.22,2.36,5.89,5.89,0,0,1,1.21-4.24A25.55,25.55,0,0,0,81.6,68.4C82.8,65,83.52,63,88.43,62.51a13.29,13.29,0,0,1,1.38-.07c4.21,0,6.37,2.08,8.46,4.1A20.77,20.77,0,0,0,101.12,69a26.77,26.77,0,0,0,4.06,2,19.68,19.68,0,0,0,2.54,1.92c.27.17,1,.55,2,1.08l1.27.66c-.22.23-.42.46-.61.7-3.67-1.61-9.45-2.27-15.16-1.55a28.68,28.68,0,0,0-10.42,3.25A18.44,18.44,0,0,0,81.47,79.47Zm29.08-3.54a7.08,7.08,0,0,1,2.67,2c2.56,3.37,2.17,5.29,1.71,6.13a2.64,2.64,0,0,1-2.5,1.31c-1.58-.13-2.92-1.55-3.33-3.55A7.41,7.41,0,0,1,110.55,75.93ZM87.22,111.71c-.34.22-.52.11-.58.07a2.65,2.65,0,0,1-.6-2A7.83,7.83,0,0,1,87.22,111.71ZM153,108.23c-1.49-1-2.44-2.91-3.43-4.92a20.44,20.44,0,0,0-2.73-4.53c-.75-.85-2.51-2.44-3.81-2.36a1.14,1.14,0,0,0-.94.52c-1.12,1.6,2,5.13,4.77,8.26a29.4,29.4,0,0,1,2.49,3,9.65,9.65,0,0,1,1.4,6.14,25,25,0,0,1-1.18,4,35.4,35.4,0,0,0-1.34,4.5,9.84,9.84,0,0,0-.11,1.41,4.11,4.11,0,0,0-1.19-.12h-.09c-9.12.24-14.21-.51-15.15-2.24-1.34-2.46-.2-5.77.71-8.43a12,12,0,0,0,.95-3.93c-.33-5.09-2.24-6-3.79-6-2.13.12-3.29,2.49-3.1,6.32a19.06,19.06,0,0,0,1.89,5.89c1.24,2.89,2.42,5.62,1.05,6.59-.66.47-2.6.57-4.65.67-3.17.15-7.12.35-9.18,1.94a.43.43,0,0,1-.54.06c-1.87-1.08-3.25-12.47-2.69-16.63a37.53,37.53,0,0,1,3.9-11.68c1.17-2.41,1.94-4,1.16-4.84a1.7,1.7,0,0,0-1.29-.56,2.34,2.34,0,0,0-.57.07c-2.08.51-5,3.76-6.24,8.32-.71,2.56-.88,7.18-.48,12.37.29,3.73,1,8.22,2,10-1.09.14-4-.52-6.46-1.73-2.22-1.07-3.63-2.32-4-3.5a15.5,15.5,0,0,1-.36-7.66,37.48,37.48,0,0,1,1.31-4.16c1.68-4.84,2.28-6.93,1.61-7.36a.88.88,0,0,0-.86,0c-1,.44-2.67,2.83-3.77,8.12-.49,2.36.31,8.3.55,9.92a31.27,31.27,0,0,0-4.63-1.66c-.27,0-.5-.24-.68-.62-1.05-2.22-.09-8.74,1.73-11.62,1.4-2.23,4-4.28,6.24-6.08,3.33-2.64,6.21-4.91,4.6-7.06a2.48,2.48,0,0,0-2-1.09c-1.63-.06-3.74,1.36-6.1,4.1a11.28,11.28,0,0,0-1.78,3.15,29.59,29.59,0,0,1-3.67,6.39,24.91,24.91,0,0,1-3.37,3.37c-1.59,1.4-3.1,2.73-3.47,3.89a38.71,38.71,0,0,1-4.92-8.71c-1.57-4.26-1.33-8,.71-11,3.83-5.68,11.07-7.46,15-7.27,4.54.22,7.54.28,7.86-.94a1.61,1.61,0,0,0-.5-1.57c-.9-.87-2.58-1.05-4.49-.49-7.17,2.12-9.6,1.85-15.46,1.19l-1.82-.2c3.15-2.72,7.69-4.56,13.18-5.26s11.26-.08,14.84,1.46a7.83,7.83,0,0,0-1.48,6.15c.45,2.2,2,3.77,3.75,3.92a3.08,3.08,0,0,0,2.93-1.55c.51-.94,1-3.05-1.75-6.63a7.44,7.44,0,0,0-2.75-2c.19-.23.39-.46.61-.68,3.62,1.9,8.74,4.7,11.14,7a191.39,191.39,0,0,1,13.7,15.48,50.1,50.1,0,0,1,3.38,7.68,106.27,106.27,0,0,0,5.58,13.52,15.06,15.06,0,0,1,1.17,2.7.24.24,0,0,0,.25.18.23.23,0,0,0,.2-.23c0-3.33-.29-9.64-3.1-14.47a98.51,98.51,0,0,0-7-9.57,72.44,72.44,0,0,0-4.49-7.29A56.38,56.38,0,0,0,122.7,79a39.55,39.55,0,0,0-9.79-5.39,14.28,14.28,0,0,1,1.78-1.11A35,35,0,0,1,131,69c4.7.11,11.25,1.24,15.75,6a.2.2,0,0,0,.18.07.21.21,0,0,0,.17-.1,2.76,2.76,0,0,0,.14-2.28c-.36-1.12-1.45-2.7-4.56-3.86a39,39,0,0,0-8-1.32c-3.4-.36-7.08-.74-9.4-1.59.38-.09.78-.2,1.22-.34a50.76,50.76,0,0,1,7.67-1.87,20.44,20.44,0,0,1,3.77,3.83.24.24,0,0,0,.21.08.23.23,0,0,0,.19-.14,8.38,8.38,0,0,0,.39-4.11c3.46.07,6,1,7.68,2.89,3.16,3.57,3.79,5.55,3.78,7.6a14.49,14.49,0,0,1-.23,2c-.1.72-.22,1.5-.28,2.25a24.07,24.07,0,0,0-7.57.74c-1.26-.73-2.44-1.54-3.54-2.29-2.46-1.69-4.58-3.15-6.23-2.77a2.77,2.77,0,0,0-1.77,1.51,2.7,2.7,0,0,0,.06,3.08c1.22,1.7,4.35,2.46,6.41,2.07.92-.17,1.94-.41,3-.66l2-.46c2.57,1.47,5.45,2.58,8.53,2.15a.25.25,0,0,0,.19-.17.22.22,0,0,0-.09-.24c-.51-.38-.61-1.34-.56-2.43a6,6,0,0,1,4.35,2.72c1.82,3,1,6,.21,8.6-.51,1.78-1,3.36-.53,4.66a14.94,14.94,0,0,1-1.46-1.17,13.84,13.84,0,0,0-7-3.66c-3.27-.64-5.13-.12-5.73.53a.85.85,0,0,0-.24.82c.4,1.47,3.58,1.85,6.39,2.19a22.46,22.46,0,0,1,2.73.41c1.5.38,6.41,1.85,6.7,4.67a9.43,9.43,0,0,1-1.33,4.9C153.36,104.94,152.6,106.54,153,108.23Zm-15.29-9a81.75,81.75,0,0,1,5.62,7.78c2.44,4.18,3,9.52,3,13-.2-.44-.46-1-.76-1.59a103.47,103.47,0,0,1-5.55-13.47A49.75,49.75,0,0,0,137.74,99.19ZM150,81a13,13,0,0,1-7.35-1.89,22.35,22.35,0,0,1,6.93-.62A4.41,4.41,0,0,0,150,81Zm-8.6-2.08-1.5.34c-1.08.26-2.09.5-3,.67-1.91.35-4.83-.33-5.95-1.89a2.26,2.26,0,0,1,0-2.6,2.32,2.32,0,0,1,1.48-1.28,1.76,1.76,0,0,1,.46-.06c1.42,0,3.29,1.29,5.42,2.75C139.26,77.54,140.31,78.27,141.42,78.94Z"/><path class="cls-6" d="M230.4,189.72s.69-8.15,0-10.48-2.7-2.16-6.61-2.87l-9.22-1.71,8.7,2.6s.17,1-1.31,1-6.61-.72-6.61-.72,6.87,1.35,6.26,1.44-9.3.71-11,.71,6.69-.35,6.43.27-3,1.35-3,1.35-1.91-.81-1.57-.18,1.92,2.15.09,2.6a4.83,4.83,0,0,1-3.39-.54,2.11,2.11,0,0,1-1.57,2.42c-2,.8-2.26-.36-2.26-.36a1.63,1.63,0,0,1-.52,1.61c-.78.63-6,2.42-6,2.42v1.35s8-2.87,8.69-2.78,1.22-.63,1.83-.63a22.47,22.47,0,0,1,2.44-.27,3.9,3.9,0,0,0,2.52-.54c.35-.44,3.13-6.72,10.09-6.36s3.39,3.23,3.39,3.23l2.26-.63-.17,2.11-2.13.76-1.26.4a5.55,5.55,0,0,0-1.09-3.27,6.66,6.66,0,0,0-3.22-1.48s2.81.58,3.31,3c.45,2.2.3,4.13-.61,5.29a5.79,5.79,0,0,1-4.87,1.88,5,5,0,0,1-3.87-2c-.87-1.08,1.65,3.78,5.69,2.74s4.48-2.38,5-3.19a10,10,0,0,0,.87-2.6l2.39-.9Z"/><path class="cls-6" d="M198.1,186.91s0-3.1-2.21-2.87-8.46,2.28-12.87,2.87-12.29,1.32-12.76,2.39a41.24,41.24,0,0,0-.92,6H167.6s-10,2.15-15.43,2.86-16.7,1.92-16.7,1.92l1.39,2.27,32.71-4.42s1-6.93,2.08-7,15.2-2.75,17.17-3.11S198.45,184.52,198.1,186.91Z"/><path class="cls-6" d="M227.09,192.21s-2.2,1-10.09,2.35-11.36.72-12.64,1.08a79.29,79.29,0,0,0-10.79,6c-1,1-24.23,6.09-24.23,6.09l2.08-9.44.35,7.41,20.18-5,.12-9.32,1.16,8.19s3-10.22,3.24-11.41.58,6.93.35,7.76,10-3.66,10-3.66-1.05,2.23,4.75,1.75S227.09,192.21,227.09,192.21Z"/><path class="cls-6" d="M169.34,199s-.44,5.56-3,7.17-9-.06-16.53.9a127,127,0,0,0-14.38,2.74l1.74-6.33Z"/><path class="cls-6" d="M133.5,202.81a8.64,8.64,0,0,0-5.48-6.46c-4.87-1.79-14.09,1.5-14.09,1.5l-3.4-2s-.34,3.13-2.35,3.49-6.69.45-10.43.81-12.09,2.69-12.09,2.69l8.61-1.35s-7.57,2.93-9,3a35.41,35.41,0,0,1-9.13-1.73c-4.26-1.26-5.66-2.59-5.66-2.59l10.88,2.59-15.23-4.66a19.19,19.19,0,0,1-5-1.35c-1.65-.9-3.13-4.93-5.39-5.11a2.31,2.31,0,0,0-2.53,2.06s1.34-2.74,2.79-1.07,1,1.25,1,1.25l-.52.48-.29.72s.17-.66-.87-.12-1.1,2.21-1.1,2.21,1.22-1.2,1.39-.9-.23,1.5-.23,1.5-.58-.3-.64,1.13a22.64,22.64,0,0,1-.35,2.93l-.75.18s-.23,3.43.55,5.05,2.17,4.12,2.44,4.12-.22-1.39-.22-1.39l.39-1s.22.58.57.67a4.64,4.64,0,0,0,1.21,0s-.56-.09-1.56-1.21a11.55,11.55,0,0,1-1.66-2.6s1.74.36,1.79-2.65-.52-3.85-.52-3.85,1.17,2.59,1,2.33a29.69,29.69,0,0,1-.4-3.63l.27-.63,1.43,3.59.44-1,.47.67,2.05-2.15-1.22,3.18s7,3.68,7,4.71-8,.62-8.18.67-1,1.07-1,1.07,6.78,2.69,13,4.75,11.57,4.66,13.74,1,4.61-11.65,14.53-11.29,12.27,6.36,12.27,6.36l7.56-1.25a11.8,11.8,0,0,1,2.09-6.73C123.93,197,130.19,194.56,133.5,202.81Z"/><path class="cls-6" d="M133,205.25c0,.36.23,6.64-4.17,9.44s-7.08.3-7.08.3-2.46-2.06-3.42-1.16-3.48,3.85-3.48,3.85-.43-3.92-1.39-2.27a17.58,17.58,0,0,1-16.87,8.46c-11-.81-14.62-2.42-22-5.38S62,212.93,62,212.93l5.82,1.66-6.95-3.27-1.14-2s16.53,6.9,19.92,6.81l6.18-.18s2.44,4.48,5.74,5.56,14.27.09,17.48-4.4,3.14-6.09,3.14-6.09l4-.81,3.39-.89s1,4.79,3.83,5.64,5.13-1.34,6.35-3,1.65-6.79,1.65-6.79l.52,3.29Z"/><path class="cls-6" d="M224.77,184s.18,3.12-1.27,4.85a4.49,4.49,0,0,1-3,1.8s.87-.78.29-.84-1.59.88-3.19.18-1.62-1.2-1.62-1.2,3.3,2.16,5.39,0,1.68-4.56,0-5.38a7.23,7.23,0,0,0-2.9-.83s2.84-.26,3.94.83a3.26,3.26,0,0,1,.76,3.77C222.63,188.35,224.37,186.83,224.77,184Z"/><path class="cls-6" d="M220.4,166.6s6.11.72,5.42,2-2.55,3.23-8.35,3.82a60,60,0,0,1-11.25,0s10.67-.47,12.35-.77,2-1,.17-.84-8.29.48-10.38.66l-2.09.18s-14.9,4.6-17.22,5.08a15.24,15.24,0,0,0-4.17,1.55s-17.4.95-19.72,1.31-35.14,3-35.14,3l.46-.81s-6.15,1.78-6.61,1.67,5.57-3.58,5.57-3.58,31.54-2.51,41.52-3.1S182.9,175,182.9,175a28.58,28.58,0,0,0,6.15,0c1.86-.41,15.77-3.76,15.77-3.76l-.95-.45-16.27,3.85L204,169.83s19.92.62,17.75-1.44S220.4,166.6,220.4,166.6Z"/><path class="cls-6" d="M122.28,183.44a56,56,0,0,1-11.66,4.22,127.49,127.49,0,0,1-17.83,1.52c-2.44,0-8.53,2.31-11.66,2.41s-25.48-6-26.7-6-2-2.16-2-2.16,3.39-2.59,4-2.5,14.7,3.58,19.48,3.85,34.8-2,38.54-3,10.44-2.06,11.31-2.86,3,0,3,0S123.63,182.8,122.28,183.44Z"/><path class="cls-6" d="M228.66,150.56s.7,10.39-1.57,13.08a5,5,0,0,1-5.65,1.79c-.77-.23-2.34-2.83-2.71-3.45l-.07-.13a6.37,6.37,0,0,1-3.48,4.74c-3.13,1.49-3.87.59-3.87.59a11.1,11.1,0,0,1-2.53-3c-.48-1.26-.34-4.53-.3-5.18a29.53,29.53,0,0,1,.69-3s.31,5.82,1.27,7.39,2.91,2.87,4.28,2.06a5.19,5.19,0,0,0,2.5-3.09c.35-1.21,1.09-3.34,1.09-3.34l.91-.56s-.52,2.24,0,2.65,2.57,3.22,3.79,3.27a4.24,4.24,0,0,0,3.65-2.74,40.75,40.75,0,0,0,1.05-5.1c-.05-.14.3,1.39.3,1.39S228.66,153.16,228.66,150.56Z"/><path class="cls-6" d="M228.09,150.29s-6.35,1.39-6.82,1.48a3.7,3.7,0,0,0-1.22.76,10.77,10.77,0,0,0-2.48-1.12A9.34,9.34,0,0,0,213,152a3.69,3.69,0,0,0-2.35,3.22c-.09,1.57-.22,3.32-.22,3.32a10.85,10.85,0,0,1,3.74-5.6c2.83-2,3.35-1.35,3.35-1.35l-.56.36,1.67,4.53a27.07,27.07,0,0,1,3.85-3.81A48.6,48.6,0,0,1,228.09,150.29Z"/><path class="cls-6" d="M226.88,153.92a16.17,16.17,0,0,1,.21,2.19c0,.94-.65-.09-1.22-.31a8.17,8.17,0,0,0-2.08-.18l-.48.88h-1.44s-.08-2.31.79-3.08a5.17,5.17,0,0,1,2.39-.94l1.3,3Z"/><path class="cls-6" d="M227.09,158s-.87,6.45-3.43,5.15-2.35-5.15-2.35-5.15l.39,1,.17-1.32.48,1.12.13-1.12.39.9.27-.9,1.06-.18v1.08s.81.62,1.15.42.18,1.41.18,1.41l.56-1.41-.22,2Z"/><path class="cls-6" d="M217.52,160.41s-.55,3-2.21,4.13-2.09.36-2.57-.45a36.6,36.6,0,0,1-1.39-5.09l2.39-.2,2.57,2.51-1.26.09.95.56s-.82.79-1,.79a18,18,0,0,1-2-.79l2,2-2-1.08a1.57,1.57,0,0,0,1,1.48C215,164.72,216.92,163.14,217.52,160.41Z"/><path class="cls-6" d="M217.52,157.91s-.56-3.45-1.34-4.08-2.4,0-2.92.6a20.26,20.26,0,0,0-1.52,3.48,13.18,13.18,0,0,1,2-1.71c.26,0,.22-1.12.22-1.12l.71,1.12v-1.3l1.42,1.39-.31-1.57A23,23,0,0,1,217.52,157.91Z"/><path class="cls-6" d="M216.48,157.5s.78,1,.52,1.5-2.28.29-2.28.29l-1-.87A9.86,9.86,0,0,1,216.48,157.5Z"/><path class="cls-6" d="M125.76,154.05s3,3.41,3,7.08-1,10.83-5,13.88-7.4,4.14-11.32,1.72-4.17-4.93-7.22-5.47-2.43,0-2.43,0-3,6.54-4.61,7.35-7,4.12-13.31,2.15-7-5.75-7-5.75a17.33,17.33,0,0,0,5.66,3.6c3.48,1.34-1-1.79-1-1.79a12.17,12.17,0,0,1-2.87-5.56,36.14,36.14,0,0,1-.43-4.67s1.13,5.57,2.69,7.72,5.22,5.28,9.14,4.84,7.13-3.41,9.3-7.35,1.31-4.84,1.31-4.84a43.17,43.17,0,0,0-1.65-6.63c-.79-1.71,3.31,4.66,3.26,6.54s.65,2.69,1.61,2.51a7.57,7.57,0,0,1,3,.09c.35.18,0-3.77.7-5.92a27.65,27.65,0,0,1,1.91-4.3s-1.91,5.11-1,9.23S113.93,176,116,176s8.7-.72,10.35-7.53A25,25,0,0,0,125.76,154.05Z"/><path class="cls-6" d="M124.39,153.51A109.27,109.27,0,0,0,111,152.8c-6.67.12-14.44.42-19.66.71s-10.73,1.74-13.11,5.32-1.79,10.22-1.79,10.22,1-5.26,1.47-6,.67,2.63.67,2.63a25.66,25.66,0,0,1,2.32-5.31c1.39-2.22,6.21-6.28,10.32-6.34s8.3,0,8.3,0,1.39,1.91.4,2.81-.64,1.19-.64,1.19a5.19,5.19,0,0,1,3,.6c1.68.84,3.25-.06,3.6,1.85s.46,3,.46,3.17,3.42-5.73,5.22-7.41S117.43,153.45,124.39,153.51Z"/><path class="cls-6" d="M229.62,148.76a104.12,104.12,0,0,1-12.1,1.17c-6.08.18-10.09.63-10.09.63s-3,4.44-3.56,5.18a21.14,21.14,0,0,0-1.39,3.06h-1s3.39-5.91,4.09-6.72a5.58,5.58,0,0,0,.95-1.52s-18.35-1.08-21.48-1.08-38.71,1.7-38.71,1.7l-15.74.72-1.83,6v-5.56s-9.06-1.08-15-1.7-34.27,2.14-34.27,2.14l-7.14,1a68.91,68.91,0,0,0-1.47,7.8c0,1.61-1,5.65.69,9.68s2.44,6.18,3.48,7.35A39,39,0,0,0,79,181.92a13.13,13.13,0,0,1-5.48-3.85c-1.91-2.6-4.26-8.16-3.82-12.73s1.91-12.55,1.91-12.55,25.8-2.23,28.73-2.32,15.2-.63,20.59-.27,8.82.86,8.82.86l30.44-1,24.88-1,22.15.9S227.21,148,229.62,148.76Z"/><path class="cls-6" d="M202.62,155.74l-1.27,2.68-21.11,2-51.09,2.68V159.4s23.14-2.12,30.85-2.6,22.79-.48,22.79-.48Z"/><path class="cls-6" d="M202.52,176.91s.26.8,0,.94a2.29,2.29,0,0,1-1,0l.74-.94Z"/><path class="cls-6" d="M200.55,177.41s.26.8,0,.94a2.29,2.29,0,0,1-1,0l.74-.94Z"/><path class="cls-6" d="M200.65,180.12s.33.8,0,.94a3.62,3.62,0,0,1-1.21,0l.93-.94Z"/><path class="cls-6" d="M198.78,180.62s.33.8,0,.94a3.62,3.62,0,0,1-1.21,0l.93-.94Z"/><path class="cls-6" d="M197,181.42s.33.81,0,.94a3.37,3.37,0,0,1-1.21,0l.93-.94Z"/><path class="cls-6" d="M194.82,181.92s.33.81,0,.94a3.37,3.37,0,0,1-1.21,0l.93-.94Z"/><path class="cls-6" d="M198.81,177.91s.26.8,0,.94a2.29,2.29,0,0,1-1,0l.74-.94Z"/><path class="cls-6" d="M196.76,178.41s.26.8,0,.94a2.24,2.24,0,0,1-.95,0l.73-.94Z"/><path class="cls-6" d="M194.71,179.12s.26.8,0,.94a2.29,2.29,0,0,1-1,0l.74-.94Z"/><path class="cls-6" d="M192.45,179.62s.26.8,0,.94a2.28,2.28,0,0,1-1,0l.74-.94Z"/><path class="cls-6" d="M190.05,183s.22.71,0,.83a1.9,1.9,0,0,1-.84,0l.64-.83Z"/><path class="cls-6" d="M202.47,174.58s.23.7,0,.82a1.9,1.9,0,0,1-.84,0l.65-.82Z"/><path class="cls-6" d="M200.69,175s.23.71,0,.83a1.9,1.9,0,0,1-.84,0l.65-.83Z"/><path class="cls-6" d="M198.48,175.45s.23.71,0,.83a1.9,1.9,0,0,1-.84,0l.65-.83Z"/><path class="cls-6" d="M196.71,176s.23.7,0,.82a1.9,1.9,0,0,1-.84,0l.65-.82Z"/><path class="cls-6" d="M194.66,176.47s.22.7,0,.82a1.9,1.9,0,0,1-.84,0l.64-.82Z"/><path class="cls-6" d="M192.39,177s.23.71,0,.82a1.86,1.86,0,0,1-.83,0l.64-.82Z"/><path class="cls-6" d="M189.57,177.47s.23.7,0,.82a1.86,1.86,0,0,1-.83,0l.64-.82Z"/><path class="cls-6" d="M187.52,183.44s.23.71,0,.83a1.9,1.9,0,0,1-.84,0l.65-.83Z"/><path class="cls-6" d="M190,180.12s.26.8,0,.94a2.29,2.29,0,0,1-1,0l.74-.94Z"/><path class="cls-6" d="M187.39,180.74s.26.81,0,.94a2.13,2.13,0,0,1-1,0l.74-.94Z"/><path class="cls-6" d="M184.63,181.42s.26.81,0,.94a2.09,2.09,0,0,1-.95,0l.73-.94Z"/><path class="cls-6" d="M184.7,184s.17.55,0,.64a1.52,1.52,0,0,1-.65,0l.5-.64Z"/><path class="cls-6" d="M182.05,184.32s.17.54,0,.63a1.37,1.37,0,0,1-.65,0l.5-.63Z"/><path class="cls-6" d="M178.81,185s.17.54,0,.63a1.52,1.52,0,0,1-.65,0l.5-.63Z"/><path class="cls-6" d="M181.82,181.92s.26.81,0,.94a2.13,2.13,0,0,1-1,0l.74-.94Z"/><path class="cls-6" d="M178.66,182.73s.26.81,0,.94a2.13,2.13,0,0,1-1,0l.74-.94Z"/><path class="cls-6" d="M174,183.32s.27.81,0,.94a2.24,2.24,0,0,1-.95,0l.74-.94Z"/><path class="cls-6" d="M174.09,185.67s.26.81,0,.94a2.13,2.13,0,0,1-1,0l.74-.94Z"/><path class="cls-6" d="M169.22,184.16s.26.8,0,.94a2.29,2.29,0,0,1-1,0l.74-.94Z"/><path class="cls-6" d="M164.09,184.83s.26.81,0,.94a2.13,2.13,0,0,1-1,0l.74-.94Z"/><path class="cls-6" d="M163.94,181.42s.26.81,0,.94a2.09,2.09,0,0,1-.95,0l.73-.94Z"/><path class="cls-6" d="M169.22,180.74s.26.81,0,.94a2.13,2.13,0,0,1-1,0l.74-.94Z"/><path class="cls-6" d="M174,180.24s.27.81,0,.94a2.09,2.09,0,0,1-.95,0l.74-.94Z"/><path class="cls-6" d="M163.94,187.85s.26.81,0,.94a2.09,2.09,0,0,1-.95,0l.73-.94Z"/><path class="cls-6" d="M158.92,185.51s.34,1.07,0,1.25a3.06,3.06,0,0,1-1.27,0l1-1.25Z"/><path class="cls-6" d="M153.18,186.17s.34,1.07,0,1.25a2.9,2.9,0,0,1-1.27,0l1-1.25Z"/><path class="cls-6" d="M147.49,187s.35,1.07,0,1.25a2.86,2.86,0,0,1-1.26,0l1-1.25Z"/><path class="cls-6" d="M147.49,183.32s.35,1.07,0,1.24a2.86,2.86,0,0,1-1.26,0l1-1.24Z"/><path class="cls-6" d="M141.46,184s.35,1.07,0,1.25a2.86,2.86,0,0,1-1.26,0l1-1.25Z"/><path class="cls-6" d="M141.67,187.69s.34,1.07,0,1.24a2.9,2.9,0,0,1-1.27,0l1-1.24Z"/><path class="cls-6" d="M135.4,188.35s.35,1.07,0,1.25a3,3,0,0,1-1.26,0l1-1.25Z"/><path class="cls-6" d="M128.91,189.2s.34,1.07,0,1.25a2.9,2.9,0,0,1-1.27,0l1-1.25Z"/><path class="cls-6" d="M122.24,190.06s.34,1.06,0,1.24a2.9,2.9,0,0,1-1.27,0l1-1.24Z"/><path class="cls-6" d="M122,186.36s.35,1.07,0,1.25a2.9,2.9,0,0,1-1.27,0l1-1.25Z"/><path class="cls-6" d="M128.65,185.51s.35,1.07,0,1.25a3.07,3.07,0,0,1-1.27,0l1-1.25Z"/><path class="cls-6" d="M135.4,184.85s.35,1.06,0,1.24a2.86,2.86,0,0,1-1.26,0l1-1.24Z"/><path class="cls-6" d="M153.18,182.66s.34,1.06,0,1.24a2.9,2.9,0,0,1-1.27,0l1-1.24Z"/><path class="cls-6" d="M158.53,182s.34,1.07,0,1.25a2.9,2.9,0,0,1-1.27,0l1-1.25Z"/><path class="cls-6" d="M158.92,188.85s.34,1.07,0,1.25a2.9,2.9,0,0,1-1.27,0l1-1.25Z"/><path class="cls-6" d="M153.74,189.68s.45,1.37,0,1.6a3.74,3.74,0,0,1-1.63,0l1.26-1.6Z"/><path class="cls-6" d="M147.65,190.18s.45,1.37,0,1.6a3.74,3.74,0,0,1-1.63,0l1.26-1.6Z"/><path class="cls-6" d="M141.82,191s.45,1.37,0,1.6a3.69,3.69,0,0,1-1.62,0l1.25-1.6Z"/><path class="cls-6" d="M135.56,191.75s.45,1.37,0,1.6a3.74,3.74,0,0,1-1.63,0l1.26-1.6Z"/><path class="cls-6" d="M129.07,192.6s.44,1.37,0,1.6a3.73,3.73,0,0,1-1.63,0l1.26-1.6Z"/><path class="cls-6" d="M169.37,186.29s.26.81,0,.94a2.13,2.13,0,0,1-1,0l.74-.94Z"/><path class="cls-6" d="M192.62,182.42s.26.81,0,.94a2.13,2.13,0,0,1-1,0l.74-.94Z"/><path class="cls-6" d="M213.81,176s-5.22,2.68-7.25,3.59-4.46,1.8-4.46,1.8.93,1.64,1.33,1.5-1.87-.5-1.87-.5l1.7,1.31-3.41-.81a11.68,11.68,0,0,0-2.28.81S206.91,178.41,213.81,176Z"/><path class="cls-6" d="M169,191.59l-3.09-1.41s-12.65,2.34-17.4,3l-19.2,2.7.7.41s15.72-2,18.79-2.45,16.64-3.12,16.64-3.12Z"/><path class="cls-6" d="M157.26,189.51c-.36.08-3.23.58-3.23.58a2.57,2.57,0,0,1-.09-.29s2.88-.42,2.88-.42Z"/><path class="cls-6" d="M152.19,169.81s.26,1.19-.13,1.34a3,3,0,0,1-1.36-.14l1.18-1.23Z"/><path class="cls-6" d="M155.14,170l-2.75.21s0-.22,0-.25,2.45-.11,2.45-.11Z"/><path class="cls-6" d="M146.45,170.22s.26,1.18-.12,1.34a3.25,3.25,0,0,1-1.37-.14l1.18-1.23Z"/><path class="cls-6" d="M149.41,170.38l-2.75.21s0-.22,0-.25,2.44-.11,2.44-.11Z"/><path class="cls-6" d="M140.89,170.58s.26,1.19-.13,1.34a3.09,3.09,0,0,1-1.37-.14l1.19-1.23Z"/><path class="cls-6" d="M143.84,170.75l-2.75.21s-.05-.22-.05-.25,2.44-.11,2.44-.11Z"/><path class="cls-6" d="M134.45,171.29s.26,1.19-.13,1.34a3.19,3.19,0,0,1-1.36-.14l1.18-1.23Z"/><path class="cls-6" d="M137.4,171.45l-2.75.21s-.05-.21-.05-.25,2.45-.11,2.45-.11Z"/><path class="cls-6" d="M128.07,172s.26,1.18-.13,1.34a3.19,3.19,0,0,1-1.36-.14l1.18-1.23Z"/><path class="cls-6" d="M131,172.16l-2.75.21s-.05-.22-.05-.25,2.45-.11,2.45-.11Z"/><path class="cls-6" d="M134.77,167.66s.26,1.19-.13,1.34a3,3,0,0,1-1.36-.14l1.18-1.23Z"/><path class="cls-6" d="M137.72,167.83,135,168s-.05-.22-.05-.25,2.45-.11,2.45-.11Z"/><path class="cls-6" d="M134.45,164.1s.26,1.18-.13,1.34a3.19,3.19,0,0,1-1.36-.14l1.18-1.23Z"/><path class="cls-6" d="M137.4,164.26l-2.75.21s-.05-.22-.05-.25,2.45-.11,2.45-.11Z"/><path class="cls-6" d="M140.31,163.62s.26,1.18-.13,1.33a3.08,3.08,0,0,1-1.36-.13l1.18-1.24Z"/><path class="cls-6" d="M143.26,163.78l-2.75.21s0-.22,0-.25,2.45-.11,2.45-.11Z"/><path class="cls-6" d="M146.38,163.24s.21,1-.12,1.13a2.61,2.61,0,0,1-1.15-.13l1-1Z"/><path class="cls-6" d="M148.87,163.39c-.26,0-2.32.17-2.32.17a1.12,1.12,0,0,1,0-.21s2.06-.08,2.06-.08Z"/><path class="cls-6" d="M152.15,162.83s.2,1-.13,1.13a2.57,2.57,0,0,1-1.15-.14l1-1Z"/><path class="cls-6" d="M154.64,163l-2.32.13s0-.18,0-.21,2.06-.05,2.06-.05Z"/><path class="cls-6" d="M157.83,162.46s.2,1-.13,1.13a2.67,2.67,0,0,1-1.15-.15l1-1Z"/><path class="cls-6" d="M160.31,162.65l-2.32.13s0-.19,0-.22,2.07-.05,2.07-.05Z"/><path class="cls-6" d="M162.8,162.08s.2,1-.13,1.13a2.73,2.73,0,0,1-1.15-.14l1-1Z"/><path class="cls-6" d="M165.29,162.27l-2.32.13s0-.18,0-.21,2.06-.05,2.06-.05Z"/><path class="cls-6" d="M167.86,161.71s.2,1-.13,1.12a2.55,2.55,0,0,1-1.15-.14l1-1Z"/><path class="cls-6" d="M172.73,161.33s.2,1-.13,1.13a2.67,2.67,0,0,1-1.15-.15l1-1Z"/><path class="cls-6" d="M177.51,161.11s.2,1-.13,1.13a2.73,2.73,0,0,1-1.15-.14l1-1Z"/><path class="cls-6" d="M180.54,160.86s.2,1-.13,1.13a2.73,2.73,0,0,1-1.15-.14l1-1Z"/><path class="cls-6" d="M183.31,160.89s.15.72-.09.8a1.86,1.86,0,0,1-.82-.1l.73-.73Z"/><path class="cls-6" d="M186.06,160.6s.14.72-.1.8a1.89,1.89,0,0,1-.82-.1l.73-.73Z"/><path class="cls-6" d="M188.64,160.46s.14.72-.1.81a2,2,0,0,1-.82-.11l.73-.72Z"/><path class="cls-6" d="M191.16,160.37s.14.72-.09.81a2,2,0,0,1-.82-.1l.72-.73Z"/><path class="cls-6" d="M193.36,160.17s.14.72-.1.81a1.89,1.89,0,0,1-.82-.1l.73-.73Z"/><path class="cls-6" d="M195.45,159.94s.14.72-.1.81a1.86,1.86,0,0,1-.82-.1l.73-.73Z"/><path class="cls-6" d="M197.53,159.74s.15.72-.09.81a1.86,1.86,0,0,1-.82-.1l.73-.73Z"/><path class="cls-6" d="M199.27,162.19s.32.66.11.8a1.83,1.83,0,0,1-.82.11l.53-.89Z"/><path class="cls-6" d="M197.38,162.45s.29.67.08.81a1.89,1.89,0,0,1-.82.09l.55-.88Z"/><path class="cls-6" d="M195.42,162.65s.3.67.08.81a1.89,1.89,0,0,1-.82.09l.56-.88Z"/><path class="cls-6" d="M193.34,162.91s.29.67.08.81a1.9,1.9,0,0,1-.83.08l.56-.87Z"/><path class="cls-6" d="M199.43,164.93s.38.66.08.81a3.64,3.64,0,0,1-1.15.12l.81-.9Z"/><path class="cls-6" d="M197.69,165.26s.38.66.08.81a3.66,3.66,0,0,1-1.15.12l.81-.91Z"/><path class="cls-6" d="M195.57,165.66s.38.66.08.8a3.64,3.64,0,0,1-1.15.12l.81-.9Z"/><path class="cls-6" d="M193.48,165.86s.38.66.08.81a3.64,3.64,0,0,1-1.15.12l.81-.9Z"/><path class="cls-6" d="M191.37,166s.5.78.1,1a5.47,5.47,0,0,1-1.52.16L191,166Z"/><path class="cls-6" d="M189,166.23s.49.78.09,1a5.47,5.47,0,0,1-1.52.16l1.08-1.08Z"/><path class="cls-6" d="M186.39,166.5s.5.78.1,1a5.1,5.1,0,0,1-1.52.16l1.08-1.08Z"/><path class="cls-6" d="M180.93,167.09s.2,1-.13,1.13a2.57,2.57,0,0,1-1.15-.14l1-1Z"/><path class="cls-6" d="M180.62,163.72s.28,1,0,1.14a2.62,2.62,0,0,1-1.15-.05l.93-1.1Z"/><path class="cls-6" d="M183.41,163.56s.28,1,0,1.13a2.71,2.71,0,0,1-1.16,0l.94-1.1Z"/><path class="cls-6" d="M186.16,163.37s.28,1,0,1.14a2.62,2.62,0,0,1-1.15,0l.93-1.1Z"/><path class="cls-6" d="M188.74,163.12s.28,1,0,1.13a2.66,2.66,0,0,1-1.15,0l.93-1.1Z"/><path class="cls-6" d="M191.27,163s.28,1,0,1.13a2.71,2.71,0,0,1-1.16,0L191,163Z"/><path class="cls-6" d="M183.74,166.73s.2,1-.13,1.13a2.64,2.64,0,0,1-1.14-.15l1-1Z"/><path class="cls-6" d="M170.34,161.9,168,162s0-.18,0-.21,2.07-.05,2.07-.05Z"/><path class="cls-6" d="M140.31,167.18s.26,1.19-.13,1.34a3.19,3.19,0,0,1-1.36-.14l1.18-1.23Z"/><path class="cls-6" d="M143.26,167.35l-2.75.21s0-.22,0-.25,2.45-.11,2.45-.11Z"/><path class="cls-6" d="M146.45,166.7s.26,1.19-.12,1.34a3.25,3.25,0,0,1-1.37-.14l1.18-1.23Z"/><path class="cls-6" d="M149.41,166.86l-2.75.21s0-.22,0-.25,2.44-.11,2.44-.11Z"/><path class="cls-6" d="M152.37,166.22s.26,1.18-.13,1.33a3.08,3.08,0,0,1-1.36-.13l1.18-1.24Z"/><path class="cls-6" d="M155.32,166.38l-2.75.21s0-.22,0-.25,2.45-.11,2.45-.11Z"/><path class="cls-6" d="M157.58,169.21s.26,1.18-.13,1.33a3.08,3.08,0,0,1-1.36-.13l1.18-1.24Z"/><path class="cls-6" d="M160.54,169.37l-2.75.21a1.37,1.37,0,0,1,0-.25s2.44-.11,2.44-.11Z"/><path class="cls-6" d="M157.76,165.61s.26,1.18-.13,1.34a3.19,3.19,0,0,1-1.36-.14l1.18-1.23Z"/><path class="cls-6" d="M160.71,165.77,158,166a1.37,1.37,0,0,1-.05-.25s2.44-.11,2.44-.11Z"/><path class="cls-6" d="M163.25,168.89s.26,1.18-.13,1.34a3.19,3.19,0,0,1-1.36-.14l1.18-1.23Z"/><path class="cls-6" d="M166.2,169.05l-2.74.21a1.37,1.37,0,0,1-.05-.25s2.44-.11,2.44-.11Z"/><path class="cls-6" d="M163.06,165.29s.26,1.19-.13,1.34a3.19,3.19,0,0,1-1.36-.14l1.18-1.23Z"/><path class="cls-6" d="M166,165.45l-2.75.21a1.45,1.45,0,0,1,0-.25s2.44-.11,2.44-.11Z"/><path class="cls-6" d="M168,168.08s.24,1.1-.12,1.24a3,3,0,0,1-1.26-.13l1.09-1.14Z"/><path class="cls-6" d="M170.7,168.23l-2.55.2s-.05-.2-.05-.23,2.27-.11,2.27-.11Z"/><path class="cls-6" d="M168.13,164.75s.24,1.1-.12,1.24a3,3,0,0,1-1.26-.13l1.09-1.14Z"/><path class="cls-6" d="M170.86,164.9l-2.54.19s0-.2,0-.23,2.27-.1,2.27-.1Z"/><path class="cls-6" d="M173.22,167.79s.24,1.09-.12,1.24a3,3,0,0,1-1.26-.13l1.09-1.14Z"/><path class="cls-6" d="M176,167.94l-2.54.19s0-.2,0-.23,2.27-.1,2.27-.1Z"/><path class="cls-6" d="M173,164.45s.24,1.1-.12,1.24a3,3,0,0,1-1.26-.13l1.09-1.14Z"/><path class="cls-6" d="M175.78,164.6l-2.55.2s0-.21,0-.24,2.27-.1,2.27-.1Z"/><path class="cls-6" d="M177.61,167.32s.19,1.09-.12,1.24-1.06-.11-1.06-.11l.94-1.16Z"/><path class="cls-6" d="M179.93,167.43l-2.16.23s0-.2,0-.23,1.92-.14,1.92-.14Z"/><path class="cls-6" d="M177.51,164s.19,1.09-.12,1.24-1.07-.11-1.07-.11l1-1.16Z"/><path class="cls-6" d="M179.83,164.1l-2.16.23s0-.2,0-.23,1.92-.14,1.92-.14Z"/><path class="cls-6" d="M151.31,190.31l-3.23.58a2.57,2.57,0,0,1-.09-.29s2.89-.43,2.89-.43Z"/><path class="cls-6" d="M145.54,191.16l-3.23.58a2.57,2.57,0,0,1-.09-.29s2.89-.43,2.89-.43Z"/><path class="cls-6" d="M139.47,192.09l-3.25.44s-.07-.25-.07-.29,2.9-.31,2.9-.31Z"/><path class="cls-6" d="M132.78,192.88l-3.25.5a2.81,2.81,0,0,1-.08-.29s2.9-.36,2.9-.36Z"/><path class="cls-6" d="M132.89,189.16l-3.75.49a2.62,2.62,0,0,1-.1-.3s3.35-.34,3.35-.34Z"/><path class="cls-6" d="M139.6,188.4l-3.75.49a2.57,2.57,0,0,1-.09-.29s3.34-.35,3.34-.35Z"/><path class="cls-6" d="M145.66,187.65l-3.75.48a2.57,2.57,0,0,1-.09-.29s3.34-.34,3.34-.34Z"/><path class="cls-6" d="M145,184.17l-3.75.49a2.82,2.82,0,0,1-.09-.3s3.34-.34,3.34-.34Z"/><path class="cls-6" d="M138.69,184.93l-3.75.49a2.57,2.57,0,0,1-.09-.29s3.34-.35,3.34-.35Z"/><path class="cls-6" d="M132.2,185.68c-.42.07-3.76.49-3.76.49a2.57,2.57,0,0,1-.09-.29s3.35-.34,3.35-.34Z"/><path class="cls-6" d="M125.53,186.35l-3.75.48a2.39,2.39,0,0,1-.1-.29s3.35-.34,3.35-.34Z"/><path class="cls-6" d="M125.77,190l-3.75.49a2.39,2.39,0,0,1-.1-.29s3.35-.35,3.35-.35Z"/><path class="cls-6" d="M126.86,193.53l-3.76.49a2.82,2.82,0,0,1-.09-.3s3.35-.34,3.35-.34Z"/><path class="cls-6" d="M151.57,187c-.42.07-3.75.49-3.75.49a2.57,2.57,0,0,1-.09-.29s3.34-.35,3.34-.35Z"/><path class="cls-6" d="M156.77,186.25l-3.76.49s-.09-.26-.09-.29,3.35-.35,3.35-.35Z"/><path class="cls-6" d="M162.39,185.55l-3.75.49a2.82,2.82,0,0,1-.09-.3s3.34-.34,3.34-.34Z"/><path class="cls-6" d="M167.9,185l-3.75.49a2.82,2.82,0,0,1-.09-.3s3.34-.34,3.34-.34Z"/><path class="cls-6" d="M167.51,188l-3.75.49a2.82,2.82,0,0,1-.09-.3s3.34-.34,3.34-.34Z"/><path class="cls-6" d="M167.51,181.82c-.42.07-3.75.49-3.75.49a2.57,2.57,0,0,1-.09-.29s3.34-.35,3.34-.35Z"/><path class="cls-6" d="M162,182.07l-3.75.49a2.39,2.39,0,0,1-.1-.29s3.35-.35,3.35-.35Z"/><path class="cls-6" d="M156.64,182.8c-.42.07-3.76.49-3.76.49a2.57,2.57,0,0,1-.09-.29s3.35-.34,3.35-.34Z"/><path class="cls-6" d="M151,183.47l-3.75.49a2.62,2.62,0,0,1-.1-.3s3.35-.34,3.35-.34Z"/><polygon class="cls-6" points="119.81 190.72 116.48 191.18 116.48 190.95 119.67 190.53 119.81 190.72"/><path class="cls-6" d="M94.88,191.18s-13.57,1.89-17.92,2-14.09-1.64-14.09-1.64l.56,2.7h-.35l-1.39-6.09H62l.83,3S72.33,193,77,192.9,94.88,191.18,94.88,191.18Z"/><path class="cls-6" d="M73.22,191.24l.91,5a8.29,8.29,0,0,1,1.74.71c0,.18,0,1.71.74,1.71s4.17.45,3.65.4-1.52-1.61-1.61-1.75-.74-5.24-.74-5.24h.37s.37,4.57,1,5.24,2.26,1.8,1.48,2.15-4.35-.35-5-.53A21.8,21.8,0,0,0,72,198c-1.48-.18-8.83-2.38-8.83-2.38a15.74,15.74,0,0,1,2.79-.4c1.08,0,7.48.94,7.48.94L72.83,191Z"/><polygon class="cls-6" points="70.46 190.38 70.46 195.99 70.2 195.81 70.2 190.38 70.46 190.38"/><polygon class="cls-6" points="67.65 189.6 67.65 195.57 67.33 195.57 67.33 189.45 67.65 189.6"/><polygon class="cls-6" points="64.75 188.91 65.36 195.28 65.06 195.28 64.43 188.71 64.75 188.91"/><polygon class="cls-6" points="114.1 188.35 114.62 194.96 114.36 194.96 113.75 188.2 114.1 188.35"/><polygon class="cls-6" points="107.97 189.65 108.53 195.28 108.25 195.28 107.71 189.33 107.97 189.65"/><polygon class="cls-6" points="101.53 189.89 101.83 196.29 101.23 189.89 101.53 189.89"/><polygon class="cls-6" points="93.7 192.05 93.7 197.88 93.32 192.05 93.7 192.05"/><polygon class="cls-6" points="86.87 193.09 86.87 197.34 86.61 193.09 86.87 193.09"/><path class="cls-6" d="M127.61,205.94a9.85,9.85,0,0,1-1.39,4.6,5.57,5.57,0,0,1-3.36,2.36c-.76.09-1.25,0-1.34-.18s-1.51-3.55-1.39-4.6.17-5.4,1.86-7.26,3.21-3.19,5.27-2.74,3.54,3.61,3.54,3.61-2-3.25-3.65-3.41-4,1.44-4.53,2.27.61-.32,1.63.24,1,1,1,1l0,.9s-.29-1.5-1.65-1.38a2.34,2.34,0,0,0-2.06,1.79c0,.39.93-.83,1.77-.59a1.39,1.39,0,0,1,1,.77,1.32,1.32,0,0,0-1.27-.39,1.4,1.4,0,0,0-1.1.87s.63.72,1.1.63.61.45.61,1,.81,1.3.92.58.24.84,0,1.76,1.31-1.16,1.22-1.64-.18,1.52-.44,2,1.17-1.4,1.08-2,0,1.91,0,2.09S127.61,205.94,127.61,205.94Z"/><path class="cls-6" d="M110.13,211.62s-1.68,4.75-5,6.54a21.75,21.75,0,0,1-10,2.54,16.07,16.07,0,0,1-4.41-1,23.07,23.07,0,0,0,5.71.18,63.5,63.5,0,0,0,6.44-1.64s-6.47,1.28-9.31,1.07a10.61,10.61,0,0,1-4.84-1.58s5.8,1.14,8.7.45a21.38,21.38,0,0,0,7.22-3.41,15.07,15.07,0,0,0,2.81-2.62l-.52,2,1.94-2.06-.61,2.12Z"/><path class="cls-6" d="M103.57,211.32l-.52,2.39v-1.37l-1.51,2.89s.53-2.21.47-2.09-2.18,2.78-2.26,2.81,1-1.73,1-1.73a6.79,6.79,0,0,1-5,2.36c-3.3.12-3.1-.6-3.27-.69s1.94,1.61,1.94,1.61-2.52-1.1-2.61-1.19a14.78,14.78,0,0,1,1,1.19c-.23-.18-2.41-1.64-2.41-1.64s.73,1.37.7,1.28S89,215.77,89,215.77l.55,1.37s-1.36-1.82-1.45-2a12.22,12.22,0,0,1,0-1.82l.78,1.27.79-1.69,1.18,1.26a13.33,13.33,0,0,1-.2-1.88,13.48,13.48,0,0,1,.93,1.49,4.41,4.41,0,0,1,1.54-5c2.63-1.85,4.37-.81,5-.54s-3-.39-3.94.78-1.23,3.58-.83,3.73,1.05-3.25,2.51-2.92,2.24,2.51,2.15,2.62,1.27-1.19,1.27-1.67a9.74,9.74,0,0,1,0,1.67,15.69,15.69,0,0,1,.56-1.49s.34.9.26,1,.84-1.11.84-1.11l0,1.41.89-2,.06,1.59.7-1.53v1.5l1-1.68Z"/><polygon class="cls-6" points="203.49 167.29 183.13 171.86 124.39 176.46 125.53 175.38 182.47 170.78 203.49 167.29"/><path class="cls-6" d="M125.53,165.48s-.73,2.57-1.37,2.86-1,.12-1,.83-.55,2.18-1.44,2.13-.07-1.53-.24-1.29a11.6,11.6,0,0,0-.64,1.25v-1l-.29,1-.23-.85-.24.89-.23-.89-.52,1.19-.64,2.05.23-2.05-.69,2.05v-2l-.76,2a17.58,17.58,0,0,0,0-1.78c-.05.11-.87,1.51-.87,1.51l.41-1.72-.93,1.72V171.3s0,2.47-.69,2.35a5,5,0,0,1-2.79-1.78,9.94,9.94,0,0,1-2.14-4,13.33,13.33,0,0,1,0-4.65,5.47,5.47,0,0,1,1.33-2.71s-1.22,4.41-1,5.08,2.09,2.28,2.09,2.28l-.18-2.38a15,15,0,0,0,1.1,2.86c.41.47.23-1.45.23-1.45s1.86.29,2-.48,1.88-.41,1.88-.41l.68,1.86.11-1.45.18,1.63.52-1.76.23,2.06.29-1.93.17,1.93.93-2.16V168l.41-2.56.3,1.11.51-1.11.17,1.23.76-.89V167s1.39-.58,1.27-.1S125.1,166,125.53,165.48Z"/><path class="cls-6" d="M125,162.3a7.84,7.84,0,0,0-2.11-4.19,6.1,6.1,0,0,0-4.53-2.12,6.53,6.53,0,0,0-4.55,1.8,3.91,3.91,0,0,0-.84,2.86,2.86,2.86,0,0,1,2.26-.29,2.63,2.63,0,0,1,1.86,1.49l-.7-2,1.13,2.09-.35-1.76s.9,1.91.9,1.82,0-1.94,0-1.94l.67,1.91-.2-2.21.75,2.33-.4-3.29,1,3.47-.06-3.15,1,3.15-.32-3.15,1.3,3.42-.55-3,1.36,3-.43-2.9,1.63,2.9-.53-2.39Z"/><path class="cls-6" d="M99.4,167.08s-.78,4.66-1.74,5.79-1.77,1.91-1.77,1.91l1.36-3.37-2,3.37.29-1.79-1,1.79.26-1.55-.81,1.23v-1.17L93,174.63l-1.3-2.06a2.81,2.81,0,0,1-.12.93c-.12.12-.78-1.05-.87-1.11a6.58,6.58,0,0,0-.84-.2l-1.22-.93-1.16-.6s1.25,2.54,1.77,3.44-2.38-1.29-2.38-1.29,2,3.32,2.15,3.47-.78.3-.78.3a6.64,6.64,0,0,1-4.09-2.93c-2-2.66-2.18-3.53-2.32-4.6a34.1,34.1,0,0,1,.78-5.53l.38,4.19.26-3.05.4,3.05.35-4.19.23,3.71.41-2.93c-.06.42,0,3.41,0,3.41s.52-3.68.52-3.53.35,4.54.35,4.54,1.6,1.37,2.41.75a2.19,2.19,0,0,0,.72-1.76l.38,1.7s0-2.66,0-2.42.46,2.3.46,2.3.26-2.24.26-2.12v1.88l.55-1.7.15,2.18.55-2.21.29,2.15.35-2.63.4,2a10.25,10.25,0,0,1,.64-1.58,19.46,19.46,0,0,1,.58,2.06l.32-1.58.17,1,.64-1.79.38,1.82.43-1.34S97.64,170.13,99.4,167.08Z"/><path class="cls-6" d="M98.24,162.06s-3-4.66-5.89-4.87a8.94,8.94,0,0,0-6.23,1.49,6.08,6.08,0,0,0-1.91,2l.92,1.38.06-1.44a19.27,19.27,0,0,1,2.18,2.18c.2.45-.87-2.38-.87-2.38s2,2.92,1.94,2.77-.44-3.14-.35-3,1.57,3.53,1.48,3.35A22,22,0,0,1,89,160c.18.21,1.25,3.85,1.25,3.7s-.73-4.48-.73-4.48l1.74,4.12-.6-4.24s1.21,3.11,1.24,3.2-.46-3.83-.46-3.83l1.16,3.35-.12-3.68,1.31,3.08a19.17,19.17,0,0,1-.32-2.24c.08,0,1.13,2.06,1.13,2.06l-.47-2.3S98,161.49,98.24,162.06Z"/><path class="cls-6" d="M216.77,139.06s6,3.76,7.43,4.42a20.16,20.16,0,0,1,5.1,4.18c.17.54-9.34-.06-13.22.36s-11.2,1-12.65.95,1.51-2.14-2.37-4.95-10.38-4.13-16.71-5.38-8.58-1.56-8.58-1.56,11.89,1.86,14.85,2.51,9.91,1.44,12.41,4.13,1.5,3.4,3.48,3.4,18.5-1,18.5-1-5-4.72-10.85-5.5-20.41-1.79-20.41-1.79a83,83,0,0,1,15.71-.12c6.73.83,5.17-1.32,5.17-1.32Z"/><path class="cls-6" d="M159.94,134.6s7.76.45,8.1,1.35-8.72,1.13-8.72,1.13l10.23-.19s1-.48-.21-1l-1.27-.56s4.53,1,3.44,1.8-15.4.39-15.4.39l-31.66-.09,8.58-.83-19.37-.46S159,134.28,159.94,134.6Z"/><path class="cls-6" d="M130.22,148.59s-3.4-8.07-9.31-10-16.18-2.48-16.18-2.48,16.44,2.21,14.44,3.19-4.44-.26-4.44-.26,2.79,1.43,4.7,1.25a4.46,4.46,0,0,1,3.31.63c.43.36,3.47,3.05,1.91,3.05A4.29,4.29,0,0,1,122,143S128,149.14,130.22,148.59Z"/><path class="cls-6" d="M178.73,138.16s16.16,3.46,18.81,6.33,2.34,3.35,0,3.47-10.89-.72-10.89-.72l9.69-1s-7.16-1.43-8.62-1.43,4.78-1.19,4.78-1.19Z"/><path class="cls-6" d="M83.16,136.07s11-.15,13.69,1.51,8.58,6.67,9.39,9.3-27.14,2.51-30.38,2.87-7.43,1.08-7.43,1.08,1.46-3.23,1.25-4.07,2.58-.71,2.58-.71-.93-2.69-1.86-2.6-5.33,0-7,0-3.6-.09-5,0-10.67,2.12-12.06,2.6a22,22,0,0,1-5.11,1.19c-1.74.12-1.39-.34-3.71,1.39s-3.48,3-4.64,3.51a15.61,15.61,0,0,1-5.22.65c-.81-.17-8.46,4.23-9.62,4.36a33.83,33.83,0,0,0-3.37.61c-.46.12-7.3,2.68-7.3,2.68s8.23-4.38,16.12-7.65A220.58,220.58,0,0,1,83.16,136.07Z"/><path class="cls-6" d="M73.07,181.38s-14.26-1.52-17.16-2.77-6-7.5-9.28-8.56-8.82-.82-9.74,1.21-2,5.2-1.86,10.66a54.72,54.72,0,0,0,2.9,15.42c1,2.36,2.44,5,2.44,5s-5-15.06-3.95-22.11,1.86-9.92,5.68-9,5.11-.38,8,3.75,3,6.91,3,6.91,0-2.06,5.57-1.34S73.07,181.38,73.07,181.38Z"/><polygon class="cls-6" points="33.99 176.58 4.24 167.56 4.24 168.34 33.99 176.58"/><path class="cls-6" d="M70.33,152.14l-.65,3.6-43.12,2S65.72,151.78,70.33,152.14Z"/><path class="cls-6" d="M66.61,219.56S65,231.21,60.26,230.41,52.17,219.56,51.38,217a150.6,150.6,0,0,1-2.87-19.62c-.17-4.48-.35-12.75.35-16a17.22,17.22,0,0,1,1.65-4.8,40.06,40.06,0,0,1,1,5.34,31.36,31.36,0,0,0,1,4.93s-1,9.71,0,15.48,3.39,14.28,5.65,17.23,4.79,4.49,6.35,1.71S66.61,219.56,66.61,219.56Z"/><polygon class="cls-6" points="29.98 192.17 17.98 184.28 15.43 179.15 17.34 184.58 30.22 192.89 29.98 192.17"/><path class="cls-6" d="M15.72,184.88s-.29,6-.87,5.5a6.79,6.79,0,0,1-1.1-3.29c-.12-1-.58-5.5-.58-5.5S15.33,189.26,15.72,184.88Z"/><path class="cls-6" d="M26.16,149.21s-7.66,2.06-10,2-5.48-2.93-5.48-2.93l-2.52.34a2.15,2.15,0,0,1,1.92,1.13c.6,1.2,3.65,1.64,3.47,3.17S9,158.35,9,158.35l9.05-4.57-.92-.48Z"/><path class="cls-6" d="M25.55,134.34l-1.91,13.91-3.92,1.14S23.64,138.1,25.55,134.34Z"/><polygon class="cls-6" points="33.12 128.42 30.33 146.43 24.85 148.25 26.56 133.08 33.12 128.42"/><path class="cls-6" d="M30.86,147.15s4.78-21,4.34-22.22-2.08-.63-3.91.53-7.48,6.1-8.66,8.52-3.34,10.84-3.34,10.84,3.39-9.77,4-10.48,10.61-11.57,10.78-8.7S30.86,147.15,30.86,147.15Z"/><path class="cls-6" d="M58.26,139.8l-26.88,7.35s2-9.23,2.17-9.86,2.52-10.93,2.35-12a3.92,3.92,0,0,0-.67-1.7s1.37-3.22,17.11-3.14,52,2.84,55.5,3.8,7.83,3.64,9.39,5.7a47.22,47.22,0,0,0,3.74,4.22s-7.39-7.35-10.26-8.16-15.92-2.87-26.19-3.4-39.83-2.16-44.1-.36-3.56,2-3.56,2a11.76,11.76,0,0,1-.35,4.18c-.61,2.69-3.71,15.77-3.39,16.31C34.11,146.4,57.73,139.8,58.26,139.8Z"/><polygon class="cls-6" points="39.9 123.7 47.79 140.67 45.82 140.67 38.74 126.93 37.93 124.24 39.9 123.7"/><polygon class="cls-6" points="38.63 128.42 42.86 140.67 38.63 129.91 41.52 142.35 37.93 131.47 38.51 141.86 36.54 133.14 37.93 127.53 38.63 128.42"/><path class="cls-6" d="M115.67,134.56s-.79-3.9-2-3.9-11.3,2-11.3,2l1.3,2.35Z"/><polygon class="cls-6" points="77.91 134.56 45.82 132.81 48.45 140.07 77.91 134.56"/><polygon class="cls-6" points="191.2 189.01 190.79 199.67 172.39 204.45 172.12 192.73 191.2 189.01"/><path class="cls-6" d="M221.56,184.46c.05.07.52,3.62-1.31,4.19a4.86,4.86,0,0,1-3.13,0s3-.81,2.41-1.14-1.45.12-1.77-.24a1.2,1.2,0,0,1,.26-1.55,3.56,3.56,0,0,1,2.17.39c0,.21.47-2.6-1.16-2.08a5.12,5.12,0,0,0-2.43,1.63S218.57,181,221.56,184.46Z"/><path class="cls-6" d="M201.17,139.89s14.27,1.7,16.35,2.51,4.17,2.33,3.78,2.78-12,.9-13.69,0,8.52-1.52,5.57-2.15S201.17,139.89,201.17,139.89Z"/><path class="cls-6" d="M150.7,139.89c.31-.18,31.75,4,31.51,5.81s-17.8,1.12-20.21,1.45-21.62,2-24.6,1.48-8.86-7.21-10-8.74,13.36,8.72,15.89,7.26,3.35-2.06,1.85-3.49,10.92,1.88,13.57.64S150.7,139.89,150.7,139.89Z"/><path class="cls-6" d="M109,140.43s3.87,5.83,4.65,7.53-3,.77-3,.77-4.92-7.45-7.35-10c-4-4.17-13.36-4.22-18.49-3.77A61.1,61.1,0,0,0,77,136.07L93.4,131.2s4.17-1.26,5.3-.54S109,140.43,109,140.43Z"/><polygon class="cls-6" points="40.4 204.75 41.91 208.57 39.65 206.78 21.03 191.99 39.7 205.25 40.4 204.75"/></g></g></g></g></svg>