<svg xmlns="http://www.w3.org/2000/svg" viewBox="0 0 80 80"><defs><style>.cls-1{fill:#3864a9;}.cls-2{fill:none;stroke:#fff;stroke-linejoin:round;}</style></defs><title>Recurso 76</title><g id="Capa_2" data-name="Capa 2"><g id="Capa_1-2" data-name="Capa 1"><path class="cls-1" d="M78.45,61.24A20.41,20.41,0,0,1,61.6,78.12,124.26,124.26,0,0,1,41.06,80,124,124,0,0,1,18.3,78.06,20.34,20.34,0,0,1,1.65,61.4,145.93,145.93,0,0,1,0,39.13,126.3,126.3,0,0,1,1.69,18.92,20.41,20.41,0,0,1,18,2.19,119.66,119.66,0,0,1,41.36,0,104.94,104.94,0,0,1,62,2.12,20.48,20.48,0,0,1,78.41,19,120.7,120.7,0,0,1,80,38.83,149,149,0,0,1,78.45,61.24Z"/><ellipse class="cls-2" cx="28.4" cy="45" rx="3.28" ry="3.25"/><ellipse class="cls-2" cx="51.71" cy="45" rx="3.28" ry="3.25"/><path class="cls-2" d="M55,45h.62a2.33,2.33,0,0,0,1.85-.92,2.19,2.19,0,0,0,.39-1.53,4.51,4.51,0,0,0-3.34-4.17l-5.27-1.59a2.79,2.79,0,0,1-.55-.33c-1-1-5-4.71-6.34-4.71H27.77a4.5,4.5,0,0,0-2.55.8,4.42,4.42,0,0,0-1.65,2.1l-.47,1.27a15.19,15.19,0,0,0-1,5.33v2.39A1.36,1.36,0,0,0,23.5,45H25"/><line class="cls-2" x1="31.69" y1="45" x2="48.43" y2="45"/><path class="cls-2" d="M48.93,36.69c-2.41-.17-12.82-.78-18.37-1.31-.77-.07-.7-2.21-.76-3.63"/></g></g></svg>