<svg xmlns="http://www.w3.org/2000/svg" viewBox="0 0 20.21 10.86"><defs><style>.cls-1{fill:none;stroke:#fff;stroke-linecap:round;stroke-linejoin:round;}</style></defs><title>Recurso 35</title><g id="Capa_2" data-name="Capa 2"><g id="Capa_1-2" data-name="Capa 1"><ellipse class="cls-1" cx="3.94" cy="8.42" rx="1.96" ry="1.94"/><ellipse class="cls-1" cx="15.68" cy="8.42" rx="1.96" ry="1.94"/><path class="cls-1" d="M17.65,8.42h1.18A.57.57,0,0,0,19.39,8l.29-1.32a1.69,1.69,0,0,0-1.35-1.95L14.18,3.45S11.15.5,10.24.5H3.87A2.71,2.71,0,0,0,2.34,1a2.65,2.65,0,0,0-1,1.25L1,3.13A8.45,8.45,0,0,0,.5,6V7.61a.82.82,0,0,0,.82.81H2"/><line class="cls-1" x1="5.9" y1="8.42" x2="13.72" y2="8.42"/><path class="cls-1" d="M14.18,3.45c-1.44-.1-6.73-.47-10-.78-.46,0-.42-1.32-.46-2.17"/></g></g></svg>