<svg xmlns="http://www.w3.org/2000/svg" viewBox="0 0 81 81"><defs><style>.cls-1{fill:#fff;}.cls-2,.cls-3{fill:#3864a9;}.cls-3{fill-rule:evenodd;}</style></defs><title>Recurso 80</title><g id="Capa_2" data-name="Capa 2"><g id="Capa_1-2" data-name="Capa 1"><path class="cls-1" d="M40.61,80.75a124.33,124.33,0,0,1-21.86-1.94A20.58,20.58,0,0,1,1.91,61.93,144.29,144.29,0,0,1,.25,39.63,125.48,125.48,0,0,1,1.94,19.38,20.77,20.77,0,0,1,18.4,2.44,120.55,120.55,0,0,1,41.86.25,104.58,104.58,0,0,1,62.5,2.38,20.79,20.79,0,0,1,79.16,19.5a120.8,120.8,0,0,1,1.59,19.83A150.31,150.31,0,0,1,79.2,61.78,20.64,20.64,0,0,1,62.15,78.86a124.74,124.74,0,0,1-20.59,1.89Z"/><path class="cls-1" d="M41.86.5A104.94,104.94,0,0,1,62.45,2.62,20.48,20.48,0,0,1,78.91,19.54,120.48,120.48,0,0,1,80.5,39.33,149,149,0,0,1,79,61.74,20.41,20.41,0,0,1,62.1,78.62,124.26,124.26,0,0,1,41.56,80.5h-1A123.24,123.24,0,0,1,18.8,78.56,20.34,20.34,0,0,1,2.15,61.9,145.93,145.93,0,0,1,.5,39.63,126.3,126.3,0,0,1,2.19,19.42,20.41,20.41,0,0,1,18.45,2.69,119.66,119.66,0,0,1,41.86.5m0-.5A120.2,120.2,0,0,0,18.35,2.2,21,21,0,0,0,1.69,19.34,126,126,0,0,0,0,39.63,143.67,143.67,0,0,0,1.66,62,20.81,20.81,0,0,0,18.71,79.05a124.7,124.7,0,0,0,21.9,2h1a125.12,125.12,0,0,0,20.63-1.89,20.87,20.87,0,0,0,17.25-17.3A149.26,149.26,0,0,0,81,39.33a122.37,122.37,0,0,0-1.59-19.87A21.06,21.06,0,0,0,62.55,2.13,105.14,105.14,0,0,0,41.86,0Z"/><path class="cls-1" d="M36.17,29.88l-6.33-.79a1.07,1.07,0,0,0-.86.27,1,1,0,0,0-.37.82V50.81a1.1,1.1,0,0,0,.09.45,1,1,0,0,0,.28.37,1.05,1.05,0,0,0,.41.23h0a1.08,1.08,0,0,0,.44,0l6.32-.84V44.47l-1.4,1.84a1.17,1.17,0,0,1,.16.36,1.62,1.62,0,0,1-.08,1.1h0a1.69,1.69,0,0,1-.73.82,1.17,1.17,0,0,1-1,.08l0,0a1.18,1.18,0,0,1-.64-.77,1.66,1.66,0,0,1,.08-1.11,1.69,1.69,0,0,1,.73-.82,1.2,1.2,0,0,1,1-.07l.09,0,1.81-2.37V29.88Zm.55,12.7,2.42-4.43,0,0a1.7,1.7,0,0,1,0-2.09A1.13,1.13,0,0,1,41,36a1.51,1.51,0,0,1,.32.7l3-.18V28.94l-7.56.94v12.7Zm2.86-4.1a1,1,0,0,0,.45.1,1.16,1.16,0,0,0,.92-.46,1.63,1.63,0,0,0,.35-.85l3-.17v15l-4.77-.63-2.79-.37V43.72l2.86-5.24Zm5.25-2.06,2.37-.88a1.09,1.09,0,0,1,0-.18,1.65,1.65,0,0,1,.35-1,1.14,1.14,0,0,1,1.84,0,1.7,1.7,0,0,1,0,2.09,1.15,1.15,0,0,1-1.84,0,1.27,1.27,0,0,1-.2-.34L44.83,37V52.06l6.6-.87a1.13,1.13,0,0,0,.69-.36,1.11,1.11,0,0,0,.27-.73V30.85a1.1,1.1,0,0,0-.28-.73,1.08,1.08,0,0,0-.69-.36l-6.59-.82v7.48ZM49,34.66a1.09,1.09,0,0,1,.23.7,1.05,1.05,0,0,1-.23.7.59.59,0,0,1-1,0,1.08,1.08,0,0,1-.2-.4h0a1.36,1.36,0,0,1,0-.29,1.15,1.15,0,0,1,.23-.7.59.59,0,0,1,1,0Zm-8.42,1.71a1.2,1.2,0,0,1,0,1.41.6.6,0,0,1-1,0,1.2,1.2,0,0,1,0-1.41.6.6,0,0,1,1,0ZM34.41,46.82a1.2,1.2,0,0,1-.06.74h0a1.14,1.14,0,0,1-.49.56.63.63,0,0,1-.55,0h0a.64.64,0,0,1-.35-.43A1.17,1.17,0,0,1,33,47a1.14,1.14,0,0,1,.49-.56.63.63,0,0,1,.55,0,.43.43,0,0,1,.17.12h0a.79.79,0,0,1,.18.31Zm4-17.71,6.09-.76h.12l.13,0,6.73.83a1.67,1.67,0,0,1,1.45,1.64V50.1a1.71,1.71,0,0,1-.41,1.09,1.65,1.65,0,0,1-1,.54l-6.73.89-.13,0h-.12l-7.93-1H36.3l-6.38.84a1.68,1.68,0,0,1-.67,0h0a1.68,1.68,0,0,1-1-.9,1.72,1.72,0,0,1-.14-.68V30.18a1.72,1.72,0,0,1,.14-.68,1.56,1.56,0,0,1,.42-.55,1.66,1.66,0,0,1,.6-.35,1.77,1.77,0,0,1,.69-.05l6.4.79h.27Z"/><path class="cls-1" d="M44.55,52.77h0l-7.93-1.05h-.25l-6.38.84a1.78,1.78,0,0,1-1.85-1,1.77,1.77,0,0,1-.16-.73V30.18a1.69,1.69,0,0,1,.16-.73,1.82,1.82,0,0,1,.45-.6,1.69,1.69,0,0,1,1.39-.43l6.39.8a1,1,0,0,0,.24,0l7.93-1a.55.55,0,0,1,.18,0h.1l6.74.84a1.78,1.78,0,0,1,1.11.58,1.83,1.83,0,0,1,.44,1.18V50.1a1.74,1.74,0,0,1-.44,1.17,1.79,1.79,0,0,1-1.1.59l-6.74.89h-.23Zm-8.11-1.31h.16l7.93,1.05h.22l6.74-.89a1.57,1.57,0,0,0,.95-.51,1.51,1.51,0,0,0,.37-1V30.85a1.51,1.51,0,0,0-.38-1,1.46,1.46,0,0,0-1-.5l-6.74-.84h-.19l-7.95,1a1.61,1.61,0,0,1-.31,0l-6.39-.8a1.47,1.47,0,0,0-1.2.37,1.42,1.42,0,0,0-.38.51,1.52,1.52,0,0,0-.14.63V50.81a1.52,1.52,0,0,0,.14.63,1.42,1.42,0,0,0,.38.51,1.51,1.51,0,0,0,.56.32,1.62,1.62,0,0,0,.65,0l6.37-.85Zm8.26.74V36.91l2.7-1,.05.11a1.23,1.23,0,0,0,.19.31,1.06,1.06,0,0,0,.82.42,1,1,0,0,0,.82-.42,1.58,1.58,0,0,0,0-1.93,1,1,0,0,0-.82-.42,1.06,1.06,0,0,0-.82.42,1.53,1.53,0,0,0-.33,1c0,.06,0,.11,0,.16v.1l-.09,0-2.54,1V28.8l6.74.84a1.21,1.21,0,0,1,.77.4,1.25,1.25,0,0,1,.3.81V50.1a1.25,1.25,0,0,1-.3.81,1.21,1.21,0,0,1-.76.4ZM45,37.09V51.92l6.46-.85a1,1,0,0,0,.61-.33.93.93,0,0,0,.24-.64V30.85A1,1,0,0,0,52,30.2a1,1,0,0,0-.61-.32L45,29.08v7.16l2.12-.79s0-.06,0-.09a1.75,1.75,0,0,1,.39-1.12,1.27,1.27,0,0,1,1-.51,1.31,1.31,0,0,1,1,.51,1.8,1.8,0,0,1,.38,1.12,1.85,1.85,0,0,1-.38,1.13,1.27,1.27,0,0,1-2,0,2.33,2.33,0,0,1-.17-.26ZM44.4,52.2l-7.81-1V43.69l0,0,2.91-5.34.11,0A1,1,0,0,0,40.86,38a1.5,1.5,0,0,0,.31-.78v-.1h.11L44.4,37ZM36.84,51l7.31,1V37.23l-2.74.16a1.87,1.87,0,0,1-.36.81,1.28,1.28,0,0,1-1.42.44l-2.79,5.12ZM29.69,52a1.17,1.17,0,0,1-.32,0h0a1.31,1.31,0,0,1-.44-.25,1.15,1.15,0,0,1-.31-.42,1.18,1.18,0,0,1-.11-.5V30.18a1.18,1.18,0,0,1,.11-.5,1.15,1.15,0,0,1,.31-.42,1.11,1.11,0,0,1,.45-.25,1.09,1.09,0,0,1,.51,0l6.43.8V43.61l0,0L34.4,46.1,34.3,46l-.08,0a1.07,1.07,0,0,0-.92.07,1.63,1.63,0,0,0-.68.76,1.51,1.51,0,0,0-.07,1,1,1,0,0,0,.57.69l.05,0a1,1,0,0,0,.89-.07,1.56,1.56,0,0,0,.67-.76l0,0a1.62,1.62,0,0,0,.07-1,1.13,1.13,0,0,0-.16-.33l0-.08,1.68-2.2v7.07l-.1,0L29.87,52Zm0-22.82a.8.8,0,0,0-.27,0,.92.92,0,0,0-.36.2,1.11,1.11,0,0,0-.25.33,1,1,0,0,0-.08.4V50.81a.87.87,0,0,0,.09.4,1,1,0,0,0,.6.53h0a.84.84,0,0,0,.39,0L36,51V44.84l-1.12,1.47a2.52,2.52,0,0,1,.14.33A1.86,1.86,0,0,1,35,47.82v0a1.82,1.82,0,0,1-.78.86,1.36,1.36,0,0,1-1.11.09l-.07,0a1.26,1.26,0,0,1-.69-.84,1.78,1.78,0,0,1,.08-1.18,1.82,1.82,0,0,1,.79-.89,1.32,1.32,0,0,1,1.14-.08h0L36,43.52V30l-6.21-.77Zm3.83,19.12a.58.58,0,0,1-.26,0h0a.79.79,0,0,1-.4-.5,1.32,1.32,0,0,1,.61-1.44.74.74,0,0,1,.66,0,1.18,1.18,0,0,1,.19.11h0l.05.06a.94.94,0,0,1,.18.33,1.24,1.24,0,0,1-.06.8v0a1.27,1.27,0,0,1-.54.62A.85.85,0,0,1,33.52,48.33Zm-.14-.27A.53.53,0,0,0,33.8,48a1,1,0,0,0,.42-.48v0a1.06,1.06,0,0,0,.06-.65h0a.62.62,0,0,0-.13-.24H34.1v0l-.1-.05a.5.5,0,0,0-.44,0,1,1,0,0,0-.43.5,1.05,1.05,0,0,0-.06.65.53.53,0,0,0,.28.35Zm3.21-5V29.77l7.81-1v7.87l-3.23.19,0-.11a1.56,1.56,0,0,0-.29-.64,1,1,0,0,0-1.65,0,1.62,1.62,0,0,0,0,1.93l.08.09,0,.08ZM36.84,30v12.1L39,38.16a1.78,1.78,0,0,1-.35-1.09A1.74,1.74,0,0,1,39,36a1.27,1.27,0,0,1,1-.51,1.31,1.31,0,0,1,1,.51,1.65,1.65,0,0,1,.32.65l2.78-.17V29.08ZM40,38.16a.76.76,0,0,1-.59-.31,1.26,1.26,0,0,1-.25-.78,1.3,1.3,0,0,1,.25-.78.74.74,0,0,1,1.18,0h0a1.24,1.24,0,0,1,.26.78,1.2,1.2,0,0,1-.26.78A.76.76,0,0,1,40,38.16Zm0-1.92a.5.5,0,0,0-.39.21,1,1,0,0,0-.2.62,1,1,0,0,0,.2.63.49.49,0,0,0,.79,0,1,1,0,0,0,.2-.63,1,1,0,0,0-.2-.62A.5.5,0,0,0,40,36.24Zm8.43.21a.76.76,0,0,1-.59-.31,1.12,1.12,0,0,1-.22-.45,1.32,1.32,0,0,1,.22-1.11.74.74,0,0,1,1.18,0h0a1.24,1.24,0,0,1,.26.78,1.2,1.2,0,0,1-.26.78A.76.76,0,0,1,48.46,36.45Zm0-1.92a.5.5,0,0,0-.39.21,1,1,0,0,0-.21.62,1.09,1.09,0,0,0,0,.26,1.06,1.06,0,0,0,.18.37.49.49,0,0,0,.79,0,1.08,1.08,0,0,0,0-1.25A.5.5,0,0,0,48.46,34.53Z"/><path class="cls-1" d="M40.61,80.75a124.33,124.33,0,0,1-21.86-1.94A20.58,20.58,0,0,1,1.91,61.93,144.29,144.29,0,0,1,.25,39.63,125.48,125.48,0,0,1,1.94,19.38,20.77,20.77,0,0,1,18.4,2.44,120.55,120.55,0,0,1,41.86.25,104.58,104.58,0,0,1,62.5,2.38,20.79,20.79,0,0,1,79.16,19.5a120.8,120.8,0,0,1,1.59,19.83A150.31,150.31,0,0,1,79.2,61.78,20.64,20.64,0,0,1,62.15,78.86a124.74,124.74,0,0,1-20.59,1.89Z"/><path class="cls-2" d="M41.86.5A104.94,104.94,0,0,1,62.45,2.62,20.48,20.48,0,0,1,78.91,19.54,120.48,120.48,0,0,1,80.5,39.33,149,149,0,0,1,79,61.74,20.41,20.41,0,0,1,62.1,78.62,124.26,124.26,0,0,1,41.56,80.5h-1A123.24,123.24,0,0,1,18.8,78.56,20.34,20.34,0,0,1,2.15,61.9,145.93,145.93,0,0,1,.5,39.63,126.3,126.3,0,0,1,2.19,19.42,20.41,20.41,0,0,1,18.45,2.69,119.66,119.66,0,0,1,41.86.5m0-.5A120.2,120.2,0,0,0,18.35,2.2,21,21,0,0,0,1.69,19.34,126,126,0,0,0,0,39.63,143.67,143.67,0,0,0,1.66,62,20.81,20.81,0,0,0,18.71,79.05a124.7,124.7,0,0,0,21.9,2h1a125.12,125.12,0,0,0,20.63-1.89,20.87,20.87,0,0,0,17.25-17.3A149.26,149.26,0,0,0,81,39.33a122.37,122.37,0,0,0-1.59-19.87A21.06,21.06,0,0,0,62.55,2.13,105.14,105.14,0,0,0,41.86,0Z"/><path class="cls-3" d="M36.17,29.88l-6.33-.79a1.07,1.07,0,0,0-.86.27,1,1,0,0,0-.37.82V50.81a1.1,1.1,0,0,0,.09.45,1,1,0,0,0,.28.37,1.05,1.05,0,0,0,.41.23h0a1.08,1.08,0,0,0,.44,0l6.32-.84V44.47l-1.4,1.84a1.17,1.17,0,0,1,.16.36,1.62,1.62,0,0,1-.08,1.1h0a1.69,1.69,0,0,1-.73.82,1.17,1.17,0,0,1-1,.08l0,0a1.18,1.18,0,0,1-.64-.77,1.66,1.66,0,0,1,.08-1.11,1.69,1.69,0,0,1,.73-.82,1.2,1.2,0,0,1,1-.07l.09,0,1.81-2.37V29.88Zm.55,12.7,2.42-4.43,0,0a1.7,1.7,0,0,1,0-2.09A1.13,1.13,0,0,1,41,36a1.51,1.51,0,0,1,.32.7l3-.18V28.94l-7.56.94v12.7Zm2.86-4.1a1,1,0,0,0,.45.1,1.16,1.16,0,0,0,.92-.46,1.63,1.63,0,0,0,.35-.85l3-.17v15l-4.77-.63-2.79-.37V43.72l2.86-5.24Zm5.25-2.06,2.37-.88a1.09,1.09,0,0,1,0-.18,1.65,1.65,0,0,1,.35-1,1.14,1.14,0,0,1,1.84,0,1.7,1.7,0,0,1,0,2.09,1.15,1.15,0,0,1-1.84,0,1.27,1.27,0,0,1-.2-.34L44.83,37V52.06l6.6-.87a1.13,1.13,0,0,0,.69-.36,1.11,1.11,0,0,0,.27-.73V30.85a1.1,1.1,0,0,0-.28-.73,1.08,1.08,0,0,0-.69-.36l-6.59-.82v7.48ZM49,34.66a1.09,1.09,0,0,1,.23.7,1.05,1.05,0,0,1-.23.7.59.59,0,0,1-1,0,1.08,1.08,0,0,1-.2-.4h0a1.36,1.36,0,0,1,0-.29,1.15,1.15,0,0,1,.23-.7.59.59,0,0,1,1,0Zm-8.42,1.71a1.2,1.2,0,0,1,0,1.41.6.6,0,0,1-1,0,1.2,1.2,0,0,1,0-1.41.6.6,0,0,1,1,0ZM34.41,46.82a1.2,1.2,0,0,1-.06.74h0a1.14,1.14,0,0,1-.49.56.63.63,0,0,1-.55,0h0a.64.64,0,0,1-.35-.43A1.17,1.17,0,0,1,33,47a1.14,1.14,0,0,1,.49-.56.63.63,0,0,1,.55,0,.43.43,0,0,1,.17.12h0a.79.79,0,0,1,.18.31Zm4-17.71,6.09-.76h.12l.13,0,6.73.83a1.67,1.67,0,0,1,1.45,1.64V50.1a1.71,1.71,0,0,1-.41,1.09,1.65,1.65,0,0,1-1,.54l-6.73.89-.13,0h-.12l-7.93-1H36.3l-6.38.84a1.68,1.68,0,0,1-.67,0h0a1.68,1.68,0,0,1-1-.9,1.72,1.72,0,0,1-.14-.68V30.18a1.72,1.72,0,0,1,.14-.68,1.56,1.56,0,0,1,.42-.55,1.66,1.66,0,0,1,.6-.35,1.77,1.77,0,0,1,.69-.05l6.4.79h.27Z"/><path class="cls-2" d="M44.55,52.77h0l-7.93-1.05h-.25l-6.38.84a1.78,1.78,0,0,1-1.85-1,1.77,1.77,0,0,1-.16-.73V30.18a1.69,1.69,0,0,1,.16-.73,1.82,1.82,0,0,1,.45-.6,1.69,1.69,0,0,1,1.39-.43l6.39.8a1,1,0,0,0,.24,0l7.93-1a.55.55,0,0,1,.18,0h.1l6.74.84a1.78,1.78,0,0,1,1.11.58,1.83,1.83,0,0,1,.44,1.18V50.1a1.74,1.74,0,0,1-.44,1.17,1.79,1.79,0,0,1-1.1.59l-6.74.89h-.23Zm-8.11-1.31h.16l7.93,1.05h.22l6.74-.89a1.57,1.57,0,0,0,.95-.51,1.51,1.51,0,0,0,.37-1V30.85a1.51,1.51,0,0,0-.38-1,1.46,1.46,0,0,0-1-.5l-6.74-.84h-.19l-7.95,1a1.61,1.61,0,0,1-.31,0l-6.39-.8a1.47,1.47,0,0,0-1.2.37,1.42,1.42,0,0,0-.38.51,1.52,1.52,0,0,0-.14.63V50.81a1.52,1.52,0,0,0,.14.63,1.42,1.42,0,0,0,.38.51,1.51,1.51,0,0,0,.56.32,1.62,1.62,0,0,0,.65,0l6.37-.85Zm8.26.74V36.91l2.7-1,.05.11a1.23,1.23,0,0,0,.19.31,1.06,1.06,0,0,0,.82.42,1,1,0,0,0,.82-.42,1.58,1.58,0,0,0,0-1.93,1,1,0,0,0-.82-.42,1.06,1.06,0,0,0-.82.42,1.53,1.53,0,0,0-.33,1c0,.06,0,.11,0,.16v.1l-.09,0-2.54,1V28.8l6.74.84a1.21,1.21,0,0,1,.77.4,1.25,1.25,0,0,1,.3.81V50.1a1.25,1.25,0,0,1-.3.81,1.21,1.21,0,0,1-.76.4ZM45,37.09V51.92l6.46-.85a1,1,0,0,0,.61-.33.93.93,0,0,0,.24-.64V30.85A1,1,0,0,0,52,30.2a1,1,0,0,0-.61-.32L45,29.08v7.16l2.12-.79s0-.06,0-.09a1.75,1.75,0,0,1,.39-1.12,1.27,1.27,0,0,1,1-.51,1.31,1.31,0,0,1,1,.51,1.8,1.8,0,0,1,.38,1.12,1.85,1.85,0,0,1-.38,1.13,1.27,1.27,0,0,1-2,0,2.33,2.33,0,0,1-.17-.26ZM44.4,52.2l-7.81-1V43.69l0,0,2.91-5.34.11,0A1,1,0,0,0,40.86,38a1.5,1.5,0,0,0,.31-.78v-.1h.11L44.4,37ZM36.84,51l7.31,1V37.23l-2.74.16a1.87,1.87,0,0,1-.36.81,1.28,1.28,0,0,1-1.42.44l-2.79,5.12ZM29.69,52a1.17,1.17,0,0,1-.32,0h0a1.31,1.31,0,0,1-.44-.25,1.15,1.15,0,0,1-.31-.42,1.18,1.18,0,0,1-.11-.5V30.18a1.18,1.18,0,0,1,.11-.5,1.15,1.15,0,0,1,.31-.42,1.11,1.11,0,0,1,.45-.25,1.09,1.09,0,0,1,.51,0l6.43.8V43.61l0,0L34.4,46.1,34.3,46l-.08,0a1.07,1.07,0,0,0-.92.07,1.63,1.63,0,0,0-.68.76,1.51,1.51,0,0,0-.07,1,1,1,0,0,0,.57.69l.05,0a1,1,0,0,0,.89-.07,1.56,1.56,0,0,0,.67-.76l0,0a1.62,1.62,0,0,0,.07-1,1.13,1.13,0,0,0-.16-.33l0-.08,1.68-2.2v7.07l-.1,0L29.87,52Zm0-22.82a.8.8,0,0,0-.27,0,.92.92,0,0,0-.36.2,1.11,1.11,0,0,0-.25.33,1,1,0,0,0-.08.4V50.81a.87.87,0,0,0,.09.4,1,1,0,0,0,.6.53h0a.84.84,0,0,0,.39,0L36,51V44.84l-1.12,1.47a2.52,2.52,0,0,1,.14.33A1.86,1.86,0,0,1,35,47.82v0a1.82,1.82,0,0,1-.78.86,1.36,1.36,0,0,1-1.11.09l-.07,0a1.26,1.26,0,0,1-.69-.84,1.78,1.78,0,0,1,.08-1.18,1.82,1.82,0,0,1,.79-.89,1.32,1.32,0,0,1,1.14-.08h0L36,43.52V30l-6.21-.77Zm3.83,19.12a.58.58,0,0,1-.26,0h0a.79.79,0,0,1-.4-.5,1.32,1.32,0,0,1,.61-1.44.74.74,0,0,1,.66,0,1.18,1.18,0,0,1,.19.11h0l.05.06a.94.94,0,0,1,.18.33,1.24,1.24,0,0,1-.06.8v0a1.27,1.27,0,0,1-.54.62A.85.85,0,0,1,33.52,48.33Zm-.14-.27A.53.53,0,0,0,33.8,48a1,1,0,0,0,.42-.48v0a1.06,1.06,0,0,0,.06-.65h0a.62.62,0,0,0-.13-.24H34.1v0l-.1-.05a.5.5,0,0,0-.44,0,1,1,0,0,0-.43.5,1.05,1.05,0,0,0-.06.65.53.53,0,0,0,.28.35Zm3.21-5V29.77l7.81-1v7.87l-3.23.19,0-.11a1.56,1.56,0,0,0-.29-.64,1,1,0,0,0-1.65,0,1.62,1.62,0,0,0,0,1.93l.08.09,0,.08ZM36.84,30v12.1L39,38.16a1.78,1.78,0,0,1-.35-1.09A1.74,1.74,0,0,1,39,36a1.27,1.27,0,0,1,1-.51,1.31,1.31,0,0,1,1,.51,1.65,1.65,0,0,1,.32.65l2.78-.17V29.08ZM40,38.16a.76.76,0,0,1-.59-.31,1.26,1.26,0,0,1-.25-.78,1.3,1.3,0,0,1,.25-.78.74.74,0,0,1,1.18,0h0a1.24,1.24,0,0,1,.26.78,1.2,1.2,0,0,1-.26.78A.76.76,0,0,1,40,38.16Zm0-1.92a.5.5,0,0,0-.39.21,1,1,0,0,0-.2.62,1,1,0,0,0,.2.63.49.49,0,0,0,.79,0,1,1,0,0,0,.2-.63,1,1,0,0,0-.2-.62A.5.5,0,0,0,40,36.24Zm8.43.21a.76.76,0,0,1-.59-.31,1.12,1.12,0,0,1-.22-.45,1.32,1.32,0,0,1,.22-1.11.74.74,0,0,1,1.18,0h0a1.24,1.24,0,0,1,.26.78,1.2,1.2,0,0,1-.26.78A.76.76,0,0,1,48.46,36.45Zm0-1.92a.5.5,0,0,0-.39.21,1,1,0,0,0-.21.62,1.09,1.09,0,0,0,0,.26,1.06,1.06,0,0,0,.18.37.49.49,0,0,0,.79,0,1.08,1.08,0,0,0,0-1.25A.5.5,0,0,0,48.46,34.53Z"/></g></g></svg>