<svg xmlns="http://www.w3.org/2000/svg" viewBox="0 0 80 80"><defs><style>.cls-1{fill:#3864a9;}.cls-2,.cls-3{fill:#fff;}.cls-2{fill-rule:evenodd;}</style></defs><title>Recurso 73</title><g id="Capa_2" data-name="Capa 2"><g id="Capa_1-2" data-name="Capa 1"><path class="cls-1" d="M78.45,61.24A20.41,20.41,0,0,1,61.6,78.12,124.26,124.26,0,0,1,41.06,80,124,124,0,0,1,18.3,78.06,20.34,20.34,0,0,1,1.65,61.4,145.93,145.93,0,0,1,0,39.13,126.3,126.3,0,0,1,1.69,18.92,20.41,20.41,0,0,1,18,2.19,119.66,119.66,0,0,1,41.36,0,104.94,104.94,0,0,1,62,2.12,20.48,20.48,0,0,1,78.41,19,120.7,120.7,0,0,1,80,38.83,149,149,0,0,1,78.45,61.24Z"/><path class="cls-2" d="M35.67,29.38l-6.33-.79a1.07,1.07,0,0,0-.86.27,1,1,0,0,0-.37.82V50.31a1.1,1.1,0,0,0,.09.45,1,1,0,0,0,.28.37,1.05,1.05,0,0,0,.41.23h0a1.08,1.08,0,0,0,.44,0l6.32-.84V44l-1.4,1.84a1.17,1.17,0,0,1,.16.36,1.62,1.62,0,0,1-.08,1.1h0a1.69,1.69,0,0,1-.73.82,1.17,1.17,0,0,1-1,.08l0,0a1.18,1.18,0,0,1-.64-.77A1.66,1.66,0,0,1,32,46.28a1.69,1.69,0,0,1,.73-.82,1.17,1.17,0,0,1,1-.07l.09,0,1.81-2.37V29.38Zm.55,12.7,2.42-4.43,0,0a1.7,1.7,0,0,1,0-2.09,1.13,1.13,0,0,1,1.83,0,1.51,1.51,0,0,1,.32.7l3-.18V28.44l-7.56.94v12.7ZM39.08,38a1,1,0,0,0,.45.1,1.16,1.16,0,0,0,.92-.46,1.63,1.63,0,0,0,.35-.85l3-.17v15L39,50.93l-2.79-.37V43.22L39.08,38Zm5.25-2.06L46.7,35a1.09,1.09,0,0,1,0-.18,1.65,1.65,0,0,1,.35-1,1.14,1.14,0,0,1,1.84,0,1.7,1.7,0,0,1,0,2.09,1.15,1.15,0,0,1-1.84,0,1.27,1.27,0,0,1-.2-.34l-2.51.93V51.56l6.6-.87a1.13,1.13,0,0,0,.69-.36,1.11,1.11,0,0,0,.27-.73V30.35a1.1,1.1,0,0,0-.28-.73,1.08,1.08,0,0,0-.69-.36l-6.59-.82v7.48Zm4.12-1.76a1.09,1.09,0,0,1,.23.7,1.05,1.05,0,0,1-.23.7.59.59,0,0,1-1,0,1.08,1.08,0,0,1-.2-.4h0a1.36,1.36,0,0,1,0-.29,1.15,1.15,0,0,1,.23-.7.59.59,0,0,1,1,0ZM40,35.87a1.2,1.2,0,0,1,0,1.41.6.6,0,0,1-1,0,1.2,1.2,0,0,1,0-1.41.6.6,0,0,1,1,0ZM33.91,46.32a1.2,1.2,0,0,1-.06.74h0a1.14,1.14,0,0,1-.49.56.63.63,0,0,1-.55,0h0a.64.64,0,0,1-.35-.43,1.17,1.17,0,0,1,.06-.73,1.14,1.14,0,0,1,.49-.56.63.63,0,0,1,.55,0,.43.43,0,0,1,.17.12h0a.79.79,0,0,1,.18.31Zm4-17.71L44,27.85h.12l.13,0,6.73.83a1.67,1.67,0,0,1,1.45,1.64V49.6A1.71,1.71,0,0,1,52,50.69a1.65,1.65,0,0,1-1,.54l-6.73.89-.13,0H44l-7.93-1H35.8l-6.38.84a1.68,1.68,0,0,1-.67,0h0a1.68,1.68,0,0,1-1-.9,1.72,1.72,0,0,1-.14-.68V29.68A1.72,1.72,0,0,1,27.7,29a1.56,1.56,0,0,1,.42-.55,1.66,1.66,0,0,1,.6-.35,1.77,1.77,0,0,1,.69-.05l6.4.79h.27Z"/><path class="cls-3" d="M44.05,52.27h0l-7.93-1.05h-.25l-6.38.84a1.78,1.78,0,0,1-1.85-1,1.77,1.77,0,0,1-.16-.73V29.68a1.69,1.69,0,0,1,.16-.73,1.82,1.82,0,0,1,.45-.6,1.69,1.69,0,0,1,1.39-.43l6.39.8a1,1,0,0,0,.24,0l7.93-1a.55.55,0,0,1,.18,0h.1l6.74.84a1.78,1.78,0,0,1,1.11.58,1.83,1.83,0,0,1,.44,1.18V49.6a1.74,1.74,0,0,1-.44,1.17,1.79,1.79,0,0,1-1.1.59l-6.74.89h-.23ZM35.94,51h.16L44,52h.22L51,51.11a1.57,1.57,0,0,0,.95-.51,1.51,1.51,0,0,0,.37-1V30.35a1.51,1.51,0,0,0-.38-1,1.46,1.46,0,0,0-1-.5L44.24,28h-.19L36.1,29a1.61,1.61,0,0,1-.31,0l-6.39-.8a1.47,1.47,0,0,0-1.2.37,1.42,1.42,0,0,0-.38.51,1.52,1.52,0,0,0-.14.63V50.31a1.52,1.52,0,0,0,.14.63,1.42,1.42,0,0,0,.38.51,1.51,1.51,0,0,0,.56.32,1.62,1.62,0,0,0,.65,0L35.78,51Zm8.26.74V36.41l2.7-1,.05.11a1.23,1.23,0,0,0,.19.31,1.06,1.06,0,0,0,.82.42,1,1,0,0,0,.82-.42,1.58,1.58,0,0,0,0-1.93,1,1,0,0,0-.82-.42,1.06,1.06,0,0,0-.82.42,1.53,1.53,0,0,0-.33,1c0,.06,0,.11,0,.16v.1l-.09,0-2.54,1V28.3l6.74.84a1.21,1.21,0,0,1,.77.4,1.25,1.25,0,0,1,.3.81V49.6a1.25,1.25,0,0,1-.3.81,1.21,1.21,0,0,1-.76.4Zm.25-15.11V51.42l6.46-.85a1,1,0,0,0,.61-.33.93.93,0,0,0,.24-.64V30.35a1,1,0,0,0-.24-.65,1,1,0,0,0-.61-.32l-6.46-.8v7.16L46.57,35s0-.06,0-.09A1.75,1.75,0,0,1,47,33.74a1.27,1.27,0,0,1,1-.51,1.31,1.31,0,0,1,1,.51,1.8,1.8,0,0,1,.38,1.12A1.85,1.85,0,0,1,49,36a1.27,1.27,0,0,1-2,0,2.33,2.33,0,0,1-.17-.26ZM43.9,51.7l-7.81-1V43.19l0,0L39,37.82l.11,0a1,1,0,0,0,1.23-.33,1.5,1.5,0,0,0,.31-.78v-.1h.11l3.11-.18Zm-7.56-1.25,7.31,1V36.73l-2.74.16a1.87,1.87,0,0,1-.36.81,1.28,1.28,0,0,1-1.42.44l-2.79,5.12Zm-7.15,1.08a1.17,1.17,0,0,1-.32,0h0a1.31,1.31,0,0,1-.44-.25,1.15,1.15,0,0,1-.31-.42,1.18,1.18,0,0,1-.11-.5V29.68a1.18,1.18,0,0,1,.11-.5,1.15,1.15,0,0,1,.31-.42,1.11,1.11,0,0,1,.45-.25,1.09,1.09,0,0,1,.51,0l6.43.8V43.11l0,0L33.9,45.6l-.1-.06-.08,0a1.07,1.07,0,0,0-.92.07,1.63,1.63,0,0,0-.68.76,1.51,1.51,0,0,0-.07,1,1,1,0,0,0,.57.69l.05,0a1,1,0,0,0,.89-.07,1.56,1.56,0,0,0,.67-.76l0,0a1.62,1.62,0,0,0,.07-1,1.13,1.13,0,0,0-.16-.33l0-.08,1.68-2.2v7.07l-.1,0-6.32.83Zm0-22.82a.8.8,0,0,0-.27,0,.92.92,0,0,0-.36.2,1.11,1.11,0,0,0-.25.33,1,1,0,0,0-.08.4V50.31a.87.87,0,0,0,.09.4,1,1,0,0,0,.6.53h0a.84.84,0,0,0,.39,0l6.2-.82V44.34l-1.12,1.47a2.52,2.52,0,0,1,.14.33,1.86,1.86,0,0,1-.09,1.18v0a1.82,1.82,0,0,1-.78.86,1.36,1.36,0,0,1-1.11.09l-.07,0a1.26,1.26,0,0,1-.69-.84,1.78,1.78,0,0,1,.08-1.18,1.82,1.82,0,0,1,.79-.89,1.32,1.32,0,0,1,1.14-.08h0L35.54,43V29.49l-6.21-.77ZM33,47.83a.58.58,0,0,1-.26,0h0a.79.79,0,0,1-.4-.5,1.32,1.32,0,0,1,.61-1.44.74.74,0,0,1,.66,0,1.18,1.18,0,0,1,.19.11h0l.05.06a.94.94,0,0,1,.18.33,1.24,1.24,0,0,1-.06.8v0a1.27,1.27,0,0,1-.54.62A.85.85,0,0,1,33,47.83Zm-.14-.27a.53.53,0,0,0,.42-.05,1,1,0,0,0,.42-.48v0a1.06,1.06,0,0,0,.06-.65h0a.62.62,0,0,0-.13-.24H33.6v0L33.5,46a.5.5,0,0,0-.44,0,1,1,0,0,0-.43.5,1.05,1.05,0,0,0-.06.65.53.53,0,0,0,.28.35Zm3.21-5V29.27l7.81-1v7.87l-3.23.19,0-.11a1.56,1.56,0,0,0-.29-.64,1,1,0,0,0-1.65,0,1.62,1.62,0,0,0,0,1.93l.08.09,0,.08Zm.25-13.08v12.1l2.15-3.93a1.78,1.78,0,0,1-.35-1.09,1.74,1.74,0,0,1,.38-1.12,1.27,1.27,0,0,1,1-.51,1.31,1.31,0,0,1,1,.51,1.65,1.65,0,0,1,.32.65l2.78-.17V28.58Zm3.19,8.17a.76.76,0,0,1-.59-.31,1.26,1.26,0,0,1-.25-.78,1.3,1.3,0,0,1,.25-.78.74.74,0,0,1,1.18,0h0a1.24,1.24,0,0,1,.26.78,1.2,1.2,0,0,1-.26.78A.76.76,0,0,1,39.53,37.66Zm0-1.92a.5.5,0,0,0-.39.21,1,1,0,0,0-.2.62,1,1,0,0,0,.2.63.49.49,0,0,0,.79,0,1,1,0,0,0,.2-.63,1,1,0,0,0-.2-.62A.5.5,0,0,0,39.53,35.74ZM48,36a.76.76,0,0,1-.59-.31,1.12,1.12,0,0,1-.22-.45,1.32,1.32,0,0,1,.22-1.11.74.74,0,0,1,1.18,0h0a1.24,1.24,0,0,1,.26.78,1.2,1.2,0,0,1-.26.78A.76.76,0,0,1,48,36ZM48,34a.5.5,0,0,0-.39.21,1,1,0,0,0-.21.62,1.09,1.09,0,0,0,0,.26,1.06,1.06,0,0,0,.18.37.49.49,0,0,0,.79,0,1.08,1.08,0,0,0,0-1.25A.5.5,0,0,0,48,34Z"/></g></g></svg>