<svg xmlns="http://www.w3.org/2000/svg" viewBox="0 0 25.13 24.55"><defs><style>.cls-1,.cls-2{fill:#3864a9;}.cls-1{fill-rule:evenodd;}</style></defs><title>Recurso 296</title><g id="Capa_2" data-name="Capa 2"><g id="PC"><path class="cls-1" d="M8.24,1.65,1.91.87a1,1,0,0,0-.46,0,1.07,1.07,0,0,0-.4.23,1,1,0,0,0-.28.37A1.14,1.14,0,0,0,.68,2V22.58A1.14,1.14,0,0,0,.77,23a1,1,0,0,0,.28.37,1.16,1.16,0,0,0,.4.23h0a1.12,1.12,0,0,0,.45,0l6.32-.83v-6.6L6.83,18.08a1.24,1.24,0,0,1,.17.37,1.63,1.63,0,0,1-.08,1.1h0a1.69,1.69,0,0,1-.73.82,1.22,1.22,0,0,1-1,.09l-.06,0a1.18,1.18,0,0,1-.64-.77,1.69,1.69,0,0,1,.09-1.1,1.62,1.62,0,0,1,.73-.83,1.18,1.18,0,0,1,1-.07l.1.05,1.81-2.37V1.65Zm.54,12.7L11.2,9.92l0,0a1.74,1.74,0,0,1,0-2.09A1.15,1.15,0,0,1,13,7.8a1.51,1.51,0,0,1,.32.7l3-.18V.71l-7.56.94v12.7Zm2.86-4.09a1.23,1.23,0,0,0,.46.1A1.18,1.18,0,0,0,13,9.89a1.58,1.58,0,0,0,.34-.84l3-.18v15l-4.77-.63-2.79-.37V15.5l2.86-5.24Zm5.25-2.07,2.37-.88V7.14a1.66,1.66,0,0,1,.35-1,1.15,1.15,0,0,1,1.84,0,1.74,1.74,0,0,1,0,2.09,1.14,1.14,0,0,1-1.84,0,1.85,1.85,0,0,1-.21-.33l-2.51.92V23.84L23.5,23a1.08,1.08,0,0,0,.95-1.09V2.62a1.11,1.11,0,0,0-.27-.73,1.13,1.13,0,0,0-.69-.36L16.89.71V8.19ZM21,6.43a1.2,1.2,0,0,1,0,1.41.59.59,0,0,1-1,0,1,1,0,0,1-.2-.41h0a1.26,1.26,0,0,1,0-.28A1.11,1.11,0,0,1,20,6.43a.61.61,0,0,1,1,0ZM12.59,8.15a1.05,1.05,0,0,1,.23.7,1.09,1.09,0,0,1-.23.7.59.59,0,0,1-1,0,1.15,1.15,0,0,1-.23-.7,1.11,1.11,0,0,1,.23-.7.59.59,0,0,1,1,0ZM6.47,18.6a1,1,0,0,1-.06.73h0a1.09,1.09,0,0,1-.48.55.65.65,0,0,1-.56.05h0A.64.64,0,0,1,5,19.51a1.13,1.13,0,0,1,.06-.74,1.11,1.11,0,0,1,.49-.55.6.6,0,0,1,.55,0,.45.45,0,0,1,.17.11h0a.67.67,0,0,1,.17.31Zm4-17.71L16.57.13h.25L23.56,1A1.63,1.63,0,0,1,25,2.62V21.87A1.66,1.66,0,0,1,24.6,23a1.71,1.71,0,0,1-1,.55l-6.74.89h-.25L8.65,23.37H8.37L2,24.21a1.51,1.51,0,0,1-.67,0h0a1.54,1.54,0,0,1-.61-.34,1.5,1.5,0,0,1-.42-.56,1.53,1.53,0,0,1-.14-.68V2a1.53,1.53,0,0,1,.14-.68A1.59,1.59,0,0,1,.68.72,1.61,1.61,0,0,1,1.29.38,1.58,1.58,0,0,1,2,.32l6.39.8h.28Z"/><path class="cls-2" d="M16.62,24.55h-.05l-7.93-1a1.13,1.13,0,0,0-.26,0L2,24.34a1.74,1.74,0,0,1-.72-.05,1.62,1.62,0,0,1-.68-.38,1.64,1.64,0,0,1-.45-.6A1.63,1.63,0,0,1,0,22.58V2a1.77,1.77,0,0,1,.15-.73A1.76,1.76,0,0,1,.6.63,1.64,1.64,0,0,1,1.25.26,1.54,1.54,0,0,1,2,.2L8.39,1a1,1,0,0,0,.24,0l7.93-1a.58.58,0,0,1,.18,0h.1l6.73.84a1.79,1.79,0,0,1,1.56,1.76V21.87a1.78,1.78,0,0,1-1.54,1.76l-6.74.89h-.13ZM8.51,23.24h.16L16.6,24.3h.22l6.73-.89a1.5,1.5,0,0,0,.95-.5,1.56,1.56,0,0,0,.38-1V2.62a1.56,1.56,0,0,0-.38-1,1.61,1.61,0,0,0-1-.5L16.81.27h-.19l-8,1a1.5,1.5,0,0,1-.3,0L2,.44A1.39,1.39,0,0,0,1.32.5,1.35,1.35,0,0,0,.77.82a1.48,1.48,0,0,0-.39.51A1.45,1.45,0,0,0,.25,2V22.58a1.45,1.45,0,0,0,.13.63,1.54,1.54,0,0,0,1,.83,1.41,1.41,0,0,0,.64.05l6.38-.84Zm8.26.74V8.69l2.7-1,.05.1a1.08,1.08,0,0,0,.19.31,1,1,0,0,0,.82.42,1.06,1.06,0,0,0,.82-.42,1.58,1.58,0,0,0,0-1.93,1.06,1.06,0,0,0-.82-.42,1,1,0,0,0-.82.42,1.54,1.54,0,0,0-.33,1,.86.86,0,0,0,0,.16v.1l-.09,0-2.54.94V.57l6.74.84a1.23,1.23,0,0,1,.76.4,1.2,1.2,0,0,1,.31.81V21.87a1.25,1.25,0,0,1-.3.81,1.27,1.27,0,0,1-.77.41ZM17,8.86V23.69l6.46-.85a1,1,0,0,0,.85-1V2.62A1,1,0,0,0,24.09,2a1,1,0,0,0-.62-.32L17,.85V8l2.11-.78V7.14A1.85,1.85,0,0,1,19.51,6a1.31,1.31,0,0,1,1-.51,1.27,1.27,0,0,1,1,.51,1.8,1.8,0,0,1,.39,1.13,1.75,1.75,0,0,1-.39,1.12,1.27,1.27,0,0,1-1,.51,1.31,1.31,0,0,1-1-.51A2.33,2.33,0,0,1,19.34,8ZM16.47,24,8.66,23V15.44l2.92-5.34.1,0a1,1,0,0,0,1.23-.32A1.54,1.54,0,0,0,13.24,9v-.1h.11l3.11-.18ZM8.91,22.73l7.31,1V9l-2.75.16a1.71,1.71,0,0,1-.35.8,1.26,1.26,0,0,1-1.42.44L8.91,15.53ZM1.76,23.81a1.13,1.13,0,0,1-.32,0h0A1.16,1.16,0,0,1,1,23.5a1.09,1.09,0,0,1-.31-.41,1.19,1.19,0,0,1-.11-.51V2a1.19,1.19,0,0,1,.1-.51A1.24,1.24,0,0,1,1,1,1.29,1.29,0,0,1,1.41.78a1.28,1.28,0,0,1,.52,0l6.43.8V15.38l0,0L6.46,17.87l-.09-.05-.08,0a1.07,1.07,0,0,0-.92.06,1.52,1.52,0,0,0-.68.77,1.54,1.54,0,0,0-.08,1,1.07,1.07,0,0,0,.57.7l.05,0a1.07,1.07,0,0,0,.9-.08,1.48,1.48,0,0,0,.67-.76v0a1.51,1.51,0,0,0,.07-1,1.66,1.66,0,0,0-.15-.33l-.05-.07,1.68-2.21V23H8.25l-6.31.84ZM1.76,1a.77.77,0,0,0-.27,0,1,1,0,0,0-.36.21,1,1,0,0,0-.25.32A1.07,1.07,0,0,0,.8,2V22.58A1.11,1.11,0,0,0,.88,23a1,1,0,0,0,.25.32,1,1,0,0,0,.36.21h0a.94.94,0,0,0,.38,0l6.21-.82V16.61L7,18.09a1.15,1.15,0,0,1,.14.32A1.76,1.76,0,0,1,7,19.6v0a1.73,1.73,0,0,1-.78.86,1.26,1.26,0,0,1-1.1.09l-.07,0a1.29,1.29,0,0,1-.7-.85,1.79,1.79,0,0,1,.09-1.18,1.86,1.86,0,0,1,.79-.89,1.29,1.29,0,0,1,1.13-.07h0L8.11,15.3V1.76L1.9,1ZM5.59,20.11a.66.66,0,0,1-.27-.06h0a.76.76,0,0,1-.4-.5A1.3,1.3,0,0,1,5,18.72a1.22,1.22,0,0,1,.55-.61.78.78,0,0,1,.66-.06.57.57,0,0,1,.18.12h0l0,.06a.93.93,0,0,1,.17.33,1.17,1.17,0,0,1,0,.8v0A1.32,1.32,0,0,1,6,20,.86.86,0,0,1,5.59,20.11Zm-.15-.28a.51.51,0,0,0,.43,0,1,1,0,0,0,.42-.48h0a1,1,0,0,0,0-.66h0a.56.56,0,0,0-.12-.23l-.06,0v0l-.1-.06a.49.49,0,0,0-.45,0,1,1,0,0,0-.42.49.93.93,0,0,0-.06.65.51.51,0,0,0,.28.35Zm3.22-5V1.54l7.81-1V8.44l-3.23.19,0-.11a1.46,1.46,0,0,0-.3-.64,1,1,0,0,0-.82-.42,1.06,1.06,0,0,0-.82.42,1.54,1.54,0,0,0-.33,1,1.56,1.56,0,0,0,.33,1l.07.09,0,.07ZM8.91,1.76v12.1l2.14-3.93a1.83,1.83,0,0,1-.35-1.08,1.85,1.85,0,0,1,.38-1.13,1.28,1.28,0,0,1,2,0,1.72,1.72,0,0,1,.32.65l2.78-.16V.85ZM12.1,9.93a.75.75,0,0,1-.59-.3,1.28,1.28,0,0,1-.26-.78,1.26,1.26,0,0,1,.26-.78.74.74,0,0,1,1.18,0h0a1.2,1.2,0,0,1,.26.78,1.24,1.24,0,0,1-.26.78A.75.75,0,0,1,12.1,9.93ZM12.1,8a.53.53,0,0,0-.39.21,1,1,0,0,0-.21.63,1,1,0,0,0,.21.62.48.48,0,0,0,.79,0,1,1,0,0,0,.2-.62,1,1,0,0,0-.2-.63A.53.53,0,0,0,12.1,8Zm8.43.21a.78.78,0,0,1-.59-.3,1.3,1.3,0,0,1,0-1.56.74.74,0,0,1,1.18,0h0a1.22,1.22,0,0,1,.26.78,1.24,1.24,0,0,1-.26.78A.78.78,0,0,1,20.53,8.22Zm0-1.92a.55.55,0,0,0-.4.21,1,1,0,0,0-.2.63,1.07,1.07,0,0,0,0,.25.84.84,0,0,0,.17.37.49.49,0,0,0,.79,0,1,1,0,0,0,.21-.62,1,1,0,0,0-.21-.63A.53.53,0,0,0,20.53,6.3Z"/></g></g></svg>