<svg xmlns="http://www.w3.org/2000/svg" viewBox="0 0 36.72 29.71"><defs><style>.cls-1{fill:none;stroke:#3864a9;stroke-linejoin:round;}</style></defs><title>Recurso 295</title><g id="Capa_2" data-name="Capa 2"><g id="PC"><path class="cls-1" d="M23,11.54h9.44a.77.77,0,0,1,.5.18l3,2.45a.81.81,0,0,1,.29.62v.81a.79.79,0,0,1-.79.8H6.83a3.89,3.89,0,0,1-3.48-2.15L.59,8.72A.79.79,0,0,1,1.3,7.57H3.15a.8.8,0,0,1,.63.3l2.61,3.36a.79.79,0,0,0,.63.31h9.1"/><line class="cls-1" x1="16.57" y1="13.31" x2="15.47" y2="8.89"/><polyline class="cls-1" points="20.32 6.24 17.45 0.5 13.7 0.5 14.99 6.24"/><line class="cls-1" x1="23.86" y1="13.31" x2="21.65" y2="8.89"/><line class="cls-1" x1="15.63" y1="20.59" x2="16.57" y2="16.4"/><polyline class="cls-1" points="20.43 23.24 17.45 29.21 13.7 29.21 15.02 23.24"/><line class="cls-1" x1="23.86" y1="16.4" x2="21.76" y2="20.59"/><path class="cls-1" d="M23.19,8.89H14.36A1.32,1.32,0,0,1,13,7.57h0a1.32,1.32,0,0,1,1.32-1.33h8.83Z"/><path class="cls-1" d="M14.36,20.59h8.84a0,0,0,0,1,0,0v2.65a0,0,0,0,1,0,0H14.36A1.32,1.32,0,0,1,13,21.92v0a1.32,1.32,0,0,1,1.32-1.32Z"/><line class="cls-1" x1="23.86" y1="13.31" x2="16.63" y2="13.37"/></g></g></svg>