<svg xmlns="http://www.w3.org/2000/svg" viewBox="0 0 80.99 81"><defs><style>.cls-1{fill:#fff;}.cls-2{fill:#3864a9;}.cls-3{fill:none;stroke:#3864a9;stroke-linejoin:round;}</style></defs><title>Recurso 79</title><g id="Capa_2" data-name="Capa 2"><g id="Capa_1-2" data-name="Capa 1"><path class="cls-1" d="M40.61,80.75a124.33,124.33,0,0,1-21.86-1.94A20.58,20.58,0,0,1,1.91,61.93,144.29,144.29,0,0,1,.25,39.63,125.48,125.48,0,0,1,1.94,19.38,20.77,20.77,0,0,1,18.4,2.44,120.55,120.55,0,0,1,41.86.25,104.58,104.58,0,0,1,62.5,2.38,20.79,20.79,0,0,1,79.16,19.5a120.8,120.8,0,0,1,1.59,19.83A150.31,150.31,0,0,1,79.2,61.78,20.64,20.64,0,0,1,62.15,78.86a124.74,124.74,0,0,1-20.59,1.89Z"/><path class="cls-1" d="M41.86.5A104.94,104.94,0,0,1,62.45,2.62,20.48,20.48,0,0,1,78.91,19.54a120.59,120.59,0,0,1,1.58,19.79A149.13,149.13,0,0,1,79,61.74,20.41,20.41,0,0,1,62.1,78.62,124.26,124.26,0,0,1,41.56,80.5h-1A123.24,123.24,0,0,1,18.8,78.56,20.34,20.34,0,0,1,2.15,61.9,145.93,145.93,0,0,1,.5,39.63,126.3,126.3,0,0,1,2.19,19.42,20.41,20.41,0,0,1,18.45,2.69,119.66,119.66,0,0,1,41.86.5m0-.5A120.2,120.2,0,0,0,18.35,2.2,21,21,0,0,0,1.69,19.34,126,126,0,0,0,0,39.63,143.67,143.67,0,0,0,1.66,62,20.81,20.81,0,0,0,18.71,79.05a124.7,124.7,0,0,0,21.9,2h1a125.12,125.12,0,0,0,20.63-1.89,20.87,20.87,0,0,0,17.25-17.3A149.31,149.31,0,0,0,81,39.33a122.53,122.53,0,0,0-1.58-19.87A21.06,21.06,0,0,0,62.55,2.13,105.14,105.14,0,0,0,41.86,0Z"/><path class="cls-1" d="M45.11,37.19h9.43a.79.79,0,0,1,.51.18l3,2.45a.79.79,0,0,1,.3.62v.81a.8.8,0,0,1-.8.8H29a3.89,3.89,0,0,1-3.48-2.15l-2.77-5.53a.8.8,0,0,1,.71-1.16h1.86a.82.82,0,0,1,.63.31l2.61,3.36a.81.81,0,0,0,.63.31h9.1"/><line class="cls-1" x1="38.71" y1="38.95" x2="37.6" y2="34.54"/><polyline class="cls-1" points="42.46 31.89 39.59 26.15 35.84 26.15 37.12 31.89"/><line class="cls-1" x1="45.99" y1="38.95" x2="43.78" y2="34.54"/><line class="cls-1" x1="37.77" y1="46.24" x2="38.71" y2="42.05"/><polyline class="cls-1" points="42.57 48.89 39.59 54.85 35.84 54.85 37.16 48.89"/><line class="cls-1" x1="45.99" y1="42.05" x2="43.9" y2="46.24"/><path class="cls-1" d="M45.33,34.54H36.5a1.34,1.34,0,0,1-1.33-1.33h0a1.33,1.33,0,0,1,1.33-1.32h8.83Z"/><path class="cls-1" d="M45.33,48.89H36.49a1.32,1.32,0,0,1-1.32-1.32h0a1.32,1.32,0,0,1,1.32-1.32h8.84Z"/><line class="cls-1" x1="45.99" y1="38.95" x2="38.77" y2="39.01"/><path class="cls-1" d="M40.61,80.75a124.33,124.33,0,0,1-21.86-1.94A20.58,20.58,0,0,1,1.91,61.93,144.29,144.29,0,0,1,.25,39.63,125.48,125.48,0,0,1,1.94,19.38,20.77,20.77,0,0,1,18.4,2.44,120.55,120.55,0,0,1,41.86.25,104.58,104.58,0,0,1,62.5,2.38,20.79,20.79,0,0,1,79.16,19.5a120.8,120.8,0,0,1,1.59,19.83A150.31,150.31,0,0,1,79.2,61.78,20.64,20.64,0,0,1,62.15,78.86a124.74,124.74,0,0,1-20.59,1.89Z"/><path class="cls-2" d="M41.86.5A104.94,104.94,0,0,1,62.45,2.62,20.48,20.48,0,0,1,78.91,19.54a120.59,120.59,0,0,1,1.58,19.79A149.13,149.13,0,0,1,79,61.74,20.41,20.41,0,0,1,62.1,78.62,124.26,124.26,0,0,1,41.56,80.5h-1A123.24,123.24,0,0,1,18.8,78.56,20.34,20.34,0,0,1,2.15,61.9,145.93,145.93,0,0,1,.5,39.63,126.3,126.3,0,0,1,2.19,19.42,20.41,20.41,0,0,1,18.45,2.69,119.66,119.66,0,0,1,41.86.5m0-.5A120.2,120.2,0,0,0,18.35,2.2,21,21,0,0,0,1.69,19.34,126,126,0,0,0,0,39.63,143.67,143.67,0,0,0,1.66,62,20.81,20.81,0,0,0,18.71,79.05a124.7,124.7,0,0,0,21.9,2h1a125.12,125.12,0,0,0,20.63-1.89,20.87,20.87,0,0,0,17.25-17.3A149.31,149.31,0,0,0,81,39.33a122.53,122.53,0,0,0-1.58-19.87A21.06,21.06,0,0,0,62.55,2.13,105.14,105.14,0,0,0,41.86,0Z"/><path class="cls-3" d="M45.11,37.19h9.43a.79.79,0,0,1,.51.18l3,2.45a.79.79,0,0,1,.3.62v.81a.8.8,0,0,1-.8.8H29a3.89,3.89,0,0,1-3.48-2.15l-2.77-5.53a.8.8,0,0,1,.71-1.16h1.86a.82.82,0,0,1,.63.31l2.61,3.36a.81.81,0,0,0,.63.31h9.1"/><line class="cls-3" x1="38.71" y1="38.95" x2="37.6" y2="34.54"/><polyline class="cls-3" points="42.46 31.89 39.59 26.15 35.84 26.15 37.12 31.89"/><line class="cls-3" x1="45.99" y1="38.95" x2="43.78" y2="34.54"/><line class="cls-3" x1="37.77" y1="46.24" x2="38.71" y2="42.05"/><polyline class="cls-3" points="42.57 48.89 39.59 54.85 35.84 54.85 37.16 48.89"/><line class="cls-3" x1="45.99" y1="42.05" x2="43.9" y2="46.24"/><path class="cls-3" d="M45.33,34.54H36.5a1.34,1.34,0,0,1-1.33-1.33h0a1.33,1.33,0,0,1,1.33-1.32h8.83Z"/><path class="cls-3" d="M45.33,48.89H36.49a1.32,1.32,0,0,1-1.32-1.32h0a1.32,1.32,0,0,1,1.32-1.32h8.84Z"/><line class="cls-3" x1="45.99" y1="38.95" x2="38.77" y2="39.01"/></g></g></svg>