<svg xmlns="http://www.w3.org/2000/svg" viewBox="0 0 80 80"><defs><style>.cls-1{fill:#3864a9;}.cls-2{fill:none;stroke:#fff;stroke-linejoin:round;}</style></defs><title>Recurso 72</title><g id="Capa_2" data-name="Capa 2"><g id="Capa_1-2" data-name="Capa 1"><path class="cls-1" d="M78.45,61.24A20.41,20.41,0,0,1,61.6,78.12,124.26,124.26,0,0,1,41.06,80,124,124,0,0,1,18.3,78.06,20.34,20.34,0,0,1,1.65,61.4,145.93,145.93,0,0,1,0,39.13,126.3,126.3,0,0,1,1.69,18.92,20.41,20.41,0,0,1,18,2.19,119.66,119.66,0,0,1,41.36,0,104.94,104.94,0,0,1,62,2.12,20.48,20.48,0,0,1,78.41,19,120.7,120.7,0,0,1,80,38.83,149,149,0,0,1,78.45,61.24Z"/><path class="cls-2" d="M44.61,36.69H54a.79.79,0,0,1,.51.18l3,2.45a.79.79,0,0,1,.3.62v.81a.8.8,0,0,1-.8.8H28.47A3.89,3.89,0,0,1,25,39.4l-2.77-5.53a.8.8,0,0,1,.71-1.16h1.86a.82.82,0,0,1,.63.31L28,36.38a.81.81,0,0,0,.63.31h9.1"/><line class="cls-2" x1="38.21" y1="38.45" x2="37.1" y2="34.04"/><polyline class="cls-2" points="41.96 31.39 39.09 25.65 35.34 25.65 36.62 31.39"/><line class="cls-2" x1="45.49" y1="38.45" x2="43.28" y2="34.04"/><line class="cls-2" x1="37.27" y1="45.74" x2="38.21" y2="41.55"/><polyline class="cls-2" points="42.07 48.39 39.09 54.35 35.34 54.35 36.66 48.39"/><line class="cls-2" x1="45.49" y1="41.55" x2="43.4" y2="45.74"/><path class="cls-2" d="M44.83,34H36a1.34,1.34,0,0,1-1.33-1.33h0A1.33,1.33,0,0,1,36,31.39h8.83Z"/><path class="cls-2" d="M36,45.74h8.84a0,0,0,0,1,0,0v2.65a0,0,0,0,1,0,0H36a1.32,1.32,0,0,1-1.32-1.32v0A1.32,1.32,0,0,1,36,45.74Z"/><line class="cls-2" x1="45.49" y1="38.45" x2="38.27" y2="38.51"/></g></g></svg>