<svg xmlns="http://www.w3.org/2000/svg" viewBox="0 0 81 81"><defs><style>.cls-1{fill:#fff;}.cls-2{fill:#3864a9;}.cls-3{fill:none;stroke:#3864a9;stroke-linejoin:round;}</style></defs><title>Recurso 84</title><g id="Capa_2" data-name="Capa 2"><g id="Capa_1-2" data-name="Capa 1"><path class="cls-1" d="M40.61,80.75a124.33,124.33,0,0,1-21.86-1.94A20.58,20.58,0,0,1,1.91,61.93,144.38,144.38,0,0,1,.25,39.63,125.48,125.48,0,0,1,1.94,19.38,20.77,20.77,0,0,1,18.4,2.44,120.55,120.55,0,0,1,41.86.25,104.58,104.58,0,0,1,62.5,2.38,20.79,20.79,0,0,1,79.16,19.5a120.76,120.76,0,0,1,1.58,19.83A150.36,150.36,0,0,1,79.2,61.78,20.64,20.64,0,0,1,62.15,78.86a124.74,124.74,0,0,1-20.59,1.89Z"/><path class="cls-2" d="M41.86.5A104.94,104.94,0,0,1,62.45,2.62,20.48,20.48,0,0,1,78.91,19.54,120.48,120.48,0,0,1,80.5,39.33,149,149,0,0,1,79,61.74,20.41,20.41,0,0,1,62.1,78.62,124.26,124.26,0,0,1,41.56,80.5h-1A123.24,123.24,0,0,1,18.8,78.56,20.34,20.34,0,0,1,2.15,61.9,145.93,145.93,0,0,1,.5,39.63,126.3,126.3,0,0,1,2.19,19.42,20.41,20.41,0,0,1,18.45,2.69,119.66,119.66,0,0,1,41.86.5m0-.5A120.2,120.2,0,0,0,18.35,2.2,21,21,0,0,0,1.69,19.34,126,126,0,0,0,0,39.63,143.67,143.67,0,0,0,1.66,62,20.81,20.81,0,0,0,18.71,79.05a124.7,124.7,0,0,0,21.9,2h1a125.12,125.12,0,0,0,20.63-1.89,20.87,20.87,0,0,0,17.25-17.3A149.26,149.26,0,0,0,81,39.33a122.37,122.37,0,0,0-1.59-19.87A21.06,21.06,0,0,0,62.55,2.13,105.14,105.14,0,0,0,41.86,0Z"/><path class="cls-3" d="M35.1,46.82h0a1.41,1.41,0,0,1,1.41,1.41v4.91a0,0,0,0,1,0,0H33.7a0,0,0,0,1,0,0V48.23A1.41,1.41,0,0,1,35.1,46.82Z"/><path class="cls-3" d="M46.38,46.82h0a1.41,1.41,0,0,1,1.41,1.41v4.91a0,0,0,0,1,0,0H45a0,0,0,0,1,0,0V48.23A1.41,1.41,0,0,1,46.38,46.82Z"/><rect class="cls-3" x="31.17" y="31.31" width="18.96" height="21.83"/><rect class="cls-3" x="34.26" y="27.86" width="12.77" height="3.45"/><path class="cls-3" d="M40.66,46.82a2.25,2.25,0,0,0-2.22,2.27v4h4.45v-4A2.25,2.25,0,0,0,40.66,46.82Z"/><line class="cls-3" x1="42.65" y1="38.31" x2="42.65" y2="39.76"/><line class="cls-3" x1="38.84" y1="39.76" x2="38.84" y2="38.31"/><line class="cls-3" x1="42.65" y1="34.18" x2="42.65" y2="35.52"/><line class="cls-3" x1="38.84" y1="35.52" x2="38.84" y2="34.18"/><line class="cls-3" x1="46.45" y1="39.76" x2="46.45" y2="38.31"/><line class="cls-3" x1="46.45" y1="35.52" x2="46.45" y2="34.18"/><line class="cls-3" x1="35.04" y1="38.31" x2="35.04" y2="39.76"/><line class="cls-3" x1="42.65" y1="42.63" x2="42.65" y2="44.08"/><line class="cls-3" x1="38.84" y1="44.08" x2="38.84" y2="42.63"/><line class="cls-3" x1="46.45" y1="44.08" x2="46.45" y2="42.63"/><line class="cls-3" x1="35.04" y1="42.63" x2="35.04" y2="44.08"/><line class="cls-3" x1="35.04" y1="34.18" x2="35.04" y2="35.52"/><line class="cls-3" x1="36.97" y1="29.58" x2="44.32" y2="29.58"/></g></g></svg>