<svg xmlns="http://www.w3.org/2000/svg" viewBox="0 0 80 80"><defs><style>.cls-1{fill:#3864a9;}.cls-2{fill:none;stroke:#fafafa;stroke-miterlimit:10;}</style></defs><title>Recurso 77</title><g id="Capa_2" data-name="Capa 2"><g id="Capa_1-2" data-name="Capa 1"><path class="cls-1" d="M78.45,61.24A20.41,20.41,0,0,1,61.6,78.12,124.26,124.26,0,0,1,41.06,80,124,124,0,0,1,18.3,78.06,20.34,20.34,0,0,1,1.65,61.4,145.93,145.93,0,0,1,0,39.13,126.3,126.3,0,0,1,1.69,18.92,20.41,20.41,0,0,1,18,2.19,119.66,119.66,0,0,1,41.36,0,104.94,104.94,0,0,1,62,2.12,20.48,20.48,0,0,1,78.41,19,120.7,120.7,0,0,1,80,38.83,149,149,0,0,1,78.45,61.24Z"/><path class="cls-2" d="M34.6,46.32h0A1.41,1.41,0,0,1,36,47.73v4.91a0,0,0,0,1,0,0H33.2a0,0,0,0,1,0,0V47.73A1.41,1.41,0,0,1,34.6,46.32Z"/><path class="cls-2" d="M45.88,46.32h0a1.41,1.41,0,0,1,1.41,1.41v4.91a0,0,0,0,1,0,0H44.47a0,0,0,0,1,0,0V47.73A1.41,1.41,0,0,1,45.88,46.32Z"/><rect class="cls-2" x="30.67" y="30.81" width="18.96" height="21.83"/><rect class="cls-2" x="33.76" y="27.36" width="12.77" height="3.45"/><path class="cls-2" d="M40.16,46.32a2.25,2.25,0,0,0-2.22,2.27v4h4.45v-4A2.25,2.25,0,0,0,40.16,46.32Z"/><line class="cls-2" x1="42.15" y1="37.81" x2="42.15" y2="39.26"/><line class="cls-2" x1="38.34" y1="39.26" x2="38.34" y2="37.81"/><line class="cls-2" x1="42.15" y1="33.68" x2="42.15" y2="35.02"/><line class="cls-2" x1="38.34" y1="35.02" x2="38.34" y2="33.68"/><line class="cls-2" x1="45.95" y1="39.26" x2="45.95" y2="37.81"/><line class="cls-2" x1="45.95" y1="35.02" x2="45.95" y2="33.68"/><line class="cls-2" x1="34.54" y1="37.81" x2="34.54" y2="39.26"/><line class="cls-2" x1="42.15" y1="42.13" x2="42.15" y2="43.58"/><line class="cls-2" x1="38.34" y1="43.58" x2="38.34" y2="42.13"/><line class="cls-2" x1="45.95" y1="43.58" x2="45.95" y2="42.13"/><line class="cls-2" x1="34.54" y1="42.13" x2="34.54" y2="43.58"/><line class="cls-2" x1="34.54" y1="33.68" x2="34.54" y2="35.02"/><line class="cls-2" x1="36.47" y1="29.08" x2="43.82" y2="29.08"/></g></g></svg>