<svg xmlns="http://www.w3.org/2000/svg" viewBox="0 0 19.96 26.28"><defs><style>.cls-1{fill:none;stroke:#3864a9;stroke-linejoin:round;}</style></defs><title>Recurso 300</title><g id="Capa_2" data-name="Capa 2"><g id="PC"><path class="cls-1" d="M4.44,19.46h0a1.41,1.41,0,0,1,1.41,1.41v4.91a0,0,0,0,1,0,0H3a0,0,0,0,1,0,0V20.87A1.41,1.41,0,0,1,4.44,19.46Z"/><path class="cls-1" d="M15.71,19.46h0a1.41,1.41,0,0,1,1.41,1.41v4.91a0,0,0,0,1,0,0H14.3a0,0,0,0,1,0,0V20.87A1.41,1.41,0,0,1,15.71,19.46Z"/><rect class="cls-1" x="0.5" y="3.95" width="18.96" height="21.83"/><rect class="cls-1" x="3.6" y="0.5" width="12.77" height="3.45"/><path class="cls-1" d="M10,19.46a2.25,2.25,0,0,0-2.23,2.27v4.05h4.45V21.73A2.24,2.24,0,0,0,10,19.46Z"/><line class="cls-1" x1="11.98" y1="10.95" x2="11.98" y2="12.4"/><line class="cls-1" x1="8.17" y1="12.4" x2="8.17" y2="10.95"/><line class="cls-1" x1="11.98" y1="6.82" x2="11.98" y2="8.15"/><line class="cls-1" x1="8.17" y1="8.15" x2="8.17" y2="6.82"/><line class="cls-1" x1="15.78" y1="12.4" x2="15.78" y2="10.95"/><line class="cls-1" x1="15.78" y1="8.15" x2="15.78" y2="6.82"/><line class="cls-1" x1="4.37" y1="10.95" x2="4.37" y2="12.4"/><line class="cls-1" x1="11.98" y1="15.27" x2="11.98" y2="16.72"/><line class="cls-1" x1="8.17" y1="16.72" x2="8.17" y2="15.27"/><line class="cls-1" x1="15.78" y1="16.72" x2="15.78" y2="15.27"/><line class="cls-1" x1="4.37" y1="15.27" x2="4.37" y2="16.72"/><line class="cls-1" x1="4.37" y1="6.82" x2="4.37" y2="8.15"/><line class="cls-1" x1="6.3" y1="2.22" x2="13.65" y2="2.22"/></g></g></svg>