<svg xmlns="http://www.w3.org/2000/svg" viewBox="0 0 80 80"><defs><style>.cls-1{fill:#3864a9;}.cls-2{fill:none;stroke:#fff;stroke-linejoin:round;}</style></defs><title>Recurso 71</title><g id="Capa_2" data-name="Capa 2"><g id="Capa_1-2" data-name="Capa 1"><path class="cls-1" d="M78.45,61.24A20.41,20.41,0,0,1,61.6,78.12,124.26,124.26,0,0,1,41.06,80,124,124,0,0,1,18.3,78.06,20.34,20.34,0,0,1,1.65,61.4,145.93,145.93,0,0,1,0,39.13,126.3,126.3,0,0,1,1.69,18.92,20.41,20.41,0,0,1,18,2.19,119.66,119.66,0,0,1,41.36,0,104.94,104.94,0,0,1,62,2.12,20.48,20.48,0,0,1,78.41,19,120.7,120.7,0,0,1,80,38.83,149,149,0,0,1,78.45,61.24Z"/><path class="cls-2" d="M54,38.68,41,29.82a1.82,1.82,0,0,0-2.07,0L26,38.68a.6.6,0,0,0,.34,1.1h3.87v10a.76.76,0,0,0,.76.76h5.44a.76.76,0,0,0,.76-.76V44.4a.76.76,0,0,1,.76-.76h4.11a.76.76,0,0,1,.76.76v5.34a.76.76,0,0,0,.76.76H49a.76.76,0,0,0,.76-.76v-10h3.86A.6.6,0,0,0,54,38.68Z"/></g></g></svg>