<svg xmlns="http://www.w3.org/2000/svg" viewBox="0 0 29.49 22"><defs><style>.cls-1{fill:none;stroke:#3864a9;stroke-linejoin:round;}</style></defs><title>Recurso 294</title><g id="Capa_2" data-name="Capa 2"><g id="PC"><path class="cls-1" d="M28.73,9.69,15.78.82a1.82,1.82,0,0,0-2.07,0L.76,9.69a.6.6,0,0,0,.34,1.09H5v10a.76.76,0,0,0,.76.76h5.44a.76.76,0,0,0,.76-.76V15.4a.76.76,0,0,1,.76-.76H16.8a.76.76,0,0,1,.76.76v5.34a.76.76,0,0,0,.76.76h5.44a.76.76,0,0,0,.76-.76v-10h3.87A.6.6,0,0,0,28.73,9.69Z"/></g></g></svg>