<svg xmlns="http://www.w3.org/2000/svg" viewBox="0 0 24.05 24.05"><defs><style>.cls-1{fill:#5a5f7a;}</style></defs><title>Recurso 42</title><g id="Capa_2" data-name="Capa 2"><g id="Capa_1-2" data-name="Capa 1"><path class="cls-1" d="M12,8.42A3.61,3.61,0,1,0,15.63,12,3.6,3.6,0,0,0,12,8.42ZM12,6a6,6,0,1,1-6,6A6,6,0,0,1,12,6Zm6.31-1.8a1.51,1.51,0,1,1-1.5,1.5A1.5,1.5,0,0,1,18.34,4.21ZM6.73,2.41A4.31,4.31,0,0,0,2.41,6.73V17.32a4.32,4.32,0,0,0,4.32,4.33H17.32a4.33,4.33,0,0,0,4.33-4.33V6.73a4.32,4.32,0,0,0-4.33-4.32ZM7,0h10.1a7,7,0,0,1,7,7v10.1a7,7,0,0,1-7,7H7a7,7,0,0,1-7-7V7A7,7,0,0,1,7,0Z"/></g></g></svg>