<?xml version="1.0" encoding="utf-8"?>
<!-- Generator: Adobe Illustrator 15.1.0, SVG Export Plug-In  -->
<!DOCTYPE svg PUBLIC "-//W3C//DTD SVG 1.1//EN" "http://www.w3.org/Graphics/SVG/1.1/DTD/svg11.dtd" [
	<!ENTITY ns_flows "http://ns.adobe.com/Flows/1.0/">
]>
<svg version="1.1"
	 xmlns="http://www.w3.org/2000/svg" xmlns:xlink="http://www.w3.org/1999/xlink" xmlns:a="http://ns.adobe.com/AdobeSVGViewerExtensions/3.0/"
	 x="0px" y="0px" width="200px" height="62px" viewBox="-28 -3.132 200 62" enable-background="new -28 -3.132 200 62"
	 xml:space="preserve">
<defs>
</defs>
<path fill="#48609B" d="M120.296,49.713c-1.912,0.352-4.59,1.059-6.267,1.235c-1.679,0.177-4.651,0.324-5.563,0.442
	c-0.913,0.117-1.825,0.322-2.53,0.352c-0.708,0.03-1.912-0.264-3.063-0.323c-1.146-0.059-5.208-0.207-5.354-0.089
	c-0.147,0.119,0.498,0.295,0.558,0.501c0.059,0.205-0.292,0.294-0.441,0.176c-0.148-0.116,0.193-0.265-0.14-0.294
	c-0.333-0.029-0.567,0.089-0.772-0.059c-0.206-0.146,0-0.445-0.294-0.576c-0.294-0.13-4.592-0.424-9.299-1.337
	c-4.711-0.912-11.244-2.648-14.07-3.031c-2.825-0.382-12.861-2.03-17.247-2.532c-4.383-0.5-17.012-0.265-24.604,0.53
	c-7.593,0.795-12.862,1.707-17.011,2.737c-4.15,1.031-10.242,3.62-11.803,5.209c-1.56,1.59-1.5,3.943,3.592,3.943
	c2.561,0.003,5.738-1.794,6.828-1.913c1.088-0.115,1.413,0.061,1.764-0.088c0.355-0.146,0.236-1.06,1.238-1.354
	c1-0.294,2.766-0.823,3.59-0.823s4.562,0.088,7.299,0.06c2.736-0.03,5.18-0.499,6.974-0.882c1.795-0.385,5.798-1.179,9.035-1.149
	c3.237,0.03,10.214,0,14.216,0.354c4.001,0.352,12.979,1.294,17.041,1.883c4.062,0.589,10.242,2.061,12.979,2.412
	c2.738,0.353,6.533-0.175,8.801-0.027c2.263,0.146,4.384,0.47,4.737,0.353c0.354-0.119,0.618-0.707,1.562-0.884
	c0.939-0.177,2.058-0.373,2.5-0.142c0.441,0.23,1.883,0.288,2.295,0.142c0.412-0.146,0.795-0.383,1.089-0.41
	c0.294-0.031,0.883-0.354,1.118-0.236c0.235,0.118,0.117,0.294,0.589,0.353c0.471,0.06,1.472-0.618,2.118-0.883
	c0.649-0.264,1.65-0.501,2.679-0.384c1.029,0.12,1.595-0.007,2.12-0.087c1.523-0.232,2.766-1.294,4.179-1.648
	c1.412-0.354,4.238-1.301,4.267-1.753C125.036,49.035,122.21,49.36,120.296,49.713 M120.202,50.581
	c-0.148,0-0.269-0.069-0.269-0.154c0-0.088,0.12-0.158,0.269-0.158c0.151,0,0.271,0.07,0.271,0.158
	C120.474,50.511,120.353,50.581,120.202,50.581 M121.752,50.268c-0.375,0-0.681-0.069-0.681-0.155c0-0.087,0.306-0.155,0.681-0.155
	c0.375,0,0.68,0.068,0.68,0.155C122.432,50.199,122.127,50.268,121.752,50.268 M123.572,49.899c-0.104,0-0.187-0.063-0.187-0.142
	c0-0.076,0.083-0.142,0.187-0.142c0.101,0,0.184,0.065,0.184,0.142C123.756,49.835,123.673,49.899,123.572,49.899"/>
<path fill="#C08F49" d="M41.685,23.975c-0.544-0.544-0.334-2.14,0.355-2.897c0.595-0.659,2.03-1.708,2.809-1.841
	c0.779-0.133,1.379-0.001,1.532,0.471c0.25,0.78-0.648,3.208-1.633,4.105C43.589,24.869,42.244,24.532,41.685,23.975"/>
<path fill="#C08F49" d="M70.686,9.225c-0.492-0.159-5.022,1.883-6.317,4.041c-1.295,2.159-0.551,5.926,0.43,7.377
	c0.981,1.453,1.217,1.301,1.531,1.2c0.315-0.101,0.039-0.766-0.077-1.161c-0.119-0.391-0.667-0.667-0.589-1.058
	c0.078-0.393,0.393,0.118,0.589-0.197c0.195-0.314-0.748-1.413-0.551-1.649c0.197-0.234,0.943,0.316,1.139,0.119
	c0.196-0.198-0.627-1.649-0.274-1.925c0.354-0.273,0.329,0.08,0.616-0.037c0.288-0.118-0.028-1.766,0.208-2.082
	c0.235-0.313,0.43,0,0.786-0.117c0.352-0.118,0.077-0.785,0.273-0.902c0.197-0.119,0.549-0.04,0.786-0.158
	c0.234-0.118-0.119-0.825,0-1.021c0.116-0.196,0.116-0.549,0.234-0.588c0.117-0.04,0.314,0.118,0.47,0.039
	c0.157-0.079,0-0.629,0.157-0.668c0.156-0.039,0.276,0.08,0.433,0.039c0.157-0.039,0.04-0.313,0.157-0.509
	C70.804,9.775,71.156,9.42,70.686,9.225"/>
<path fill="#C08F49" d="M60.404,9.775c-0.333,0,0.354-2.061,2.089-3.209c1.738-1.148,3.268-1,4.68-0.383
	c1.413,0.621,3.707,2.297,3.533,2.533c-0.178,0.235-0.767-0.03-1.001-0.03c-0.235,0-0.56,0.059-0.648,0
	c-0.087-0.059,0.088-0.236-0.087-0.236c-0.178,0-0.53,0.266-0.794,0.294c-0.267,0.029-0.383-0.324-0.562-0.382
	c-0.176-0.059-0.618,0.088-0.793,0.059c-0.176-0.03-0.383-0.53-0.648-0.53c-0.264,0-0.766,0.62-0.912,0.62
	c-0.148,0-0.47-0.589-0.619-0.56c-0.146,0.029-0.912,0.794-1.176,0.823C63.2,8.803,63.495,7.625,63.2,7.743
	c-0.294,0.118-0.529,0.795-0.793,0.972c-0.265,0.177-0.62-0.06-0.854,0.029c-0.235,0.088-0.176,0.559-0.265,0.649
	c-0.089,0.088-0.325-0.061-0.471,0.028C60.668,9.508,60.541,9.775,60.404,9.775"/>
<path fill="#C08F49" d="M64.642,0.121c-0.057-0.434,1.824,0.294,3.209,2.207c1.384,1.914,2.637,4.355,2.864,4.385
	c0.225,0.03,0.137-3.179,1.226-4.503c1.089-1.323,3.238-2.06,4.473-2.03c1.237,0.028,2.12,0.589,2.12,0.912
	c0,0.323-1.442,0.118-1.678,0.207c-0.234,0.088-0.118,0.413-0.293,0.647c-0.179,0.234-0.913-0.118-1.178,0
	c-0.266,0.119,0.674,0.618,0.324,0.883c-0.354,0.264-1.147,0.059-1.326,0.177c-0.176,0.118,0,0.795-0.117,0.883
	c-0.116,0.086-0.5-0.03-0.648,0.086c-0.147,0.118,0.149,0.355,0.061,0.5c-0.089,0.148-0.383-0.059-0.473,0.06
	c-0.087,0.117,0.149,0.618,0.06,0.708c-0.088,0.086-0.295,0.027-0.412,0.146c-0.119,0.118,0.06,0.707-0.059,0.824
	c-0.118,0.118-0.324-0.059-0.47,0.03c-0.148,0.087-0.09,0.265-0.209,0.47c-0.115,0.207-0.086,0.501-0.234,0.56
	c-0.146,0.059-0.235-0.118-0.294,0c-0.06,0.117,0.118,0.382,0,0.706c-0.117,0.324-0.386,0.441-0.663,0.236
	c-0.277-0.208-0.985-0.825-1.249-1.237c-0.265-0.412-0.619-1.412-1.236-2.294c-0.62-0.883-1.141-1.575-1.8-2.297
	C65.772,1.436,64.721,0.716,64.642,0.121"/>
<path fill="#C08F49" d="M72.676,8.538c0.018-0.302,2.414-2.214,4.181-2.828c1.768-0.615,3.346-1.085,5.416,0.179
	c3.03,1.854,3.871,4.813,3.472,5.002c-0.617,0.295-1.324-1.265-1.675-1.383c-0.354-0.116-0.266,0.325-0.559,0.267
	c-0.298-0.06-0.737-1.326-1.031-1.295c-0.296,0.03-0.206,0.941-0.412,1.001c-0.208,0.057-1.207-1.556-1.53-1.471
	c-0.324,0.088-0.385,0.587-0.62,0.676c-0.234,0.087-0.943-1.032-1.383-0.942c-0.439,0.087-0.558,0.677-0.823,0.766
	c-0.264,0.087-0.737-0.645-0.942-0.5c-0.205,0.146,0.089,0.529-0.235,0.705c-0.325,0.177-1.118-0.443-1.531-0.397
	c-0.412,0.044-0.943,0.31-1.267,0.427C73.413,8.862,72.664,8.772,72.676,8.538"/>
<path fill="#48609B" d="M142.399,38.087c-0.53,0.028-0.5,0.735-1.178,1.118c-0.675,0.383-1.412-0.265-1.795-1.266
	c-0.381-1,0.942-2.795-0.324-3.414c-1.264-0.617-3.061,1.472-4.149,2.385c-1.088,0.912-3.265,2.883-3.443,2.618
	c-0.177-0.265,1.353-1.972,2.884-3.619s4.973-4.444,5.445-5.298c0.473-0.854,0.265-1.742-0.764-1.742
	c-1.86,0-3.916,1.889-5.946,3.684c-2.029,1.796-5.619,5.858-6.269,5.415c-0.306-0.206,1.325-1.971,0.854-3.354
	c-0.23-0.679-1.325-0.853-2.738-0.412c-1.413,0.441-2.912,3.503-3.001,4.77c-0.089,1.265,0.854,0.911,0.793,1.559
	c-0.058,0.646-1.412,1.59-2.5,0.884c-1.091-0.707-1.06-3.975-0.738-5.211c0.139-0.52,1.562-2.384,2.739-4.326
	c1.176-1.941,3.766-6.887,4.414-8.887c0.648-2.002,2.267-6.093,0.354-7.035c-1.914-0.941-4.533,1.973-5.71,4.563
	c-1.177,2.589-3.208,8.623-3.562,10.536c-0.352,1.913-0.411,4.15-0.411,4.15s-0.708,1.44-1.56,2.354
	c-0.854,0.912-1.766,0.794-2.118,0.323c-0.354-0.472-0.206-2.59-0.324-3.443c-0.117-0.854-0.825-1.059-1.648-0.823
	c-0.825,0.235-1.68,1.883-2.739,3.412c-1.058,1.532-2.795,3.533-3.442,3.21c-0.646-0.323-0.205-2.207,0.059-4.033
	c0.264-1.823,1.383-3.914,1.471-4.885c0.089-0.972-0.354-1.267-1.617-0.942c-1.267,0.324-5.358,6.505-7.271,8.124
	c-1.913,1.618-5.296,4.502-9.005,3.09c-3.708-1.413-4.21-5.415-4.417-8.358c-0.203-2.942,1.649-8.269,3.915-10.891
	c2.266-2.618,4.534-2.588,5.65-2.588c1.121,0,2.09,0.471,2.354,1.441c0.266,0.972-1.204,1.973-1.942,4.475
	c-0.734,2.501-1.236,6.297-0.832,6.812c0.416,0.528,1.98,0.496,3.289-1.092c1.222-1.482,2.489-7.485,2.135-11.841
	c-0.26-3.233-3.772-3.619-5.459-3.375c-1.957,0.283-3.988,1.195-7.091,4.274c-3.17,3.146-4.609,6.458-5.284,9.665
	c-0.678,3.21-0.854,9.714,2.001,11.979c2.854,2.267,5.707,3.002,8.33,2.295c2.617-0.706,4.09-1.794,6.474-3.384
	c2.382-1.589,3.354-3.354,3.619-3.209c0.265,0.148-0.03,1.385,0.06,2.208c0.088,0.824,0.353,2.797,1.234,3.238
	c1.557,0.777,2.973-0.236,4.005-1.178c1.029-0.942,2.882-3.531,3.147-3.414c0.267,0.117,0.178,1.207,0.854,1.942
	c0.677,0.734,1.796,1.031,3.208,0.472c1.415-0.56,2.501-1.472,2.501-1.472s0.149,1.501,0.208,2.325c0.057,0.823,0,2.442,1.561,3.091
	c1.558,0.646,2.558,0,3.824-1.031c1.265-1.029,1.882-2.12,2.091-2.267c0.206-0.146,0.794,0.207,1.559-0.177
	c0.765-0.381,1.647-1.354,1.766-1.235c0.119,0.116-0.53,0.941-0.678,1.53c-0.148,0.588-0.135,1.695,0.619,2.178
	c1.608,1.032,3.15-0.646,4.943-2.089c1.796-1.443,3.093-3.237,3.475-3.003c0.383,0.235,0.06,1.619,0.559,2.443
	c0.499,0.823,1.413,1.531,2.766,1.383c1.354-0.146,3.59-2.442,3.649-2.943C143.313,39.294,142.928,38.058,142.399,38.087
	 M121.886,26.461c0.708-1.53,2.207-4.532,2.412-4.503c0.208,0.03-0.823,3.886-1.499,5.269c-0.678,1.383-1.884,3.709-2.181,3.709
	C120.382,30.936,121.179,27.992,121.886,26.461"/>
<path fill="#48609B" d="M138.927,44.356c-0.234-0.315,1.354-1.029,1.855-1.208c0.5-0.176,1.206,0.09,1.411,0
	c0.205-0.087,0.205-0.47,0.559-0.529c0.354-0.058,1.208,0.148,1.178,0.267c-0.03,0.116-0.765,0.146-0.942,0.263
	c-0.176,0.12-0.677,0.413-1.059,0.502c-0.384,0.088-1.089,0.177-1.354,0.324c-0.264,0.146-0.707,0.558-0.973,0.587
	C139.339,44.591,139.032,44.498,138.927,44.356"/>
<path fill="#48609B" d="M131.423,46.268c-0.202-0.126,0.47-0.146,0.646-0.292c0.178-0.148,0.529-0.267,0.588-0.178
	c0.061,0.088-0.206,0.413-0.354,0.47C132.158,46.329,131.607,46.388,131.423,46.268"/>
<path fill="#48609B" d="M129.126,47.004c-0.155-0.214,0.441-0.383,0.59-0.323c0.145,0.059,0.232,0.206,0,0.323
	C129.479,47.123,129.211,47.125,129.126,47.004"/>
<path fill="#48609B" d="M130.067,49.476c-0.184-0.039,1.148-0.941,1.958-1.47c0.811-0.531,1.722-0.707,2.223-0.62
	c0.5,0.089,0.588,0.147,0.528,0.267c-0.058,0.117-1.117,0.176-1.411,0.354c-0.298,0.176-1.634,0.823-1.981,1.028
	C131.039,49.241,130.407,49.552,130.067,49.476"/>
<path fill="#48609B" d="M125.625,50.565c0.654-0.071,2.56-1.294,3.238-1.354c0.675-0.058,0.763,0.412,0.618,0.678
	c-0.148,0.265-1.561,0.323-2.209,0.676c-0.648,0.353-1.292,0.384-1.646,0.562c-0.354,0.176-1.414,0.352-2.062,0.617
	c-0.648,0.264-2.061,0.764-2.411,0.618c-0.354-0.147,1.412-1.392,2.176-1.564C124.092,50.625,125.051,50.628,125.625,50.565"/>
<path fill="#48609B" d="M101.668,55.598c-0.235-0.126,0.382-0.528,1.06-0.588c0.674-0.059,3.647-0.295,3.647,0
	c0,0.293-1.944,0.12-2.355,0.223c-0.411,0.101-0.174,0.189-0.439,0.365C103.315,55.775,101.9,55.724,101.668,55.598"/>
<path fill="#C08F49" d="M79.004,22.901c-0.117-0.883-0.589-1.412-0.646-1.942c-0.059-0.531,0-1.473-0.294-2.472
	c-0.295-1.001-0.767-1.766-1.296-2.355c-0.529-0.589-0.883-1.117-1-1.412c-0.118-0.295,0.292-0.589,0-1.177
	c-0.294-0.59-1.118-1.119-1.766-2.002c-0.648-0.883-1.767-2.708-2.237-2.472c-0.469,0.234-0.118,1.119,0.589,2.176
	c0.706,1.061,3.943,7.536,4.354,9.125c0.414,1.588,0.588,4.296,0.588,6.416c0,2.118-0.47,3.59-0.588,4.12
	c-0.12,0.528-0.12,1.884-0.294,2.354c-0.175,0.472-0.764,1.473-1.47,2.827c-0.707,1.353-2.354,3.413-2.649,3.295
	c-0.294-0.117,3.236-7.122,2.12-8.063c-1.12-0.942-3.768,2.002-5.299,3.648c-1.532,1.648-3.59,3.533-4.12,3.063
	c-0.53-0.472,1.706-5.358,0.411-5.946c-1.295-0.589-2.723,1.403-3.355,2.18c-1.341,1.647-3.177,3.236-3.825,3.002
	c-0.298-0.109,0.353-1.591,0.647-2.768s0.235-3.355-1.413-4.002c-1.649-0.648-2.885,0.235-3.061,0.058
	c-0.177-0.177,0.293-1.295-0.648-1.353c-0.942-0.06-3.473,2.647-5.534,4.767c-2.06,2.12-5.531,5.239-5.943,5.063
	c-0.414-0.177,0.293-2.118,0.352-2.648c0.06-0.53,0.472-2.179,0.647-3.121c0.176-0.941,0.648-4.59-0.41-5.062
	c-1.06-0.47-2.944,1.649-4.474,3.416c-1.531,1.766-5.122,5.709-6.24,5.591c-1.12-0.117-1.001-3.884-3.119-4.414
	c-2.121-0.53-6.535,4.944-6.712,4.709c-0.177-0.234,1.591-4.886,1.826-6.064c0.235-1.176-0.824-2.472-2.355-1.882
	c-1.53,0.589-6.181,6.593-7.476,7.712c-1.295,1.116-4.179,1.588-6.416,2.117c-2.235,0.531-4.825,0.473-5.062,0
	c-0.236-0.47,0.294-2.59,0.352-3.295c0.06-0.707,0.178-2.886,0.648-3.592c0.472-0.706,1.942-1.412,3.12-1.784
	c1.177-0.372,3.945-0.452,4.826-0.452c0.884,0,1.06,0.705,1.884,0.354c0.825-0.354,0.589-2.767-0.177-3.296
	c-0.764-0.53-5.062-0.177-6.122,0.117c-1.059,0.295-2.235,1.648-2.649,1.413c-0.41-0.235,0.884-4.531,1.237-6.004
	c0.354-1.472,1.06-3.119,1.413-3.295c0.354-0.177,0.943,0,1.415-0.177c0.469-0.177,0.704-0.413,1.411-0.529
	c0.708-0.119,0.883-0.119,2.06-0.177c1.178-0.06,1.531,0.942,2.297,1c0.765,0.06,1.178-0.471,1.412-1.412
	c0.236-0.942,0.178-2.12-0.941-2.709c-1.118-0.588-5.238-0.411-6.417,0c-1.177,0.413-4.644,3.14-5.416,4.652
	c-0.522,1.023-1.117,3.002-1.47,4.355c-0.354,1.353-0.766,3.885-0.707,5.063c0.059,1.176-0.354,1.766-0.648,3.767
	C0.07,35.379-0.105,41.089,0.07,41.5c0.176,0.413,0.822-0.059,1.119,0.177c0.293,0.236-0.296,0.766,0,1.119
	c0.293,0.352,2.236,0.411,4.767,0.06c2.531-0.354,8.065-2.827,8.888-3.356c0.825-0.528,1.59-2.235,1.825-2.413
	c0.236-0.176,0.883-0.412,1.295-0.825c0.412-0.411,1.413-1.353,1.707-1.058c0.294,0.293-0.589,2.472-1.06,3.708
	c-0.47,1.235-0.765,3.708-0.589,4.119c0.178,0.412,1.178,0.354,1.708,0c0.53-0.353,2.707-2.647,3.591-3.649
	c0.882-1.001,2.942-2.825,3.648-2.707c0.707,0.117,1.825,2.767,2.413,3.296c0.588,0.53,1.354,0.942,2.356,0.53
	c1-0.412,5.179-4.65,6.121-5.534c0.94-0.882,1.647-1.117,1.884-0.765c0.235,0.353-0.236,2.59-0.354,3.708
	c-0.116,1.119-0.353,3.122-0.766,4.533c-0.412,1.414-2.825,4.001-3.65,5.945c-0.823,1.941-1.353,5.298-1.117,5.792
	c0.235,0.494,1.883,0.035,2.413-0.317c0.53-0.354,2.885-5.004,3.296-6.24c0.413-1.235,1.531-4.297,1.943-5.003
	c0.412-0.706,2.883-2.473,3.944-3.473c1.058-1,2.354-2.061,2.471-1.883c0.119,0.175-0.176,0.883-0.176,1.411
	c0,0.53-0.411,1.884,0.766,3.062c1.178,1.178,3.297,0.647,4.768,0c1.472-0.647,2.12-1.767,2.414-1.708
	c0.293,0.06,0,0.648,0.647,0.707c0.647,0.059,1.708-0.353,2.531-1.118s2.473-2.119,2.707-1.825c0.236,0.295,0.06,0.824,0,1.707
	c-0.059,0.884-0.352,2.355,1.295,2.474c1.649,0.116,2.943-1.59,3.945-2.532c0.998-0.941,2.589-2.826,3.06-2.649
	c0.47,0.178,0.353,0.942-0.646,3.944c-1.002,3.003-3.298,4.767-5.24,7.475c-1.943,2.708-4.061,5.356-3.354,5.77
	c1.508,0.881,3.987-1.376,4.945-2.354c1.164-1.191,4.12-6.3,5.295-7.887c1.179-1.59,2.12-1.473,4.475-3.981
	c2.355-2.51,3.12-5.438,3.649-7.675C79.535,29.846,79.123,23.783,79.004,22.901 M54.958,37.858
	c-1.352,1.679-2.936,2.314-3.616,1.734c-0.515-0.438-0.598-1.307-0.023-2.891c0.309-0.854,1.246-1.087,1.597-1.439
	c0.729-0.73,1.282-1.652,1.733-1.664c0.67-0.019,1.477,0.549,1.477,1.304C56.126,35.658,55.788,36.827,54.958,37.858"/>
</svg>
