<svg xmlns="http://www.w3.org/2000/svg" viewBox="0 0 120.3 47.78"><defs><style>.cls-1{fill:#5a5f7a;}</style></defs><title>Recurso 39</title><g id="Capa_2" data-name="Capa 2"><g id="Capa_1-2" data-name="Capa 1"><path class="cls-1" d="M112.64,39.42c-.3.09-.61.16-.91.27s-.78.33-1.17.5c-1.13.51-2.25,1.05-3.4,1.52-.41.16-.84.29-1.25.43l-1.28.41c-1,.33-2.08.67-3.14.93a1.14,1.14,0,0,1-.37.05s-.06,0-.07,0,0,0,0-.08a2,2,0,0,1,.32-.26,15.83,15.83,0,0,1,2-1,.83.83,0,0,1,.54,0c.21,0,.41.08.62.1a.74.74,0,0,0,.36-.06c.18-.06.37-.1.54-.17a9,9,0,0,0,.85-.36L107.5,41a.32.32,0,0,1,.41.12c.13.15.14.15.32.08a7.3,7.3,0,0,0,1.38-.8,6,6,0,0,1,1-.62,3.19,3.19,0,0,1,.73-.16l1.16-.19Z"/><path class="cls-1" d="M120.3,35.6a2.38,2.38,0,0,1-.51.29c-.46.13-.87.37-1.32.5a9.47,9.47,0,0,1-1.4.32l-.32,0s.1,0,.09.09a.16.16,0,0,1-.08.1,1.82,1.82,0,0,1-.27.15s0,0-.07,0l-.5-.12.33-.17a6.79,6.79,0,0,1,1.29-.58,2.94,2.94,0,0,1,1.06-.16.25.25,0,0,0,.16-.06l.35-.28a.35.35,0,0,1,.48,0s.07.12.12.12.11,0,.16-.07l.42-.21Z"/><path class="cls-1" d="M110.7,38.18a.62.62,0,0,1-.65.33c-.16,0-.32,0-.48,0Z"/><path class="cls-1" d="M108.07,38.93v0s-.11.06-.08.13.09.08.16.08a1.66,1.66,0,0,1,.37.09,4.33,4.33,0,0,0-.5-.08,1.52,1.52,0,0,0-.67.06,3.8,3.8,0,0,1-.86.24,3,3,0,0,1,.56-.22l.38-.07a3.28,3.28,0,0,0,.52-.2l.13,0Z"/><path class="cls-1" d="M108.07,38.93a.59.59,0,0,1,.35-.14,1.83,1.83,0,0,1-.35.14Z"/><path class="cls-1" d="M104,41.17a13.36,13.36,0,0,0-1.41-.1,2.2,2.2,0,0,0-.44,0l-1.26.29c-1.25.28-2.5.55-3.76.77q-1.18.23-2.37.39a.84.84,0,0,0-.56.2.46.46,0,0,1-.49.1,1.36,1.36,0,0,0-.57-.06c-.47,0-.93.12-1.41.16l-1.11.11-1.37.14c-.45.05-.88.2-1.32.23a1.27,1.27,0,0,1-.67-.07.43.43,0,0,0-.27,0l-.32,0-.74,0H84.51c-.84,0-1.68,0-2.51-.08-.55,0-1.11-.05-1.66-.11-.81-.09-1.63-.19-2.44-.32-1-.15-1.91-.33-2.86-.51s-1.86-.36-2.79-.55c-1.65-.35-3.28-.73-4.92-1.12L64,39.86c-.93-.21-1.87-.42-2.8-.61s-1.82-.37-2.73-.53c-1.35-.23-2.71-.42-4.07-.61-1-.14-2-.26-3-.37-1.22-.14-2.45-.27-3.68-.39l-2.36-.22-2.19-.2c-.63-.06-1.25-.12-1.88-.16l-1.7-.1c-.6,0-1.2,0-1.8,0-1.18,0-2.36,0-3.54,0l-1.13,0-1.59.1L30,37c-.61,0-1.21.11-1.82.18-.77.08-1.54.16-2.31.26l-2.52.31L20.8,38l-2.19.3-2.75.37a23.48,23.48,0,0,0-3.2.72A40.38,40.38,0,0,0,8.54,40.9c-1.14.47-2.27,1-3.38,1.53-.59.29-1.17.59-1.75.9a4.82,4.82,0,0,0-.63.35,6.36,6.36,0,0,0-1.13,1.13A2.58,2.58,0,0,0,1.08,46,1.1,1.1,0,0,0,1.4,47a2.86,2.86,0,0,0,.71.48,3.33,3.33,0,0,0,1.36.26,7.34,7.34,0,0,0,2.59-.39c.86-.27,1.68-.63,2.53-.93A22.21,22.21,0,0,1,11,45.75l1.27-.26a2.4,2.4,0,0,1-.28,0c-.07,0-.14,0-.16-.08s0-.11.07-.16a1.94,1.94,0,0,1,.52-.34,13,13,0,0,1,3.16-1.05,12.19,12.19,0,0,1,1.9-.24,6.36,6.36,0,0,1,1.31,0,17.11,17.11,0,0,0,2.48.15c.61,0,1.22,0,1.83-.1.88-.08,1.75-.19,2.62-.34l3.78-.63c1-.17,2-.34,3-.43.74-.06,1.47-.16,2.21-.19a19.84,19.84,0,0,1,2.18,0c.55,0,1.11,0,1.67.06h3.85l1.17.1c.52.05,1.05.09,1.57.12l1.54.11,1.28.09,1.38.08,1.26.08,1.61.11,1.61.12,2.1.19c.74.07,1.47.15,2.2.24s1.63.22,2.44.35c1,.16,2.09.35,3.13.56l3.45.73,3.15.67a21.51,21.51,0,0,0,3.1.49q1.14.09,2.28.09H76.8c.34,0,.69,0,1,0s.79,0,1.18,0,.54,0,.8,0,.76.07,1.15.09l1.19.09c.5,0,1,.09,1.49.1s.85,0,1.28,0,1-.08,1.58-.14a33.48,33.48,0,0,0,3.29-.63l.32-.08a.11.11,0,0,0-.08,0l-1.4.23c-.72.13-1.45.24-2.18.34s-1.44.16-2.16.2a1,1,0,0,1-.3,0s-.06,0-.07-.05,0,0,0-.06l.17-.1a13.4,13.4,0,0,1,2.19-.73,1,1,0,0,1,.58,0l.27.09a1.74,1.74,0,0,0,.93.13c.28-.06.57-.09.85-.16.57-.13,1.12-.33,1.68-.51.38-.12.38-.12.63.19a.16.16,0,0,0,.17.06,4.11,4.11,0,0,0,.68-.21c.5-.19,1-.45,1.45-.68a2.42,2.42,0,0,1,.82-.28c.41,0,.82,0,1.22,0A9.55,9.55,0,0,0,96.8,44a3.72,3.72,0,0,0,.82-.16L99.8,43l3.83-1.49s.06,0,.05,0,0,0,0,0l.32-.1.25-.08A2,2,0,0,0,104,41.17ZM80.27,43.39a2.79,2.79,0,0,1,2,.32A3.4,3.4,0,0,1,80.27,43.39Zm10.9-.24L91.6,43c0,.07-.07.12,0,.18Zm12.29-1.66a9.4,9.4,0,0,1-2,.38,5.78,5.78,0,0,1-.93,0h-.06s0,0,0,0,.1,0,.11.08,0,.07-.09.1a1.82,1.82,0,0,1-.3.11,0,0,0,0,1,0,0L99.77,42l.85-.33a5.34,5.34,0,0,1,1.26-.27,3.91,3.91,0,0,1,.68,0,.21.21,0,0,0,.15,0l.4-.24a.3.3,0,0,1,.38.05l0,0C103.66,41.42,103.66,41.43,103.46,41.49Z"/><path class="cls-1" d="M12.5,31.45l.61,1.48a4.31,4.31,0,0,1-.43.34,6.65,6.65,0,0,1-.59.4c-.22.07-.49.18-.81.32l-1.08.48c-.31.19-.57.34-.76.43a1.21,1.21,0,0,1-.41.15,3.4,3.4,0,0,0-.77.17c-.37.12-.85.3-1.45.53l-1,.37c-.36.12-.73.23-1.12.33l-1-.21-.61.27H2.45a5.66,5.66,0,0,1-.6,0,1.7,1.7,0,0,1-.7-.13A.33.33,0,0,1,.92,36L1,35.4l-.09-.11a1.27,1.27,0,0,1-.74-.15c-.12-.09-.18-.32-.18-.67,0-.16,0-.43,0-.8s0-.86.08-1.46a1.09,1.09,0,0,1,.1-.34,1.23,1.23,0,0,0,.11-.37.79.79,0,0,1-.1-.26,1.11,1.11,0,0,1,0-.17c0-.42.07-.94.14-1.55s.16-1.33.26-2.16a16.28,16.28,0,0,0,.33-1.71c0-.47-.05-.95-.07-1.44.4-1.78.8-3.57,1.22-5.37a3.09,3.09,0,0,1,.36-.91,5.49,5.49,0,0,1,.64-.84,1.63,1.63,0,0,0,.21-.17c.05-.1.12-.22.21-.37l.3-.49.31-.19.59-.35.37-.31.48-.41A11.18,11.18,0,0,0,6.67,14,2.52,2.52,0,0,1,8,13.51l.74,0c.25,0,.48,0,.71-.06a4.69,4.69,0,0,1,.56-.08l.28-.06.22,0,.26,0,.46.07.39,0,.3,0a1.88,1.88,0,0,1,.95.57,1.34,1.34,0,0,1,.3.88,4.84,4.84,0,0,1-.21,1.65.73.73,0,0,1-.69.53,1.36,1.36,0,0,1-.8-.36A4.8,4.8,0,0,0,9,16.24l-1.63.32a.47.47,0,0,1-.18.19.7.7,0,0,1-.19.1l-.56-.21a1.57,1.57,0,0,0-.58.53,8,8,0,0,0-.67,1.19,1.73,1.73,0,0,0-.12.4,3.13,3.13,0,0,0,0,.56c-.19.78-.39,1.52-.58,2.24S4.15,22.91,4,23.31s-.18.63-.2.72-.06.21-.08.31a1.33,1.33,0,0,0,0,.28.54.54,0,0,0,.08.33.28.28,0,0,0,.24.11c.09,0,.33-.18.7-.53a2.52,2.52,0,0,1,.82-.6l.69-.2c.23-.08.46-.17.71-.28s.35-.07.76-.13l1.73-.19.45.13.85-.16.45.21a1.75,1.75,0,0,1,.3.39c.09.16.17.33.25.51a3.92,3.92,0,0,1-.21,1.46.68.68,0,0,1-.63.5L10,25.81,7.88,26l-2.18.2a4.62,4.62,0,0,0-2.07.88,2.26,2.26,0,0,0-.8,1.61,4.37,4.37,0,0,1-.12.64c-.06.29-.13.65-.22,1.08l.11.48c-.09.46-.17.89-.22,1.3a7.46,7.46,0,0,0-.08,1.09.49.49,0,0,0,0,.24s.07.06.12,0l1.23-.1a5.68,5.68,0,0,1,.66,0l.85.07,1-.08a5,5,0,0,0,.69-.26,2.58,2.58,0,0,1,1-.22,5.09,5.09,0,0,0,.94-.1,5.47,5.47,0,0,0,.9-.26c.29-.1.58-.21.86-.33l.86-.33a3.37,3.37,0,0,0,.43-.17Z"/><path class="cls-1" d="M12.4,31.45a2.23,2.23,0,0,1,.17-.25l.25-.33c.1-.08.24-.21.41-.37s.37-.34.58-.56.43-.48.71-.79l1-1.15.64-.7c.26-.28.57-.62.92-1a3.16,3.16,0,0,1,1-.79,2.45,2.45,0,0,1,1.09-.25,1,1,0,0,1,.86.36,1.73,1.73,0,0,1,.27,1A7,7,0,0,1,20,28.06c-.19.7-.47,1.62-.86,2.76-.09.22-.18.42-.27.61a2.08,2.08,0,0,0-.13.37,1.52,1.52,0,0,0,0,.24.48.48,0,0,0,.11.25l.16-.13.16-.2a2.36,2.36,0,0,1,.4-.5c.17-.18.39-.37.63-.59a3,3,0,0,1,.38-.54,4.85,4.85,0,0,1,.52-.49l.17-.2a3.09,3.09,0,0,1,.25-.31,4.59,4.59,0,0,1,.5-.43c.19-.15.42-.31.67-.47a6.17,6.17,0,0,1,.78-.35A1.67,1.67,0,0,1,24,28a1.65,1.65,0,0,1,.89.24,2,2,0,0,1,.66.76c.21.66.41,1.27.61,1.84a2,2,0,0,0,.39.74.64.64,0,0,0,.49.24.81.81,0,0,0,.38-.08,1,1,0,0,0,.31-.24l.64,1.48-.56.46-.56.47a2.73,2.73,0,0,1-.69.47,1.69,1.69,0,0,1-.65.14,1.56,1.56,0,0,1-.7-.16,1.58,1.58,0,0,1-.58-.48,2.43,2.43,0,0,1-.32-.48c-.13-.23-.28-.51-.45-.86a4.94,4.94,0,0,1-.48-.55l-.61-.81-.15-.05a2.75,2.75,0,0,0-.6.29,4.29,4.29,0,0,0-.63.5,5.7,5.7,0,0,1-1.05.8A1,1,0,0,0,20,33a7,7,0,0,1-.77,1c-.36.4-.82.89-1.36,1.44l-.42.41q-.21.21-.42.39a1.07,1.07,0,0,1-.47.25,2.16,2.16,0,0,1-.59.08c-.42,0-.66-.15-.69-.45s-.08-.59-.11-.89c.16-.45.34-1,.55-1.68s.43-1.46.7-2.36a.56.56,0,0,1,.06-.22c0-.09.08-.21.13-.36a2.76,2.76,0,0,0,.11-.36,1.48,1.48,0,0,0,0-.27.22.22,0,0,0-.08-.18.42.42,0,0,0-.25-.06.8.8,0,0,0-.43.19,3.83,3.83,0,0,0-.63.61c-.3.32-.54.58-.73.76a1.78,1.78,0,0,1-.37.32,2.94,2.94,0,0,0-.37.32l-.49.47-.1.19a1.36,1.36,0,0,1-.21.29,4.67,4.67,0,0,0-.22-.6Z"/><path class="cls-1" d="M27.75,31.45c.21-.2.51-.49.93-.87l1.56-1.41a4.45,4.45,0,0,0,.48-.53l1.11-1.28c.23-.23.5-.52.82-.87s.69-.77,1.09-1.25a3.83,3.83,0,0,1,.8-.84,1.32,1.32,0,0,1,.76-.29.9.9,0,0,1,.68.23.93.93,0,0,1,.22.67,6.4,6.4,0,0,1-.08.8,6.52,6.52,0,0,0-.08.81,13.24,13.24,0,0,1-.14,1.57c-.09.75-.23,1.72-.42,2.92,0,.08,0,.2-.07.38s-.1.41-.17.7a2.87,2.87,0,0,0-.13.59,4.54,4.54,0,0,0,0,.47,1.7,1.7,0,0,1,0,.21q.79-.59,1.38-1.08a9.82,9.82,0,0,0,1-.93l.64,1.48c-.11,0-.86.72-2.25,2a1.52,1.52,0,0,1-.42.61,5.26,5.26,0,0,1-.9.66l-.38.71c-.15.3-.32.64-.51,1s-.21.56-.29.83-.14.49-.2.7A8.61,8.61,0,0,1,32.57,41c-.27.59-.59,1.27-1,2.06a12.26,12.26,0,0,1-1.26,2.08c-.37.46-.68.69-.92.68l-.62-.06a1,1,0,0,1-.3,0,.6.6,0,0,1-.2-.33,2.58,2.58,0,0,1-.05-.6,4.42,4.42,0,0,1,.08-.75c.05-.34.13-.75.24-1.25a7.12,7.12,0,0,1,.29-1c.13-.33.27-.65.43-1s.28-.61.43-.9.31-.6.47-.93c.35-.43.7-.9,1-1.4s.68-1,1-1.64a8.38,8.38,0,0,0,.21-.86c.06-.35.14-.76.21-1.24s.18-1,.24-1.42.1-.65.14-.86a1.66,1.66,0,0,0,0-.44l-.1-.83.28-.87a.85.85,0,0,0-.17-.3.33.33,0,0,0-.24-.1,1.07,1.07,0,0,0-.57.16,1.75,1.75,0,0,0-.52.47,7.19,7.19,0,0,1-.67.77c-.27.28-.59.58-.95.91l-1.11,1a7.52,7.52,0,0,0-.62.6c-.06-.14-.12-.31-.2-.5a5.61,5.61,0,0,1-.25-.67,1.59,1.59,0,0,0-.08-.18A.5.5,0,0,0,27.75,31.45ZM38,16.61a.74.74,0,0,1,.54.16.63.63,0,0,1,.17.47,2.74,2.74,0,0,1-.13.77,8.34,8.34,0,0,1-.37,1c-.13.3-.25.59-.35.85a2,2,0,0,1-.75.7,2,2,0,0,1-1,.43,3.88,3.88,0,0,1-.74-.06,1,1,0,0,1-.45-.17.75.75,0,0,1-.24-.41,2.68,2.68,0,0,1-.08-.76c0-.5.42-1.12,1.28-1.86A3.68,3.68,0,0,1,38,16.61Z"/><path class="cls-1" d="M37.42,31.45a1.3,1.3,0,0,0,.23-.3l.29-.41,1.23-.85a8.59,8.59,0,0,1,.69-.7l1.16-1a1.82,1.82,0,0,1,.26-.41,3.88,3.88,0,0,1,.45-.46l.45-.39.41-.36c.16-.16.32-.33.46-.49l.44-.46a2.11,2.11,0,0,1,.53-.35,1.35,1.35,0,0,1,.6-.13,1.54,1.54,0,0,1,.54.08.33.33,0,0,1,.2.25c-.11.25-.22.5-.34.74l.1.15c.47-.18.84-.32,1.1-.4a2.14,2.14,0,0,1,.52-.13,2.16,2.16,0,0,1,1.76.71,3.37,3.37,0,0,1,.58,2.16,4,4,0,0,1-.06.64,4.86,4.86,0,0,1-.21.81,4.06,4.06,0,0,1-.35.8,2,2,0,0,1-.34.47.78.78,0,0,0,.14.29.29.29,0,0,0,.21.09.47.47,0,0,0,.27-.08,2.19,2.19,0,0,0,.33-.24c.1.24.21.48.31.73l.31.75-.56.5a6.9,6.9,0,0,1-.58.46,2.51,2.51,0,0,1-.7.44,1.69,1.69,0,0,1-.65.14,1,1,0,0,1-.61-.18,1.12,1.12,0,0,1-.38-.49,5.56,5.56,0,0,1-1,1A5.46,5.46,0,0,1,44,35.5a5.14,5.14,0,0,1-.73.3,2.35,2.35,0,0,1-.6.1,1.54,1.54,0,0,0-.31.06A1.28,1.28,0,0,1,42,36a2.25,2.25,0,0,1-1.65-.77,2.42,2.42,0,0,1-.74-1.72,4.28,4.28,0,0,1,.17-1,4.67,4.67,0,0,0,.18-.75.24.24,0,0,0-.07-.18.28.28,0,0,0-.2-.08c-.06,0-.18.09-.39.25l-.86.69a.9.9,0,0,0-.12.19,1.36,1.36,0,0,1-.21.29c-.08-.25-.18-.5-.28-.75S37.55,31.69,37.42,31.45Zm7.73-2.94a.62.62,0,0,0-.24.17,2,2,0,0,0-.29.38c-.15.24-.32.51-.52.8a1.29,1.29,0,0,1-.37.3,1.66,1.66,0,0,1-.46.15c-.11,0-.22.12-.34.31a4.42,4.42,0,0,0-.35.86,6.93,6.93,0,0,0-.26.85,3.1,3.1,0,0,0-.08.6.91.91,0,0,0,.23.67.94.94,0,0,0,.69.23,2.41,2.41,0,0,0,1.35-.41,4.21,4.21,0,0,0,1.17-1.23l.48-.58a.76.76,0,0,0,.21-.31c.05-.15.11-.33.16-.54l.29-.92a6.07,6.07,0,0,0-.28-.76.66.66,0,0,0-.25-.34,1.18,1.18,0,0,0-.36-.11Q45.66,28.57,45.15,28.51Z"/><path class="cls-1" d="M49,31.45a8.17,8.17,0,0,1,1.14-.93,11,11,0,0,0,1.13-.9c.16-.19.37-.43.63-.7l.92-1a3.32,3.32,0,0,1,.62-.45,1.3,1.3,0,0,1,.62-.16.88.88,0,0,1,.6.19.79.79,0,0,1,.21.61,7.27,7.27,0,0,1-.48,2,7.15,7.15,0,0,0-.48,2.12.28.28,0,0,0,.07.22.27.27,0,0,0,.17.06h.08c.21-.13.44-.29.72-.49s.58-.44.92-.73.62-.6,1-1,.89-.9,1.45-1.45a9.45,9.45,0,0,0,.73-.66c.27-.27.58-.59.92-1a1.43,1.43,0,0,1,.59-.45,2.3,2.3,0,0,1,.92-.16,1,1,0,0,1,.56.13.5.5,0,0,1,.18.41,1.5,1.5,0,0,1,0,.22,1.77,1.77,0,0,0,0,.2c-.08.32-.19.72-.34,1.18s-.33,1-.55,1.65c-.18.39-.37.87-.57,1.42l-.63,1.82.11.15a4.66,4.66,0,0,0,1-.77c.45-.4,1-.93,1.68-1.61l.64,1.48-.31.31a3.64,3.64,0,0,1-.49.39,25,25,0,0,0-3,2.42,12.57,12.57,0,0,0-2,2.37c-.72,1.18-1.31,2.14-1.79,2.88s-.82,1.25-1,1.55A10,10,0,0,1,52.94,45a3.37,3.37,0,0,1-1.94.71.72.72,0,0,1-.51-.15.55.55,0,0,1-.16-.45,1.17,1.17,0,0,1,.08-.4,1.68,1.68,0,0,1,.29-.51,10.4,10.4,0,0,0,.56-.9l.48-.42a1.22,1.22,0,0,0,.06-.29l.18-.19.28-.26a5.77,5.77,0,0,1,.6-.95q.49-.68,1.38-1.71c.44-.52.84-1,1.2-1.38l.93-1a2.15,2.15,0,0,0,.14-.3,2.91,2.91,0,0,0,.12-.35c.14-.28.29-.62.46-1s.37-.86.6-1.39A6.67,6.67,0,0,0,58,33c.08-.4.15-.84.21-1.31a.61.61,0,0,1,0-.17,1.22,1.22,0,0,0-.07-.3,3.32,3.32,0,0,0-.63.44c-.23.19-.48.41-.75.67a6.69,6.69,0,0,1-1.08,1.15,4.55,4.55,0,0,1-1.07.7,2.31,2.31,0,0,1-2.19,1.35,1.18,1.18,0,0,1-.8-.25,1,1,0,0,1-.27-.76,1.06,1.06,0,0,1,0-.24c0-.1,0-.21.07-.34l-.16-.45a4.78,4.78,0,0,0,.11-.61,2.62,2.62,0,0,0-.07-.72c-.05-.17-.12-.25-.23-.25l-.06,0c-.12.08-.29.21-.5.38s-.47.38-.77.63c-.06-.14-.12-.31-.2-.5s-.17-.42-.25-.67a.75.75,0,0,0-.08-.18A.5.5,0,0,0,49,31.45Z"/><path class="cls-1" d="M83.47,32.93c-.33.24-.72.53-1.2.85s-1,.67-1.68,1.06l-1.53.86a11.85,11.85,0,0,1-1.12.54,5.86,5.86,0,0,1-1.4.44,8.32,8.32,0,0,1-1.51.13,2.09,2.09,0,0,1-.53-.07l-.64-.17-.71-.19a4.63,4.63,0,0,0-.48-.1l-.19-.19L72,36a1.5,1.5,0,0,1-.73-.31,6.14,6.14,0,0,1-.92-.8,6.71,6.71,0,0,1-.78-.92,3.18,3.18,0,0,1-.42-.78l-.44-1.38c-.15-.48-.26-.86-.34-1.14a2.16,2.16,0,0,1-.09-.57l.17-.72-.2-.61a1.76,1.76,0,0,1-.07-.37c0-.08,0-.35.08-.79s.13-1.05.23-1.83l.24-.54c.08-.22.16-.46.24-.73l0-.35a1,1,0,0,1,.06-.3,3.2,3.2,0,0,1,.15-.37l.74-1.59c.24-.54.49-1.06.74-1.56a8,8,0,0,1,.82-1.19c.34-.41.73-.83,1.17-1.27l.35-.42c.14-.17.31-.36.5-.56a6.35,6.35,0,0,0,.67-.49c.26-.22.57-.5.94-.84l.38-.18.55-.27.2-.16a2.32,2.32,0,0,1,.28-.24,4.62,4.62,0,0,1,1.28-.48,6.74,6.74,0,0,1,1.45-.33,6.3,6.3,0,0,1,1.25.11,2.07,2.07,0,0,1,.82.33l.52.09a1.38,1.38,0,0,1,.94,1,7.17,7.17,0,0,1,.31,2.41c0,.5,0,.89,0,1.18a3.34,3.34,0,0,1,0,.61c-.06.32-.13.72-.21,1.21s-.19,1.05-.31,1.69a4.8,4.8,0,0,1-.22.85c-.13.39-.31.87-.52,1.45s-.42,1.11-.58,1.44-.29.5-.4.54l-1.38.35a1.49,1.49,0,0,1-.5-.06.2.2,0,0,1-.14-.18,1.64,1.64,0,0,1,.06-.36,2.4,2.4,0,0,0,0-.33L78.74,25a6.15,6.15,0,0,1,.12-.88c.09-.44.22-1,.39-1.69s.34-1.34.48-1.77a3,3,0,0,1,.34-.82,3.36,3.36,0,0,0,.67-.82,1.45,1.45,0,0,0,.22-.72,1.35,1.35,0,0,0-.22-.78,1.32,1.32,0,0,0-.65-.52l-.84-.18a8,8,0,0,1-.84-.22,4.12,4.12,0,0,1-.61.19l-.45.12a4.31,4.31,0,0,0-2.07,1,9.23,9.23,0,0,0-1.88,2.27,13.93,13.93,0,0,0-1.19,2.51,11.51,11.51,0,0,0-.61,2.53c0,.26-.1.57-.16,1s-.16.83-.28,1.35c.1.32.19.61.26.88l-.16,1.46a1.09,1.09,0,0,0,.14.33l.45.73a3.18,3.18,0,0,1,.32.64,4,4,0,0,1,.23.84.89.89,0,0,0,.12.24,1.34,1.34,0,0,0,.2.21c.16.14.32.26.47.37a5,5,0,0,0,1.47,1.11,3.64,3.64,0,0,0,1.66.38l.6-.08c.35-.05.83-.14,1.44-.26a2.68,2.68,0,0,1,.42-.22,6.31,6.31,0,0,1,.64-.24,2,2,0,0,1,.64-.46,1.53,1.53,0,0,1,.6-.14l.2-.27a3,3,0,0,1,.31-.35,3.67,3.67,0,0,0,.88-.51,5.26,5.26,0,0,0,.77-.73A15.85,15.85,0,0,1,83.47,32.93Z"/><path class="cls-1" d="M82.81,31.45a.52.52,0,0,0,.1-.11.27.27,0,0,0,0-.16,6,6,0,0,0,.62-.62c.23-.26.49-.57.78-.92s.48-.65.73-1,.52-.64.81-1,.47-.66.7-1,.47-.68.73-1c.43-.2.76-.34,1-.43a1.93,1.93,0,0,1,.48-.13.44.44,0,0,1,.37.16.68.68,0,0,1,.13.44,1.31,1.31,0,0,1,0,.27c0,.12-.07.25-.11.39s-.17.43-.26.65c-.09.38-.19.75-.31,1.13s-.23.74-.33,1.11-.19.88-.25,1.27a6.79,6.79,0,0,0-.09,1.06A7.21,7.21,0,0,0,88,32.93c.06.29.14.42.25.38l.4-.23.56-.31c.19-.21.41-.46.65-.76s.53-.65.88-1.06c.19-.3.39-.59.59-.88l.26-.31a3.17,3.17,0,0,0,.29-.35,3.38,3.38,0,0,1,.68-1.15,1.16,1.16,0,0,1,.84-.37,1.78,1.78,0,0,1,.67.1.61.61,0,0,1,.34.31,1.3,1.3,0,0,1,.08.39,6.42,6.42,0,0,1,0,.72,2.41,2.41,0,0,0,.07.51,2.59,2.59,0,0,1,.07.5,1.52,1.52,0,0,0,.21.89.72.72,0,0,0,.64.3,1,1,0,0,0,.31-.05l.35-.11.64,1.48c-.64.38-1.17.68-1.58.87a2.42,2.42,0,0,1-.92.3A2,2,0,0,1,93,33.68a2.44,2.44,0,0,1-.75-1.23,1.53,1.53,0,0,0-.14-.39,1.89,1.89,0,0,0-.27-.38l-.33.38q-.18.22-.39.45l-.87,1c-.29.33-.58.67-.88,1a3.88,3.88,0,0,1-1.13,1,2.43,2.43,0,0,1-1.07.29A1.61,1.61,0,0,1,86,35.36a2.25,2.25,0,0,1-.58-1.31c-.09-.55-.16-1-.19-1.3a2.27,2.27,0,0,1,0-.56,6.22,6.22,0,0,0-.08-.71c0-.16-.1-.24-.17-.24l-.1.05-.91,1a2.62,2.62,0,0,1-.17.28,4.5,4.5,0,0,1-.3.41,3.7,3.7,0,0,0-.23-.6C83.12,32.1,83,31.8,82.81,31.45Z"/><path class="cls-1" d="M96.17,31.45l.47-.55c.18-.21.41-.47.69-.77A9.67,9.67,0,0,0,97.62,29c.09-.45.17-1,.24-1.57s.15-1.14.25-1.6.17-.82.24-1.1c.49-1.51.86-2.68,1.13-3.51s.42-1.32.46-1.47a25.23,25.23,0,0,1,1.12-2.61,17.07,17.07,0,0,1,1.18-2l.31-.34c.1-.12.23-.25.37-.39l1.1-.53a3.48,3.48,0,0,1,.59-.21,2,2,0,0,1,.59-.08.76.76,0,0,1,.69.42,2.69,2.69,0,0,1,.24,1.28,5.29,5.29,0,0,1-.15,1.18,13.09,13.09,0,0,1-.4,1.42c-.26.73-.45,1.31-.59,1.74l-.26.81a3.7,3.7,0,0,1-.3.86c-.17.34-.38.76-.65,1.25s-.59,1.12-.78,1.46-.29.55-.33.61l-.23.23-.25.25v.37a.79.79,0,0,1-.16.28c-.18.35-.42.79-.73,1.31s-.68,1.13-1.13,1.8a5.85,5.85,0,0,0-.58.93,1.64,1.64,0,0,0-.19.69v1.42c0,.27.11.55.17.82s.13.54.2.8a1.56,1.56,0,0,0,.3.78.68.68,0,0,0,.52.26,1.71,1.71,0,0,0,1.06-.31,1.84,1.84,0,0,0,.64-1,1.87,1.87,0,0,1-.67-.41.68.68,0,0,1-.23-.49,2.32,2.32,0,0,0,.14-.35,3.57,3.57,0,0,1,.12-.4,1.89,1.89,0,0,1,0-.23,1,1,0,0,0,.06-.28,11.18,11.18,0,0,1,1.35-2,1.66,1.66,0,0,1,1.09-.68,2.21,2.21,0,0,1,.37,0,2.31,2.31,0,0,0,.39,0,1.8,1.8,0,0,0,.3-.05,1.24,1.24,0,0,1,.31-.06.41.41,0,0,1,.38.18,1,1,0,0,1,.11.51,3.3,3.3,0,0,1-.4,1.49,4.42,4.42,0,0,0-.4.92.31.31,0,0,0,.13.21,1.24,1.24,0,0,0,.2-.1,1,1,0,0,0,.2-.16,2.92,2.92,0,0,0,.2.48l.3.63a.81.81,0,0,1,.11.2.51.51,0,0,1,0,.17A9.3,9.3,0,0,1,105.24,34a1.94,1.94,0,0,1-.86.4h-.28l-.38,0c-.15.18-.33.39-.54.62s-.44.52-.7.84a4.57,4.57,0,0,0-.4.3c-.16.12-.34.27-.55.45a3.45,3.45,0,0,1-.92.69,2.17,2.17,0,0,1-.92.21,1.84,1.84,0,0,1-.41,0,1.72,1.72,0,0,1-.46-.22,2.49,2.49,0,0,1-.41-.26l-.47-.4a12.79,12.79,0,0,1-.47-1.81,9,9,0,0,1-.14-1.59.69.69,0,0,0,0-.22.35.35,0,0,0-.07-.15l-.14-.05-.12.05-.16.16a7.22,7.22,0,0,0-.29-.72C96.42,32,96.3,31.71,96.17,31.45Zm7.44-13.06a.25.25,0,0,0,0-.13.19.19,0,0,0-.09-.11c-.06,0-.14.06-.22.22A2.52,2.52,0,0,0,103,19a2.9,2.9,0,0,1-.29.75c-.15.29-.34.63-.58,1a11.13,11.13,0,0,0-.59,1.15c-.2.42-.39.88-.58,1.37a11.69,11.69,0,0,0-.55,1.53,4.08,4.08,0,0,0-.17,1.06l0,.14a1.76,1.76,0,0,0,.42-.63q.3-.56.78-1.62c.3-.62.52-1.11.67-1.46a7.38,7.38,0,0,0,.26-.71l.31-1c.12-.38.25-.81.4-1.28l.27-.47a.76.76,0,0,0,.15-.26A.69.69,0,0,0,103.61,18.39Z"/><path class="cls-1" d="M106.29,30.74l1.46-1,.19-.22a2.61,2.61,0,0,0,.26-.39.92.92,0,0,1,.3-.35,1.75,1.75,0,0,1,.42-.26c.09-.11.21-.24.37-.4s.37-.35.61-.56a6.38,6.38,0,0,0,1-.77,16.35,16.35,0,0,1,2.56-2.08,3.7,3.7,0,0,1,1.85-.69.9.9,0,0,1,.62.18.61.61,0,0,1,.2.5,1.38,1.38,0,0,1-.12.59,1.06,1.06,0,0,1-.38.44l-.86.64a7.86,7.86,0,0,1-1.5,1.46c-.1.14-.2.26-.27.37l-.31.29a6,6,0,0,1-.59.48,3.8,3.8,0,0,1-.7.91q-.54.57-1.44,1.35c-.07.08-.2.25-.4.52l-.75,1.06L109,33a2.61,2.61,0,0,0,.74-.38,8.19,8.19,0,0,0,.85-.73l.89-.81c.23-.21.4-.34.49-.41l.23-.12.25-.17a7.28,7.28,0,0,1,1.38-1.3,2.17,2.17,0,0,1,1.19-.43.6.6,0,0,1,.52.26,1.75,1.75,0,0,1,.21.8c0,.54,0,1.05,0,1.54a1.49,1.49,0,0,0,.29.93.89.89,0,0,0,.77.4.53.53,0,0,0,.29-.08,2.12,2.12,0,0,0,.28-.2l.21-.28c.07-.08.14-.17.22-.25l.18-.12a1.33,1.33,0,0,0,.24-.19c.15.32.27.6.37.84a6,6,0,0,1,.24.64c-.25.22-.49.46-.73.7a8.32,8.32,0,0,1-.77.68,3.83,3.83,0,0,1-.93.55,2.24,2.24,0,0,1-.9.19,2.08,2.08,0,0,1-1.6-.6,2.8,2.8,0,0,1-.66-1.79,1,1,0,0,0,0-.3A.91.91,0,0,0,113,32a1.49,1.49,0,0,1-.18.17,2.85,2.85,0,0,0-.22.24l-.52.4c-.21.16-.46.35-.73.58l-.95.94-.55.53a5.21,5.21,0,0,1-.75.55c-.28.18-.6.37-.95.56l-.58.28a1.08,1.08,0,0,1-.35.11,1.52,1.52,0,0,1-1.14-.38,1.59,1.59,0,0,1-.37-1.16,2,2,0,0,1,.18-.83,2.75,2.75,0,0,1,.56-.76,2.61,2.61,0,0,0,0-.34.35.35,0,0,0,0-.17,1.36,1.36,0,0,0-.11-.2l-.21-.51c-.08-.18-.17-.39-.27-.6a1.29,1.29,0,0,0,.19-.25C106.09,31.08,106.18,30.93,106.29,30.74Z"/><path class="cls-1" d="M60.05,8.31s-.46,1.25,0,1.32a.36.36,0,0,1,.3.51,2.74,2.74,0,0,0,.45.68,3.28,3.28,0,0,1,.73,1.12,5.8,5.8,0,0,1,.57,1.55A3.81,3.81,0,0,0,62.65,15c.39.79.83,1.58.74,2a6.48,6.48,0,0,0,.44,2.47,8.29,8.29,0,0,1,.24,2.47v3.22c0,.4.07,1.2,0,1.93s-.9,2-.92,2.49a10.7,10.7,0,0,1-1.38,2.25l-.84,1-1.09,1.31.4.86,1.84-1.45s1.11-.49,1.48-.62,1.05-1.51,1.52-2.71a8.39,8.39,0,0,0,.69-2.6c.07-.79.6-1.58.6-2.24a12.25,12.25,0,0,0,0-2.64,19.5,19.5,0,0,1-.25-2.3c-.13-1-.37-1.46-.37-2.05s-.31-1.05-.31-1.51a6.74,6.74,0,0,0-.65-1.78,11.93,11.93,0,0,0-.53-1.49c-.27-.42-.45-.88-.83-1.65a12.07,12.07,0,0,0-.82-1.28,7.12,7.12,0,0,0-.81-1.23c-.31-.41-1-1.14-1-1.14Z"/><path class="cls-1" d="M61,7.44a6.76,6.76,0,0,1,2.87-2.6,5,5,0,0,1,4.77.3,10.68,10.68,0,0,1,2.61,2.5A6.4,6.4,0,0,1,72,9.84c-.08,0-.2.37-.33.29s-.47-.82-.77-.92-.73-.76-.73-.76V7.36l-.25,1s-.67-.3-.91-.43a6.12,6.12,0,0,1-.86-1.45l.36,1.35a5.19,5.19,0,0,0-1.16-.52,9.37,9.37,0,0,1-1.09-.14L66,5.73l0,1.53h-1.6L64,6.13l0,1.33L62,7.49a1.21,1.21,0,0,1-.47.07A.9.9,0,0,1,61,7.44Z"/><path class="cls-1" d="M59.19,8.2a8.27,8.27,0,0,0-4.13,1.41,5.42,5.42,0,0,0-2.15,5.12,8.92,8.92,0,0,0,2.3,4.05s-.08-2.12,0-2.79.07-.87.07-.87l-1.65-.74,1.7.4s.27-.52.47-1,.32-.91.32-.91l-.86-.77,1,.3s.35-.55.59-.84.65-.89.65-.89l-.4-.92,1.14.3s0-1,.59-1.21.59-.6.59-.6Z"/><path class="cls-1" d="M53.45,0s.58.89,1,1.41S57,4.72,57.16,4.79a9.93,9.93,0,0,1,.72,1,12.18,12.18,0,0,0-2.7-.84,4.27,4.27,0,0,0-3.58.84,4.4,4.4,0,0,0-.92,2.72,6.74,6.74,0,0,1,1.26-.89c.67-.35.9-.45.9-.45l-.28-.94.57.94s.87,0,1.56,0h.69l.35-.91.51,1.08a10.08,10.08,0,0,1,1.64,0c.69.08,1.55.08,1.55.08l.42,0,.23-.42a2.82,2.82,0,0,1,.19-1.48,3.62,3.62,0,0,1,.65-.89l-.67-.86.79.53a2.23,2.23,0,0,1,.74-.83c.62-.49,1.06-.79,1.06-.79V1.8l.51.4s.41-.12,1-.35A11.34,11.34,0,0,0,65.93,1a3.94,3.94,0,0,0-2-.82,5.19,5.19,0,0,0-3.9,1.29c-1,1.09-1,4-1,4L56.83,2.58s-1.07-1.13-1.15-1.25a6.58,6.58,0,0,0-.94-.78C54.37.38,53.45,0,53.45,0Z"/></g></g></svg>