<svg xmlns="http://www.w3.org/2000/svg" viewBox="0 0 80 80"><defs><style>.cls-1{fill:#3864a9;}.cls-2{fill:#fff;}</style></defs><title>Recurso 74</title><g id="Capa_2" data-name="Capa 2"><g id="Capa_1-2" data-name="Capa 1"><path class="cls-1" d="M78.45,61.24A20.41,20.41,0,0,1,61.6,78.12,124.26,124.26,0,0,1,41.06,80,124,124,0,0,1,18.3,78.06,20.34,20.34,0,0,1,1.65,61.4,145.93,145.93,0,0,1,0,39.13,126.3,126.3,0,0,1,1.69,18.92,20.41,20.41,0,0,1,18,2.19,119.66,119.66,0,0,1,41.36,0,104.94,104.94,0,0,1,62,2.12,20.48,20.48,0,0,1,78.41,19,120.7,120.7,0,0,1,80,38.83,149,149,0,0,1,78.45,61.24Z"/><path class="cls-2" d="M45.23,51.43H34.77A3.49,3.49,0,0,1,31.28,48v-15a3.49,3.49,0,0,1,3.49-3.48H45.23a3.48,3.48,0,0,1,3.48,3.48V48A3.48,3.48,0,0,1,45.23,51.43ZM34.77,30.17A2.76,2.76,0,0,0,32,32.93V48a2.76,2.76,0,0,0,2.76,2.76H45.23A2.77,2.77,0,0,0,48,48v-15a2.77,2.77,0,0,0-2.76-2.76Z"/><path class="cls-2" d="M43,30.19H37V24.11H43Zm-5.32-.76h4.56V24.87H37.72Z"/><rect class="cls-2" x="34.49" y="51.07" width="1.9" height="2.66"/><path class="cls-2" d="M36.55,53.89H34.33v-3h2.22Zm-1.9-.32h1.58V51.23H34.65Z"/><rect class="cls-2" x="43.6" y="51.07" width="1.9" height="2.66"/><path class="cls-2" d="M45.66,53.89H43.44v-3h2.22Zm-1.9-.32h1.58V51.23H43.76Z"/><rect class="cls-2" x="36.96" y="24.11" width="6.08" height="1.52"/><path class="cls-2" d="M40,49a6,6,0,1,1,6-6A6,6,0,0,1,40,49Zm0-11.31a5.28,5.28,0,1,0,5.28,5.28A5.29,5.29,0,0,0,40,37.65Z"/><path class="cls-2" d="M40,49c-1.84,0-3.27-2.65-3.27-6s1.43-6,3.27-6,3.27,2.65,3.27,6S41.83,49,40,49Zm0-11.31c-1.37,0-2.52,2.42-2.52,5.28s1.15,5.28,2.52,5.28,2.52-2.42,2.52-5.28S41.36,37.65,40,37.65Z"/><rect class="cls-2" x="39.62" y="37.27" width="0.75" height="11.32"/><rect class="cls-2" x="34.34" y="42.55" width="11.32" height="0.75"/></g></g></svg>