<svg xmlns="http://www.w3.org/2000/svg" viewBox="0 0 17.43 29.78"><defs><style>.cls-1{fill:#3864a9;}</style></defs><title>Recurso 297</title><g id="Capa_2" data-name="Capa 2"><g id="PC"><path class="cls-1" d="M14,27.32H3.48A3.48,3.48,0,0,1,0,23.84v-15A3.49,3.49,0,0,1,3.48,5.33H14a3.49,3.49,0,0,1,3.48,3.49v15A3.48,3.48,0,0,1,14,27.32ZM3.48,6.06A2.76,2.76,0,0,0,.72,8.82v15A2.77,2.77,0,0,0,3.48,26.6H14a2.77,2.77,0,0,0,2.76-2.76v-15A2.76,2.76,0,0,0,14,6.06Z"/><path class="cls-1" d="M11.75,6.08H5.68V0h6.07ZM6.44,5.32H11V.76H6.44Z"/><rect class="cls-1" x="3.21" y="26.96" width="1.9" height="2.66"/><path class="cls-1" d="M5.27,29.78H3.05v-3H5.27Zm-1.9-.32H5V27.12H3.37Z"/><rect class="cls-1" x="12.32" y="26.96" width="1.9" height="2.66"/><path class="cls-1" d="M14.38,29.78H12.16v-3h2.22Zm-1.9-.32h1.58V27.12H12.48Z"/><rect class="cls-1" x="5.68" width="6.08" height="1.52"/><path class="cls-1" d="M8.71,24.85a6,6,0,1,1,6-6A6,6,0,0,1,8.71,24.85Zm0-11.32A5.29,5.29,0,1,0,14,18.82,5.29,5.29,0,0,0,8.71,13.53Z"/><path class="cls-1" d="M8.71,24.85c-1.83,0-3.27-2.65-3.27-6s1.44-6,3.27-6,3.28,2.65,3.28,6S10.55,24.85,8.71,24.85Zm0-11.32c-1.36,0-2.52,2.42-2.52,5.29S7.35,24.1,8.71,24.1s2.53-2.42,2.53-5.28S10.08,13.53,8.71,13.53Z"/><rect class="cls-1" x="8.34" y="13.16" width="0.75" height="11.32"/><rect class="cls-1" x="3.06" y="18.44" width="11.32" height="0.75"/></g></g></svg>