<svg xmlns="http://www.w3.org/2000/svg" viewBox="0 0 81 81"><defs><style>.cls-1{fill:#fff;}.cls-2{fill:#3864a9;}</style></defs><title>Recurso 81</title><g id="Capa_2" data-name="Capa 2"><g id="Capa_1-2" data-name="Capa 1"><path class="cls-1" d="M40.61,80.75a124.33,124.33,0,0,1-21.86-1.94A20.58,20.58,0,0,1,1.91,61.93,144.29,144.29,0,0,1,.25,39.63,125.48,125.48,0,0,1,1.94,19.38,20.77,20.77,0,0,1,18.4,2.44,120.55,120.55,0,0,1,41.86.25,104.58,104.58,0,0,1,62.5,2.38,20.79,20.79,0,0,1,79.16,19.5a120.8,120.8,0,0,1,1.59,19.83A150.31,150.31,0,0,1,79.2,61.78,20.64,20.64,0,0,1,62.15,78.86a124.74,124.74,0,0,1-20.59,1.89Z"/><path class="cls-1" d="M41.86.5A104.94,104.94,0,0,1,62.45,2.62,20.48,20.48,0,0,1,78.91,19.54,120.48,120.48,0,0,1,80.5,39.33,149,149,0,0,1,79,61.74,20.41,20.41,0,0,1,62.1,78.62,124.26,124.26,0,0,1,41.56,80.5h-1A123.24,123.24,0,0,1,18.8,78.56,20.34,20.34,0,0,1,2.15,61.9,145.93,145.93,0,0,1,.5,39.63,126.3,126.3,0,0,1,2.19,19.42,20.41,20.41,0,0,1,18.45,2.69,119.66,119.66,0,0,1,41.86.5m0-.5A120.2,120.2,0,0,0,18.35,2.2,21,21,0,0,0,1.69,19.34,126,126,0,0,0,0,39.63,143.67,143.67,0,0,0,1.66,62,20.81,20.81,0,0,0,18.71,79.05a124.7,124.7,0,0,0,21.9,2h1a125.12,125.12,0,0,0,20.63-1.89,20.87,20.87,0,0,0,17.25-17.3A149.26,149.26,0,0,0,81,39.33a122.37,122.37,0,0,0-1.59-19.87A21.06,21.06,0,0,0,62.55,2.13,105.14,105.14,0,0,0,41.86,0Z"/><path class="cls-1" d="M45.73,51.93H35.27a3.49,3.49,0,0,1-3.49-3.48v-15A3.49,3.49,0,0,1,35.27,30H45.73a3.48,3.48,0,0,1,3.48,3.48v15A3.48,3.48,0,0,1,45.73,51.93ZM35.27,30.67a2.76,2.76,0,0,0-2.76,2.76v15a2.76,2.76,0,0,0,2.76,2.76H45.73a2.77,2.77,0,0,0,2.76-2.76v-15a2.77,2.77,0,0,0-2.76-2.76Z"/><path class="cls-1" d="M43.54,30.69H37.46V24.61h6.08Zm-5.32-.76h4.56V25.37H38.22Z"/><rect class="cls-1" x="34.99" y="51.57" width="1.9" height="2.66"/><path class="cls-1" d="M37.05,54.39H34.83v-3h2.22Zm-1.9-.32h1.58V51.73H35.15Z"/><rect class="cls-1" x="44.1" y="51.57" width="1.9" height="2.66"/><path class="cls-1" d="M46.16,54.39H43.94v-3h2.22Zm-1.9-.32h1.58V51.73H44.26Z"/><rect class="cls-1" x="37.46" y="24.61" width="6.08" height="1.52"/><path class="cls-1" d="M40.5,49.46a6,6,0,1,1,6-6A6,6,0,0,1,40.5,49.46Zm0-11.31a5.28,5.28,0,1,0,5.28,5.28A5.29,5.29,0,0,0,40.5,38.15Z"/><path class="cls-1" d="M40.5,49.46c-1.84,0-3.27-2.65-3.27-6s1.43-6,3.27-6,3.27,2.65,3.27,6S42.33,49.46,40.5,49.46Zm0-11.31c-1.37,0-2.52,2.42-2.52,5.28s1.15,5.28,2.52,5.28S43,46.29,43,43.43,41.86,38.15,40.5,38.15Z"/><rect class="cls-1" x="40.12" y="37.77" width="0.75" height="11.32"/><rect class="cls-1" x="34.84" y="43.05" width="11.32" height="0.75"/><path class="cls-1" d="M40.61,80.75a124.33,124.33,0,0,1-21.86-1.94A20.58,20.58,0,0,1,1.91,61.93,144.29,144.29,0,0,1,.25,39.63,125.48,125.48,0,0,1,1.94,19.38,20.77,20.77,0,0,1,18.4,2.44,120.55,120.55,0,0,1,41.86.25,104.58,104.58,0,0,1,62.5,2.38,20.79,20.79,0,0,1,79.16,19.5a120.8,120.8,0,0,1,1.59,19.83A150.31,150.31,0,0,1,79.2,61.78,20.64,20.64,0,0,1,62.15,78.86a124.74,124.74,0,0,1-20.59,1.89Z"/><path class="cls-2" d="M41.86.5A104.94,104.94,0,0,1,62.45,2.62,20.48,20.48,0,0,1,78.91,19.54,120.48,120.48,0,0,1,80.5,39.33,149,149,0,0,1,79,61.74,20.41,20.41,0,0,1,62.1,78.62,124.26,124.26,0,0,1,41.56,80.5h-1A123.24,123.24,0,0,1,18.8,78.56,20.34,20.34,0,0,1,2.15,61.9,145.93,145.93,0,0,1,.5,39.63,126.3,126.3,0,0,1,2.19,19.42,20.41,20.41,0,0,1,18.45,2.69,119.66,119.66,0,0,1,41.86.5m0-.5A120.2,120.2,0,0,0,18.35,2.2,21,21,0,0,0,1.69,19.34,126,126,0,0,0,0,39.63,143.67,143.67,0,0,0,1.66,62,20.81,20.81,0,0,0,18.71,79.05a124.7,124.7,0,0,0,21.9,2h1a125.12,125.12,0,0,0,20.63-1.89,20.87,20.87,0,0,0,17.25-17.3A149.26,149.26,0,0,0,81,39.33a122.37,122.37,0,0,0-1.59-19.87A21.06,21.06,0,0,0,62.55,2.13,105.14,105.14,0,0,0,41.86,0Z"/><path class="cls-2" d="M45.73,51.93H35.27a3.49,3.49,0,0,1-3.49-3.48v-15A3.49,3.49,0,0,1,35.27,30H45.73a3.48,3.48,0,0,1,3.48,3.48v15A3.48,3.48,0,0,1,45.73,51.93ZM35.27,30.67a2.76,2.76,0,0,0-2.76,2.76v15a2.76,2.76,0,0,0,2.76,2.76H45.73a2.77,2.77,0,0,0,2.76-2.76v-15a2.77,2.77,0,0,0-2.76-2.76Z"/><path class="cls-2" d="M43.54,30.69H37.46V24.61h6.08Zm-5.32-.76h4.56V25.37H38.22Z"/><rect class="cls-2" x="34.99" y="51.57" width="1.9" height="2.66"/><path class="cls-2" d="M37.05,54.39H34.83v-3h2.22Zm-1.9-.32h1.58V51.73H35.15Z"/><rect class="cls-2" x="44.1" y="51.57" width="1.9" height="2.66"/><path class="cls-2" d="M46.16,54.39H43.94v-3h2.22Zm-1.9-.32h1.58V51.73H44.26Z"/><rect class="cls-2" x="37.46" y="24.61" width="6.08" height="1.52"/><path class="cls-2" d="M40.5,49.46a6,6,0,1,1,6-6A6,6,0,0,1,40.5,49.46Zm0-11.31a5.28,5.28,0,1,0,5.28,5.28A5.29,5.29,0,0,0,40.5,38.15Z"/><path class="cls-2" d="M40.5,49.46c-1.84,0-3.27-2.65-3.27-6s1.43-6,3.27-6,3.27,2.65,3.27,6S42.33,49.46,40.5,49.46Zm0-11.31c-1.37,0-2.52,2.42-2.52,5.28s1.15,5.28,2.52,5.28S43,46.29,43,43.43,41.86,38.15,40.5,38.15Z"/><rect class="cls-2" x="40.12" y="37.77" width="0.75" height="11.32"/><rect class="cls-2" x="34.84" y="43.05" width="11.32" height="0.75"/></g></g></svg>