<svg xmlns="http://www.w3.org/2000/svg" viewBox="0 0 41.74 41.74"><defs><style>.cls-1,.cls-2,.cls-3,.cls-4,.cls-5{fill:#e8921f;}.cls-2,.cls-3,.cls-4,.cls-5{stroke:#fff;stroke-width:0.74px;}.cls-2,.cls-3,.cls-5{stroke-linecap:round;}.cls-2,.cls-3{stroke-linejoin:round;}.cls-2,.cls-4{fill-rule:evenodd;}.cls-4,.cls-5{stroke-miterlimit:22.93;}</style></defs><title>Recurso 12</title><g id="Capa_2" data-name="Capa 2"><g id="Capa_1-2" data-name="Capa 1"><rect class="cls-1" width="41.74" height="41.74" rx="20.87"/><path class="cls-2" d="M27.33,15.62l-13.28,0a1.17,1.17,0,0,1-1.33-1.34V26.76a1.94,1.94,0,0,0,1.84,1.85H27.74a2,2,0,0,0,1.85-1.85V17.87A2,2,0,0,0,27.33,15.62Z"/><path class="cls-2" d="M13.83,13.13a1.11,1.11,0,0,0-1.11,1.11h0"/><line class="cls-3" x1="14.07" y1="13.13" x2="27.82" y2="13.13"/><path class="cls-2" d="M26.67,20.32h3.75V23.9H26.67a1.79,1.79,0,0,1-1.79-1.79h0A1.79,1.79,0,0,1,26.67,20.32Z"/><path class="cls-4" d="M26.65,21.52a.59.59,0,1,1-.59.59A.59.59,0,0,1,26.65,21.52Z"/><line class="cls-5" x1="28.93" y1="16.12" x2="28.93" y2="14.24"/><path class="cls-2" d="M27.82,13.13a1.11,1.11,0,0,1,1.11,1.11h0"/></g></g></svg>