<svg xmlns="http://www.w3.org/2000/svg" viewBox="0 0 18.14 30.04"><defs><style>.cls-1{fill:#f3ca30;}.cls-2{font-size:13.82px;font-family:Montserrat-Bold, Montserrat;font-weight:700;}.cls-2,.cls-3{fill:#fff;}.cls-3{fill-rule:evenodd;}</style></defs><title>Recurso 28</title><g id="Capa_2" data-name="Capa 2"><g id="Capa_1-2" data-name="Capa 1"><rect class="cls-1" y="8.61" width="18.14" height="21.22" rx="2.56"/><text class="cls-2" transform="translate(4.98 26.36)">3</text><path class="cls-3" d="M13.17,14.47a.89.89,0,0,1-.45-.12l-3.65-2.1-3.65,2.1a.89.89,0,0,1-.45.12.91.91,0,0,1-.7-.34.87.87,0,0,1-.16-.76l.95-3.9L1.89,6.85A.91.91,0,0,1,1.6,5.9a.89.89,0,0,1,.78-.62L6.6,4.93,8.25,1.22A.91.91,0,0,1,9.07.69a.89.89,0,0,1,.81.53l1.66,3.71,4.22.35a.89.89,0,0,1,.78.62.91.91,0,0,1-.29.95L13.08,9.47l.95,3.9a.87.87,0,0,1-.16.76A.91.91,0,0,1,13.17,14.47Z"/><path class="cls-1" d="M9.07,1.38a.19.19,0,0,1,.18.12l1.77,4a.21.21,0,0,0,.17.12L15.7,6a.2.2,0,0,1,.11.36L12.4,9.13a.21.21,0,0,0-.07.21l1,4.19a.2.2,0,0,1-.19.25.17.17,0,0,1-.1,0l-3.9-2.24a.19.19,0,0,0-.1,0,.17.17,0,0,0-.1,0l-3.9,2.24a.17.17,0,0,1-.1,0,.2.2,0,0,1-.19-.25l1-4.19a.23.23,0,0,0-.07-.21L2.33,6.32A.2.2,0,0,1,2.44,6L7,5.6a.21.21,0,0,0,.17-.12l1.77-4a.19.19,0,0,1,.18-.12M9.07,0A1.59,1.59,0,0,0,7.62.94L6.14,4.28l-3.81.31a1.57,1.57,0,0,0-.88,2.79L4.29,9.73,3.44,13.2a1.57,1.57,0,0,0,1.53,2A1.56,1.56,0,0,0,5.76,15l3.31-1.9L12.38,15a1.56,1.56,0,0,0,.79.21,1.57,1.57,0,0,0,1.53-2l-.85-3.47,2.84-2.35a1.58,1.58,0,0,0-.88-2.79L12,4.28,10.51.94A1.58,1.58,0,0,0,9.07,0Z"/></g></g></svg>