<svg xmlns="http://www.w3.org/2000/svg" viewBox="0 0 36.73 17.49"><defs><style>.cls-1{fill:none;stroke:#3864a9;stroke-linejoin:round;}</style></defs><title>Recurso 299</title><g id="Capa_2" data-name="Capa 2"><g id="PC"><ellipse class="cls-1" cx="6.77" cy="13.74" rx="3.28" ry="3.25"/><ellipse class="cls-1" cx="30.08" cy="13.74" rx="3.28" ry="3.25"/><path class="cls-1" d="M33.35,13.74H34a2.32,2.32,0,0,0,1.85-.92,2.18,2.18,0,0,0,.39-1.53,4.53,4.53,0,0,0-3.34-4.17L27.61,5.53a2.58,2.58,0,0,1-.55-.32c-1-1-5-4.71-6.34-4.71H6.14a4.59,4.59,0,0,0-2.56.79,4.51,4.51,0,0,0-1.64,2.1L1.46,4.67A15.37,15.37,0,0,0,.5,10v2.39a1.36,1.36,0,0,0,1.37,1.35H3.33"/><line class="cls-1" x1="10.05" y1="13.74" x2="26.79" y2="13.74"/><path class="cls-1" d="M27.29,5.43c-2.4-.17-12.81-.78-18.36-1.3-.77-.08-.7-2.22-.77-3.63"/></g></g></svg>