<svg xmlns="http://www.w3.org/2000/svg" viewBox="0 0 34.43 18.05"><defs><style>.cls-1,.cls-2{fill:none;stroke:#3864a9;stroke-linejoin:round;}.cls-1{fill-rule:evenodd;}</style></defs><title>Recurso 298</title><g id="Capa_2" data-name="Capa 2"><g id="PC"><path class="cls-1" d="M4.65,15.31H2.15a1.66,1.66,0,0,1-1.06-.38"/><path class="cls-1" d="M1.09,14.93A1.67,1.67,0,0,1,.5,13.66V2.15A1.65,1.65,0,0,1,2.15.5h24c3.39,0,5.65,1.7,6.41,5.56.42,2.15,3,9.25-.15,9.25H28.09"/><path class="cls-1" d="M23.49,15.31H9.21"/><path class="cls-1" d="M6.86,17.55a2.24,2.24,0,1,0-2.24-2.24A2.24,2.24,0,0,0,6.86,17.55Z"/><circle class="cls-2" cx="25.78" cy="15.31" r="2.24"/><rect class="cls-2" x="4.08" y="0.5" width="4.83" height="4.83"/><rect class="cls-2" x="8.91" y="0.5" width="4.83" height="4.83"/><rect class="cls-2" x="13.73" y="0.5" width="4.83" height="4.83"/><rect class="cls-2" x="18.56" y="0.5" width="4.83" height="4.83"/><path class="cls-1" d="M23,5.33h2.14a2.9,2.9,0,0,1,2.76,1.94,7.14,7.14,0,0,0,5.95,4.34"/><path class="cls-1" d="M29,2.72a4.56,4.56,0,0,1,1.83,2.74"/><path class="cls-1" d="M31.44,11s-.31,1.49.33,2a4.68,4.68,0,0,0,2.15.48"/></g></g></svg>