<svg xmlns="http://www.w3.org/2000/svg" viewBox="0 0 80 80"><defs><style>.cls-1{fill:#3864a9;}.cls-2,.cls-3{fill:none;stroke:#fff;stroke-linejoin:round;}.cls-2{fill-rule:evenodd;}</style></defs><title>Recurso 75</title><g id="Capa_2" data-name="Capa 2"><g id="Capa_1-2" data-name="Capa 1"><path class="cls-1" d="M78.45,61.24A20.41,20.41,0,0,1,61.6,78.12,124.26,124.26,0,0,1,41.06,80,124,124,0,0,1,18.3,78.06,20.34,20.34,0,0,1,1.65,61.4,145.93,145.93,0,0,1,0,39.13,126.3,126.3,0,0,1,1.69,18.92,20.41,20.41,0,0,1,18,2.19,119.66,119.66,0,0,1,41.36,0,104.94,104.94,0,0,1,62,2.12,20.48,20.48,0,0,1,78.41,19,120.7,120.7,0,0,1,80,38.83,149,149,0,0,1,78.45,61.24Z"/><path class="cls-2" d="M27.43,46.28h-2.5a1.66,1.66,0,0,1-1.06-.38"/><path class="cls-2" d="M23.87,45.9a1.65,1.65,0,0,1-.59-1.26V33.12a1.65,1.65,0,0,1,1.65-1.65h24c3.39,0,5.64,1.7,6.4,5.57.42,2.14,3,9.24-.15,9.24H50.87"/><path class="cls-2" d="M46.27,46.28H32"/><path class="cls-2" d="M29.64,48.53a2.25,2.25,0,1,0-2.24-2.25A2.24,2.24,0,0,0,29.64,48.53Z"/><circle class="cls-3" cx="48.57" cy="46.28" r="2.24"/><rect class="cls-3" x="26.87" y="31.47" width="4.83" height="4.83"/><rect class="cls-3" x="31.69" y="31.47" width="4.83" height="4.83"/><rect class="cls-3" x="36.52" y="31.47" width="4.83" height="4.83"/><rect class="cls-3" x="41.34" y="31.47" width="4.83" height="4.83"/><path class="cls-2" d="M45.75,36.3h2.14a2.9,2.9,0,0,1,2.76,1.94,7.14,7.14,0,0,0,6,4.35"/><path class="cls-2" d="M51.78,33.69a4.64,4.64,0,0,1,1.83,2.74"/><path class="cls-2" d="M54.22,42s-.31,1.48.33,2a4.55,4.55,0,0,0,2.15.48"/></g></g></svg>