<svg xmlns="http://www.w3.org/2000/svg" viewBox="0 0 365.29 364.88"><defs><style>.cls-1{isolation:isolate;}.cls-2{opacity:0.6;}.cls-3{fill:#d7def2;}.cls-4{fill:#d3ad88;mix-blend-mode:multiply;}.cls-5{fill:#232230;}.cls-6{fill:none;stroke:#232230;stroke-linecap:round;stroke-linejoin:round;stroke-width:0.92px;}</style></defs><title>Recurso 10</title><g class="cls-1"><g id="Capa_2" data-name="Capa 2"><g id="Capa_1-2" data-name="Capa 1"><g class="cls-2"><path class="cls-3" d="M70.73,98.06c-16.74,11-40,36.81-44.82,49.72-6.75,18.25-5.2,34.23,2,51.28,14.53,34.36,42.56,62.42,74.12,63.52,20.14.7,52.41-24.62,55.22-28.19,37.48-47.59,17.61-90.34-14-127.8C134.17,88.15,76.79,94.07,70.73,98.06Z"/><path class="cls-4" d="M157.27,79c25.5,20.88,67.72-41.94,21.36-58.19-9.36-3.27-42.23,1.67-37.66,31.42C143.6,69.37,147.54,71,157.27,79Z"/><path class="cls-3" d="M258,164.09c-.21.6,0,6.71,3.42,13,2.46,4.53,12.05,6.69,17.29,1.13,1.07-1.13,1.87-3.08,2.39-5.92.27-1.48,2.36-6.38,1.08-9.28C277.47,152.31,261.3,154.78,258,164.09Z"/><path class="cls-5" d="M112.58,106.35h0a.36.36,0,0,1-.31-.32c-.93-9.15-5.17-11.5-15.43-17.18-1-.56-2.11-1.16-3.25-1.81-8.14-4.56-10.18-10.88-9.37-15.28,1.16-6.3,4.56-9.3,7.85-12.19,2.63-2.31,5.11-4.5,6.11-8.24a.36.36,0,0,1,.71.08c0,.88,0,1.67.06,2.38a35.33,35.33,0,0,0,.29,4.71,24.36,24.36,0,0,1,2.87-8.55c4.3-7.66,11.21-10,17.3-12.07,4.64-1.58,9-3.06,11.63-6.67a.36.36,0,0,1,.3-.15.38.38,0,0,1,.29.15,4.07,4.07,0,0,1,.57,3.12,15.58,15.58,0,0,1,7.31-2.09c2.38.09,4.19,1.13,6.11,2.24,2.7,1.55,5.49,3.16,10.36,2.57,3.82-.46,6.74-1.86,8.43-4.07a.36.36,0,0,1,.64.14,7.1,7.1,0,0,1,0,3.38,27.57,27.57,0,0,1,5.55-.64h.72c9.83,0,16.67,3.16,22.73,6,5.85,2.7,10.91,5,17,3.44a.38.38,0,0,1,.43.21.36.36,0,0,1-.15.45c-10.57,6.15-22.51,6.35-33,6.53-7.78.12-15.14.25-21,2.68-27.79,11.49-40.2,39.49-44.24,51A.36.36,0,0,1,112.58,106.35Zm-14.41-53c-1.27,2.85-3.42,4.75-5.67,6.73-3.2,2.81-6.51,5.72-7.62,11.78-.76,4.15,1.2,10.15,9,14.53,1.14.64,2.22,1.24,3.25,1.8,9.92,5.49,14.34,7.94,15.61,16.24a104.37,104.37,0,0,1,11.82-23c8.78-12.71,19.66-21.81,32.32-27,6-2.48,13.42-2.6,21.28-2.73,9.78-.17,20.78-.35,30.67-5.33-5.31.62-9.92-1.51-15.16-3.93-6.13-2.83-13.09-6-23.14-5.88a26.14,26.14,0,0,0-5.83.71c-1.36,3.15-5.32,4.87-9.19,6.54l-1.2.52a13.75,13.75,0,0,0-1.19,2.58c-1.55,4.63-4.69,9.18-7,10.13a1.9,1.9,0,0,1-1.58,0,2,2,0,0,1-1.06-1.46c-.39-2,1.35-5.33,3.19-7.39s4.39-3.25,7.13-4.46a15.11,15.11,0,0,1,5.63-5.22,20.47,20.47,0,0,1,4.69-1.85,5.71,5.71,0,0,0,.27-2.68c-1.86,2-4.74,3.3-8.4,3.74-5.11.61-8.14-1.13-10.81-2.67C143.37,34,141.63,33,139.44,33A15.65,15.65,0,0,0,132,35.26,34.35,34.35,0,0,1,130,40.12c-1.75,3.88-3.92,8.7-3.37,13.93.21,1.77.44,3.38.64,4.81.65,4.62,1.05,7.42,0,8.61a2,2,0,0,1-1.57.6c-1,0-2.2-.83-3.25-2.3-2.35-3.28-4.19-9.87-1.66-17.65a23.8,23.8,0,0,1,9.23-12.53c.43-.29.85-.56,1.27-.81a4.29,4.29,0,0,0-.09-2.72c-2.76,3.48-7.08,4.94-11.65,6.49-6.26,2.12-12.73,4.32-16.9,11.74a24.13,24.13,0,0,0-3,10.36A35.45,35.45,0,0,0,102,66.1a50.91,50.91,0,0,0,5.51,8.13c3,3.9,5.4,7,4,9a1.94,1.94,0,0,1-2,.79c-3-.5-7.55-6.2-8.68-9.93A38,38,0,0,1,99,60.75a24.12,24.12,0,0,1-.78-7Zm1.45,9.27a39.07,39.07,0,0,0,1.82,11.22c1.06,3.51,5.43,9,8.11,9.43a1.26,1.26,0,0,0,1.32-.5c1.13-1.57-1.22-4.6-3.94-8.11a52,52,0,0,1-5.59-8.26C100.61,64.94,100.05,63.72,99.62,62.64ZM131,35.81l-.57.37a23.08,23.08,0,0,0-9,12.16c-2.46,7.53-.7,13.87,1.55,17,.9,1.25,1.9,2,2.68,2a1.22,1.22,0,0,0,1-.36c.83-.94.43-3.76-.17-8-.2-1.43-.43-3.05-.65-4.83-.57-5.42,1.65-10.35,3.43-14.3C130,38.35,130.65,37,131,35.81Zm22.2,9a17.94,17.94,0,0,0-6,3.88c-2,2.23-3.32,5.2-3,6.77a1.25,1.25,0,0,0,.67,1,1.16,1.16,0,0,0,1,0c2.09-.87,5.1-5.3,6.57-9.69A13.31,13.31,0,0,1,153.24,44.83Zm10.53-7.3a16.24,16.24,0,0,0-8.71,5.7l.17-.07C158.85,41.59,162.33,40.09,163.77,37.53Z"/><path class="cls-5" d="M246.61,155.46c-.5-4.93-8.64-7.38-11.13-8a39.34,39.34,0,0,0-4.41-.67c-3.79-.45-9-1.07-9.49-2.92a.64.64,0,0,1,.21-.63c.89-.95,3.83-1.52,8.39-.62a21.31,21.31,0,0,1,10.71,5.63,14.42,14.42,0,0,0,3.44,2.47.35.35,0,0,0,.42-.09.38.38,0,0,0,0-.43c-1.27-2-.49-4.67.42-7.82,1.23-4.32,2.64-9.22-.42-14.17a10.11,10.11,0,0,0-7.44-4.67c.1-1.19.29-2.44.45-3.54a24.82,24.82,0,0,0,.37-3.24c0-3.41-1-6.69-6.16-12.49-2.78-3.13-7.07-4.75-12.82-4.84a11.89,11.89,0,0,0-1-2.76c.63-5.2-1.67-6.64-12.42-13.39-5.07-3.18-8.79-4.75-11.71-5-2.73-.18-4.58.79-6.73,2.08-3,1.8-5,6.13-6.74,9.94-1.95,4.19-3.79,8.14-6.31,7.6a2.13,2.13,0,0,1-1.76-1.52c-1-3.37,3.75-10.86,6.11-13.25l.37-.38c2.56-2.62,7.32-7.5,13.8-6a.36.36,0,0,0,.36-.57c-1.59-2.07-6.32-3.46-13.68-4a5.68,5.68,0,0,0-1.6.09.44.44,0,0,0,.06-.16.36.36,0,0,0-.26-.39c-9-2.54-15.57-.32-19.08,6.42-2.24,4.31-3.39,13.29-1.34,20.3a30.27,30.27,0,0,0,7.51,12.46,33.71,33.71,0,0,1-4.47-2.39,31,31,0,0,1-4.41-3.76c-3.77-3.63-7.66-7.39-16.14-6.56-8.2.8-9.48,4.37-11.4,9.78a39.58,39.58,0,0,1-8,14.3c-1.92,2.2-2.24,5.07-2,7.82a6.7,6.7,0,0,0-1,1.28c-.92,1.62-.82,6,.46,7.41a1.27,1.27,0,0,0,1.57.33c1.08-.5.76-2.31.32-4.8-.21-1.2-.45-2.55-.57-3.94,1.86-1.74,5.41-3.91,9-3.95a22.59,22.59,0,0,0-5.06,7.41c-4,9.44-5.58,22.59-4.58,37q.08,1.14.18,2.28c-3.63-8.64-6.52-17.54-7.41-25.66-1.18-10.85-.27-39.88,10.15-55.5,13.43-20.13,26-31.82,37.31-34.75,8.61-2.22,15-2.29,21.88-2.36A124.71,124.71,0,0,0,195.35,54c2.77-.34,7.29-2.65,12.08-5.1a90.92,90.92,0,0,1,10.38-4.82,5.75,5.75,0,0,0,2.39,1.38c2.1.56,3.38-.3,3.69-1a.8.8,0,0,0-.19-1c-1-1.22-3.06-1.09-5.72-.23l-.58-.59a8.07,8.07,0,0,0-2.48-2,9.65,9.65,0,0,0-2.3-.68c-1.91-.4-3.42-.71-5.55-5.24a10.88,10.88,0,0,1-.53-2.09c-.77-3.84-2.2-11-9.72-14.25a.34.34,0,0,0-.34,0c-1.75,1.13-4.61,1.48-8.07,1.59A25.57,25.57,0,0,0,178,8a28.4,28.4,0,0,0-17.64-4.3c-9.31,1.1-15.68,8.19-20.81,13.89l-1.41,1.56a37.73,37.73,0,0,0-2.94,4.16c-1,1.48-2,3-2.83,4.11-1.3,1.65-1.68,1.51-1.7,1.5a.92.92,0,0,1-.59-.69c-.42-1.54,1.43-5.23,4.94-9.86,3.78-5,17.21-15.24,23.27-16.17a.37.37,0,0,0,.07-.7c-7.52-2.94-16-1-21.71,1.18-6.8,2.57-12.44,6.41-14.5,8.89-3.39,4.1-5.2,9.56-6.66,14-1.22,3.68-2.28,6.86-3.74,7.36-.67.23-1,0-1.12-.26-1.12-1.56.13-7.64,2.73-11,1.74-2.26,2.12-5.64,2.38-8.43a6.38,6.38,0,0,0,2.65-3.56,1.11,1.11,0,0,0-.5-1.15,1.51,1.51,0,0,0-1.51-.23c-.94.46-1.1,2.17-1.32,4.54a5.1,5.1,0,0,1-1.17.58c-2.24.74-9,4-11.62,9.34-1.38.8-2.72,1.55-3.77,2.14-.75.42-1.35.76-1.7,1A27.45,27.45,0,0,0,88,34.13,25.5,25.5,0,0,0,83.71,46C82.94,54.69,91.19,72,97,78.69c1.3,1.49,2.76,3,4.32,4.57,4.22,4.3,8.59,8.75,9.27,13.15.29,1.91-.43,5.94-1.34,11-1.63,9.11-3.87,21.59-3.12,35.12.58,10.42,3.53,30.21,7.59,40.25h0c-3.3-4.06-9.17-8.21-14.89-12.25-7.07-5-13.75-9.73-12.9-12.74.67-2.37,2.65-3.55,5.15-5.06A25.71,25.71,0,0,0,98.33,147c6.41-7.78,1.76-16.38-.74-21a15.79,15.79,0,0,1-1.15-2.36C95.7,121,99,118.43,99,118.4a.35.35,0,0,0,.12-.39.34.34,0,0,0-.33-.25,14.19,14.19,0,0,0-6.26,1.43c-1.16-1.72-3.42-2.79-5.63-3.83-1.92-.92-3.92-1.86-5-3.19-.51-.59-1-1.25-1.53-1.88-2.17-2.74-4.42-5.57-6.71-5a.35.35,0,0,0-.24.2.34.34,0,0,0,0,.31,10.56,10.56,0,0,0,.87,1.38c1.08,1.49,2.3,3.19,2.21,11.08-.1,10.32-5.59,16-8.5,16.2a1.94,1.94,0,0,1-1.9-1.33c-.81-1.86-.19-5.13,3-8.23,3.57-3.43,5.42-7.1,5.5-10.89a12.06,12.06,0,0,0-2.53-7.6c-1.9-2.41-6-2.46-9.3-2.51a24,24,0,0,1-3.56-.21,25,25,0,0,1-3.11-.9c-2.45-.81-5-1.65-7-.71a.33.33,0,0,0-.2.24.38.38,0,0,0,.06.31c6.28,8,7.79,16.17,4.13,22.33a13.33,13.33,0,0,0-1.76,8.57c.06.82.12,1.53-.09,1.74s-.32.13-.65.1a2.75,2.75,0,0,1-2.26-1.19c-1.21-1.94.31-6,1.53-9.21a24.71,24.71,0,0,0,1.26-3.86c1.85-8.87-3.37-12.86-6.18-15-.64-.49-1.62-1.23-1.51-1.44a.39.39,0,0,0,0-.4.36.36,0,0,0-.38-.11c-9.09,2.84-13.9,7.28-16.06,10.32l-.29,0c-2.41-.29-5,2.9-7.22,5.71-.58.73-1.14,1.42-1.66,2a4.74,4.74,0,0,1-3.68,1.29c-1.05,0-2.14.09-2.25,1.14a.36.36,0,0,0,.06.25,10.1,10.1,0,0,0,6.34,4.29,10,10,0,0,1,4.45,2.25c2.36,2.2,3.16,4.65,2.9,6a1.08,1.08,0,0,1-.53.82c-1,.39-2.67-.78-4.46-3.13-2.16-2.82-4.37-3.24-5.85-3.1-2.89.29-5.15,2.82-5.89,4.34a7.28,7.28,0,0,0-.51,3.78,12.62,12.62,0,0,1-.05,2.29c-.44.27-.83.52-1.18.76l-.08.05c-1.88,1.24-2.32,4.83-2.72,8a28.87,28.87,0,0,1-.5,3.23c-.38.14-.76.25-1.1.35-1.22.37-2.28.68-2.32,1.75a1.17,1.17,0,0,0,.78,1.32c.92.25,2.15-.63,2.94-2.1a5.16,5.16,0,0,0,.3-.77,6.59,6.59,0,0,0,2.23-1.41h0l1.48-1.67c2.12-2.42,3.66-4.17,5.54-4.7a5,5,0,0,1,5.17,1.13,5,5,0,0,0,3,1.34l-.06.06a25.81,25.81,0,0,0-6.17.49C11,151.08,7,152.94,4.73,155.3a.34.34,0,0,0-.09.36.36.36,0,0,0,.28.24,21.51,21.51,0,0,0,7.88-.36,17.77,17.77,0,0,0,9.24-5.1,8.28,8.28,0,0,1,3,.69c1,.52.86,1.09.83,1.28-.56,2.8-3.92,3.08-7.48,3.39a25.16,25.16,0,0,0-5.33.82c-3.87,1.2-6.88,5.4-8.43,7.65a8.81,8.81,0,0,0-4.27,3.28,2.47,2.47,0,0,0,.22,2.83,2.55,2.55,0,0,0,2.51,1.15.35.35,0,0,0,.26-.36,2.08,2.08,0,0,1,1.59-2.26,4.48,4.48,0,0,1,2.49,1c1.65,1.06,3.72,2.38,6.92,1.72,2.68-.55,6.34-2.92,9.88-5.2,3.81-2.45,7.74-5,9.51-4.55a1.1,1.1,0,0,1,.72.56s.07.2-.76.81-1.73,1.09-2.94,1.78c-2.68,1.53-6,3.43-8.27,5.83-6.27,6.68-5.65,12.59-3,15.89a16,16,0,0,0,5.68,3.9c.65,2,1.55,3.24,2.52,3.44.45.1,1.12,0,1.76-.93a.8.8,0,0,0,.12-.68c-.2-.7-1.33-1.22-3-2l-.76-.35c-.16-.56-.32-1.19-.45-1.89-1-5.7-.29-16.94,9.17-23C43.22,159.7,49,158.34,52,161.15l-.61.13-.16,0c-3.1-.35-7.21.57-11,2.45a22.93,22.93,0,0,0-9.82,8.91c-6,10.54-2.71,17.1-1.09,18.56a.37.37,0,0,0,.4.06.35.35,0,0,0,.2-.34,27.65,27.65,0,0,1,7.37-20.29A29,29,0,0,1,51.4,162c1.51.21,3.3.84,3.81,2.56.26.86-1.62,1.55-4,2.43-4.89,1.8-12.28,4.52-15.57,12.67-1.59,3.92-.66,7.89.09,11.08.53,2.25,1,4.2.3,5.28a.38.38,0,0,0,0,.42.36.36,0,0,0,.41.11c2.67-1,4.11-2.75,6.86-10.37a13.39,13.39,0,0,1,4.56-6.6c.17,3.15,1.77,5.42,3,7.23a7.06,7.06,0,0,1,1.44,2.69.36.36,0,0,0,.72,0c1-9.09,7.21-10.83,13.72-12.67a37.91,37.91,0,0,0,8.24-3c4.12-2.32,6.07-4.82,6.85-6.67a29.35,29.35,0,0,0,5.75,4c2.08,1.14,4.37,2.19,6.79,3.3,7.94,3.64,16.81,7.73,20.94,16.27l.8,0c-4.15-9-13.27-13.21-21.44-17-2.41-1.1-4.68-2.15-6.74-3.27a27,27,0,0,1-5.84-4.13,4.22,4.22,0,0,0,.18-1.16,1.34,1.34,0,0,0-.59-1.24.9.9,0,0,0-1,.13.86.86,0,0,0-.38.78,3.17,3.17,0,0,0,1,1.68c-.63,1.69-2.45,4.23-6.65,6.6a36.77,36.77,0,0,1-8.09,3c-3.37,1-6.57,1.86-9.16,3.75A12.32,12.32,0,0,0,52.57,188c-.29-.51-.67-1.05-1.07-1.62-1.26-1.81-2.87-4.1-2.9-7.32a22.75,22.75,0,0,1,3.45-1.68,24.61,24.61,0,0,0,2.25-1c3-1.6,5.74-3.36,6-5.37a2.79,2.79,0,0,0-1.06-2.43,2.9,2.9,0,0,0-2.79-.41c-3.09.79-7,4.28-7.92,7a12.56,12.56,0,0,0-.65,3.5,13.91,13.91,0,0,0-5.23,7.22c-2.47,6.86-3.83,8.67-5.64,9.6.3-1.27-.1-2.95-.57-5-.72-3.09-1.62-6.93-.13-10.64,3.18-7.85,10.39-10.51,15.16-12.27,2.95-1.09,4.9-1.8,4.44-3.31A4.22,4.22,0,0,0,53,161.63a.35.35,0,0,0,.08-.13.36.36,0,0,0-.06-.35c-3.16-3.73-9.33-2.57-18.86,3.53a20.88,20.88,0,0,0-8.73,11.62,26.36,26.36,0,0,0-.77,12.11c.09.47.19.93.3,1.36a14.38,14.38,0,0,1-4.85-3.44c-2.48-3.06-3-8.59,3-14.93,2.18-2.33,5.46-4.2,8.1-5.7,2.82-1.61,4.52-2.58,4-3.57a1.77,1.77,0,0,0-1.17-.9c-2.08-.52-6,2-10.08,4.63-3.48,2.25-7.09,4.58-9.64,5.1-2.91.6-4.84-.63-6.39-1.61a4.78,4.78,0,0,0-2.95-1.15,2.76,2.76,0,0,0-2.22,2.66A2.15,2.15,0,0,1,1.14,170a1.78,1.78,0,0,1-.17-2,7.25,7.25,0,0,1,3-2.57.07.07,0,0,1,0,.05.39.39,0,0,0,.19.23c3.5,1.75,10.06-.84,15.48-3.06,5-.31,7.47-.52,7.77-1.67a1,1,0,0,0-.23-1.1c-.82-.71-3.07.17-7.32,1.9l-.39.16c-4.32.27-9.62.61-13.68,2,1.61-2.26,4.25-5.53,7.46-6.52a24.54,24.54,0,0,1,5.17-.79c3.67-.32,7.46-.64,8.12-4a1.88,1.88,0,0,0-1.2-2.06,8.23,8.23,0,0,0-2.73-.72l.27-.34a.36.36,0,0,0,0-.41.36.36,0,0,0-.37-.17c-1.47.28-2.31-.37-3.29-1.12a5.64,5.64,0,0,0-5.8-1.25c-2.09.58-3.69,2.4-5.89,4.92-.47.52-.94,1.07-1.47,1.65a5.5,5.5,0,0,1-1.5,1c.16-.81.28-1.77.41-2.81.35-2.86.8-6.43,2.4-7.49l.07-.05.58-.38a5.72,5.72,0,0,1-.57,1.28.36.36,0,0,0,0,.42.36.36,0,0,0,.41.1c6.66-2.76,16.28-3.45,27.82-2,1.44.18,2.85.39,4.23.62,4.63,1.68,11,4.24,18.27,7.32,11.76,5,21.45,9.58,24.12,11.36a.36.36,0,0,0,.35,0,.38.38,0,0,0,.21-.29c.33-2.78-6.53-8.36-19.9-13.22a131.71,131.71,0,0,0-22.8-5.89A50.81,50.81,0,0,0,33.49,141c-14.67-2.76-21-.88-24.45,1a16.83,16.83,0,0,0,0-1.88,6.69,6.69,0,0,1,.43-3.43,7.53,7.53,0,0,1,5.32-3.94c1.88-.19,3.64.76,5.21,2.82,1.19,1.56,3.45,4.07,5.29,3.36a1.7,1.7,0,0,0,1-1.36c.3-1.58-.54-4.26-3.12-6.66a10.69,10.69,0,0,0-4.74-2.41,9.38,9.38,0,0,1-5.86-3.88c.11-.28.51-.35,1.54-.39a5.39,5.39,0,0,0,4.19-1.53c.54-.62,1.09-1.32,1.69-2.06,2.11-2.63,4.49-5.61,6.5-5.45a8.15,8.15,0,0,0-.93,1.88c-.17.58-.16,1,0,1.21a9.74,9.74,0,0,0,2.86,1.71c.72.36,1.57.78,2.56,1.3A26,26,0,0,1,31.7,125c.51,4.31,1.54,10,4.66,10h.21c1.07-.09,1.84-.92,2.17-2.34.66-2.85-.65-8.16-4.3-10.31-1-.61-2-1.14-2.84-1.6-.89-3.13-2.29-5.27-4-6,1.8-2.46,6.08-6.81,15.1-9.72a5.56,5.56,0,0,0,1.76,1.69c2.67,2,7.66,5.86,5.9,14.29a26.33,26.33,0,0,1-1.22,3.75c-1.28,3.38-2.86,7.59-1.47,9.84a3.49,3.49,0,0,0,2.8,1.53,1.47,1.47,0,0,0,1.22-.3c.46-.45.39-1.23.3-2.31a12.51,12.51,0,0,1,1.67-8.15C57.44,119,56,110.71,49.8,102.56c1.74-.54,3.94.19,6.07.9a24.41,24.41,0,0,0,3.21.92,23.1,23.1,0,0,0,3.68.23c3.14,0,7.05.1,8.74,2.24A11.27,11.27,0,0,1,73.88,114c-.07,3.6-1.85,7.09-5.28,10.39s-4.11,6.94-3.2,9A2.67,2.67,0,0,0,68,135.17c3.23-.19,9.06-6,9.17-16.91.09-8.13-1.2-9.93-2.34-11.51-.2-.27-.38-.53-.56-.82,1.73.07,3.63,2.47,5.48,4.8.51.64,1,1.3,1.55,1.9,1.24,1.45,3.3,2.43,5.29,3.38,2.19,1,4.28,2,5.33,3.55a6.85,6.85,0,0,0-1.18,1,6.14,6.14,0,0,0-1.61,4.85c.12,1.71.18,3.25.19,4.62-1.14,1.34-2.42,2.58-3.6,3.72-2.51,2.41-4.49,4.32-4.21,6.18.16,1,1,1.86,2.48,2.62a2.79,2.79,0,0,0,3-.07c2-1.36,3.1-5.61,3.09-12.18,2.33-2.79,4-6.06,3.06-10v0a4.89,4.89,0,0,0-.19-.46,12.92,12.92,0,0,1,4.91-1.3c-1,1-2.69,3.09-2.06,5.27A16.55,16.55,0,0,0,97,126.3c2.42,4.47,6.92,12.79.81,20.19a25.21,25.21,0,0,1-7.07,5.66c-2.53,1.52-4.72,2.83-5.47,5.48-1,3.5,5.58,8.14,13.18,13.52,6.88,4.87,14.69,10.39,16.75,15.3a.35.35,0,0,0,.46.2.36.36,0,0,0,.2-.47l-1.44-3.64c-4-10-7-29.65-7.54-40-.74-13.45,1.48-25.88,3.11-35,1-5.37,1.65-9.24,1.34-11.27-.72-4.63-5.17-9.16-9.47-13.54-1.54-1.58-3-3.06-4.28-4.54C92,71.77,83.68,54.44,84.43,46.07A26.35,26.35,0,0,1,97.18,26.42c.34-.21.94-.54,1.69-1l2.94-1.67a50.32,50.32,0,0,0-2.18,10.1l-.54.65a35.13,35.13,0,0,0-2.41,3c-2,2.83-3.41,7.06-2.35,9a2,2,0,0,0,2,1c2.24-.11,2.89-5,3.72-11.19.09-.7.19-1.42.29-2.14,2.46-2.93,5.46-6.83,9.08-15.42a.36.36,0,0,0-.59-.38A33.7,33.7,0,0,1,103.5,22c2.81-4.51,8.61-7.27,10.63-7.94a5.22,5.22,0,0,0,.85-.37c-.26,2.58-.67,5.55-2.18,7.5-2.67,3.47-4.16,9.91-2.74,11.88a1.58,1.58,0,0,0,1.94.52c1.79-.62,2.85-3.8,4.18-7.82,1.44-4.33,3.23-9.73,6.54-13.72C126.43,7.55,143.61-2.52,157,1.75c-6.7,1.93-18.8,11.3-22.49,16.18-2.17,2.86-5.72,8-5.07,10.48a1.72,1.72,0,0,0,1,1.17c1.18.5,2.83-1.91,5.41-5.88a37.31,37.31,0,0,1,2.87-4.07l1.42-1.57c5-5.61,11.32-12.58,20.36-13.66,10-1.19,22.64,4.9,27.17,15.7-1.32,0-2.72,0-4.17,0-6.72,0-14.35,0-20.83,2.69-5.39,2.24-13.14,7.31-13.5,10.48a1.68,1.68,0,0,0,.75,1.65c2.1,1.51,3.55.34,6.17-1.78A50.76,50.76,0,0,1,167.29,26c7.11-3.33,15.34-2.32,19.77-1.78.93.12,1.66.21,2.16.23a.38.38,0,0,0,.29-.13.39.39,0,0,0,.08-.31,24.07,24.07,0,0,0-.91-3.22c3.36-.11,6.18-.48,8-1.59,7,3.16,8.4,10,9.13,13.65a11.58,11.58,0,0,0,.59,2.26c2.28,4.86,4.11,5.23,6.05,5.63a10,10,0,0,1,2.16.63,7.72,7.72,0,0,1,2.26,1.82c.11.12.22.24.34.35a97.21,97.21,0,0,0-10.13,4.75c-4.73,2.42-9.2,4.7-11.84,5a123.12,123.12,0,0,1-14.71.77c-6.87.07-13.36.14-22.05,2.39-11.5,3-24.19,14.76-37.73,35-10.52,15.78-11.45,45.05-10.26,56,1,8.86,4.28,18.61,8.34,27.95a118.13,118.13,0,0,0,2.73,15.69l.81.07a117,117,0,0,1-2.48-13.37c2.17,4.81,4.49,9.47,6.76,13.82l.86.09c-2.66-5.09-5.41-10.62-7.9-16.32-1.57-14.63-.63-30.15,4.07-41.36a21.93,21.93,0,0,1,5.42-7.64l3.51.39c9.38,1.06,13.26,1.49,24.75-1.9,3.25-1,5.44-.32,6.39.6a1.81,1.81,0,0,1,.59,1.78c-.39,1.5-6.92,1.19-11.69,1a30.68,30.68,0,0,0-11.95,2.19,26.24,26.24,0,0,0-12.41,9.63c-3.35,5-3.76,11-1.21,18,2.12,5.77,5.83,11,8.29,14.52-.17,1.93.13,4.13,1.25,4.81a1.49,1.49,0,0,0,1.73-.17.58.58,0,0,0,.26-.4c.11-.67-.68-1.86-2.5-4.43l0-.21c.23-1.67,2.72-3.88,5.37-6.21a39.78,39.78,0,0,0,5.43-5.44,46.77,46.77,0,0,0,5.88-10.24,17.5,17.5,0,0,1,2.71-4.8c3.59-4.16,6.73-6.32,9.08-6.24a3.28,3.28,0,0,1,2.59,1.44c2.12,2.83-2.17,6.23-7.14,10.17-3.64,2.89-7.76,6.16-10,9.79-3,4.81-4.55,15.33-2.77,19.07a2.14,2.14,0,0,0,1.64,1.39c1.64.21,7.65,2.79,7.71,2.82a.36.36,0,0,0,.36,0,.37.37,0,0,0,.14-.34c0-.12-1.82-11.94-1-16.06,1.57-7.57,3.9-11.65,5.52-12.33a.74.74,0,0,1,.7,0s.42.33-.49,3.62c-.58,2.1-1.48,4.68-2.35,7.18a58,58,0,0,0-2.1,6.69,25.29,25.29,0,0,0,.58,12.43c.77,2.66,4,4.72,6.67,6,4.25,2.05,9.6,3.32,11.23,2.65a.33.33,0,0,0,.2-.23.32.32,0,0,0,0-.3c-1.37-2-2.64-8.29-3.24-16-.62-8-.34-15.39.74-19.3,1.88-6.87,6.32-11.91,9.35-12.65a2.17,2.17,0,0,1,2.24.55c.9,1-.3,3.44-1.95,6.86-2.17,4.5-5.15,10.65-6.24,18.68-.86,6.39,1.12,25,4.61,27a1.39,1.39,0,0,0,1.65-.15c3.08-2.38,9.2-2.68,14.12-2.93,3.64-.18,6.51-.32,7.72-1.18,2.65-1.88.67-6.45-1.41-11.29-1.38-3.19-2.8-6.49-2.93-9.07-.21-4.34.79-9.05,4.23-9.24,3.08-.18,4.84,2.76,5.22,8.75.1,1.44-.62,3.52-1.45,5.93-1.49,4.34-3.35,9.74-1.08,13.92,2.2,4,15.1,4.16,24.61,3.91h.15a5.81,5.81,0,0,1,1.88.24,6.57,6.57,0,0,0,.93,3.52,1.56,1.56,0,0,0,1.13.64,1.07,1.07,0,0,0,1-.5,2.31,2.31,0,0,0-.2-2.3,4.4,4.4,0,0,0-2.21-1.87,14,14,0,0,1,.16-2.36,54.57,54.57,0,0,1,2.09-7,41.8,41.8,0,0,0,1.91-6.44,16.1,16.1,0,0,0-2.33-10.16,46,46,0,0,0-4-4.9c-3.77-4.26-8.94-10.1-7.49-12.17a1.14,1.14,0,0,1,.93-.51c1.47-.08,3.9,1.74,5.45,3.5a31.78,31.78,0,0,1,4.22,7c1.79,3.63,3.49,7.06,6.54,8.58a.37.37,0,0,0,.41-.06.35.35,0,0,0,.08-.4c-1.14-2.73.14-5.4,1.49-8.23C245.66,161,246.91,158.41,246.61,155.46ZM223.17,44l.07.07s0,0,0,.14c-.18.38-1.14,1-2.85.58a4.74,4.74,0,0,1-1.78-.94C220.78,43.18,222.45,43.08,223.17,44ZM116.71,8.87a.34.34,0,0,1,.18,0,1.34,1.34,0,0,1,.64.24c.06,0,.2.12.16.46a5.32,5.32,0,0,1-1.84,2.65C116,10.55,116.2,9.12,116.71,8.87ZM3.45,155.39c-.71,1.32-1.68,1.87-2.11,1.75-.23-.07-.27-.36-.25-.6,0-.53.66-.75,1.8-1.09l.62-.18Zm2.31-.09a21.15,21.15,0,0,1,9.94-4.4,26.22,26.22,0,0,1,5.38-.5C16.18,155.26,8.92,155.64,5.76,155.3Zm20.47,35.88c1.2.54,2.55,1.15,2.66,1.53a.1.1,0,0,1,0,.09c-.33.49-.67.7-1,.63-.52-.11-1.18-.87-1.75-2.32Zm10.5-21.05a28.29,28.29,0,0,0-7.59,19.73,10.28,10.28,0,0,1-1.44-4.45c-.37-3.67.77-8,3.3-12.44,3.74-6.59,12-10.77,18.12-11.05A30.37,30.37,0,0,0,36.73,170.13Zm44.36-5.27c0-.09,0-.13.07-.16a.37.37,0,0,1,.2-.09h0c.07,0,.19.2.2.62a2.41,2.41,0,0,1,0,.5A1.84,1.84,0,0,1,81.09,164.86ZM49.21,175.45c.85-2.58,4.52-5.83,7.4-6.58a4.38,4.38,0,0,1,1-.13,1.62,1.62,0,0,1,1.15.38,2.1,2.1,0,0,1,.84,1.81c-.25,1.92-3.88,3.89-5.62,4.83a23.55,23.55,0,0,1-2.19,1,23.21,23.21,0,0,0-3.14,1.49A11.3,11.3,0,0,1,49.21,175.45ZM26.37,160.26a.54.54,0,0,1,.35.09c.06,0,.06.18,0,.37-.14.54-2.47.81-5,1A18.72,18.72,0,0,1,26.37,160.26Zm-9,2.46c-4.47,1.77-9.59,3.5-12.48,2.43,0-.06.09-.12.13-.19l.08-.11C8.52,163.48,13.2,163,17.37,162.72Zm45.42-13.07c7.95,2.88,12.61,5.62,15.11,7.41s3.87,3.39,4.22,4.38c-5.4-3.23-25.15-12-38.11-16.95A129.57,129.57,0,0,1,62.79,149.65Zm-29.43-8a26.88,26.88,0,0,1,3,.83l-.49-.06c-11.18-1.41-20.59-.82-27.31,1.7a7,7,0,0,0,.39-1.32C12.15,141,18.23,138.83,33.36,141.67ZM34.07,123c3.37,2,4.58,6.89,4,9.53-.18.77-.59,1.71-1.53,1.78-2,.16-3.33-2.9-4.1-9.35a26.22,26.22,0,0,0-.56-3.22Q32.89,122.25,34.07,123Zm-3.36-2.69c-.74-.38-1.39-.7-2-1a11.32,11.32,0,0,1-2.6-1.51,2.77,2.77,0,0,1,.44-1.42,10.24,10.24,0,0,1,.61-1C28.62,115.86,29.85,117.64,30.71,120.26Zm55.84,21.59a2.12,2.12,0,0,1-2.23,0c-1.29-.65-2-1.33-2.09-2.09-.22-1.49,1.73-3.38,4-5.55,1-1,2.09-2,3.09-3.13C89.23,139.08,87.44,141.26,86.55,141.85ZM90,129.13c0-1.2-.08-2.47-.17-3.8a5.44,5.44,0,0,1,1.41-4.3,6.17,6.17,0,0,1,1-.84,1.88,1.88,0,0,1,.12.3C93.21,123.78,91.94,126.63,90,129.13Zm9.29-92.9c-.69,5.16-1.41,10.49-3,10.57A1.27,1.27,0,0,1,95,46.18c-.89-1.58.51-5.59,2.31-8.21.66-.94,1.37-1.79,2.18-2.75C99.41,35.56,99.36,35.9,99.32,36.23Zm8.83-16.37a53.11,53.11,0,0,1-7.64,13,42.1,42.1,0,0,1,2.15-9.24l.17-.39C104.81,22.05,106.83,20.82,108.15,19.86Zm80.63,3.83-1.63-.18c-4.5-.56-12.87-1.58-20.17,1.84a51.56,51.56,0,0,0-11.38,7.26c-2.77,2.24-3.72,2.89-5.3,1.76a1,1,0,0,1-.45-1c.29-2.6,7.38-7.54,13.06-9.9,6.28-2.6,13.74-2.63,20.36-2.63h.19c1.55,0,3,0,4.45,0A20.74,20.74,0,0,1,188.78,23.69ZM236.59,199a1.65,1.65,0,0,1,.21,1.55.38.38,0,0,1-.39.18.84.84,0,0,1-.61-.38,5.42,5.42,0,0,1-.76-2.78A3.79,3.79,0,0,1,236.59,199Zm-18.36-93.2a33.81,33.81,0,0,0-5.14-5.22,42.71,42.71,0,0,1,4.95-.4h.53A13.11,13.11,0,0,1,218.23,105.76Zm.2-6.35a44.15,44.15,0,0,0-6.12.5,36.77,36.77,0,0,0-4.5-3,26.77,26.77,0,0,0-9.26-3.27,15.79,15.79,0,0,1,3-1.71c3.65-1.6,8.89-2.18,12.64,1a13,13,0,0,1,3.36,3.85h0A10.62,10.62,0,0,1,218.43,99.41Zm-24.12,1.16a8.83,8.83,0,0,1,3.44-6.25c3.83.34,8.91,2.31,13.55,5.75A83.71,83.71,0,0,0,199.75,103a23,23,0,0,1-2.87.74C195.25,102.9,194.27,101.89,194.31,100.57Zm1.38,3.28c-2.31.23-3.93-.27-4.76-1.47-1.27-1.84-.33-4.91.81-6.34.93-1.16,2.6-1.78,4.84-1.78h.16a9.3,9.3,0,0,0-3.15,6.28A3.75,3.75,0,0,0,195.69,103.85ZM158,98.18c-2.11-7.21-.61-16.11,1.29-19.76C163.1,71,170.14,70.67,175.9,72c-4.42,1.25-11.28,6-11.87,9.12a1.88,1.88,0,0,0,1.24,2.2c1,.48,2.29-1,4.16-3.32,2.57-3.13,6.07-7.42,10-7.12,7.37.57,10.8,1.82,12.36,3-6.28-.73-11,4.08-13.29,6.46l-.37.37c-2.33,2.37-7.42,10.18-6.29,14a2.83,2.83,0,0,0,2.3,2c3.08.66,5-3.55,7.11-8,1.73-3.73,3.69-8,6.46-9.63,4.15-2.5,7.23-3.7,17.7,2.87,9.88,6.2,12.31,7.73,12.16,11.69a16.32,16.32,0,0,0-2.95-3.09c-4-3.45-9.55-2.86-13.4-1.16a15.94,15.94,0,0,0-3.7,2.25l-.76,0c-2.56,0-4.49.68-5.59,2.06-1.3,1.63-2.31,5-.83,7.19.81,1.18,2.58,2.28,6.44,1.64,3.65,1.68,9.92,2.33,16.05,3,5,.53,9.77,1,12.5,2,4.64,1.74,6.25,4,6.78,5.66a4.12,4.12,0,0,1,.06,2.57c-7.26-7.38-17.6-9.14-25-9.31l-1.24,0c-8.79,0-18,2.11-24.84,5.71a23,23,0,0,0-3.27,2.07c-1.73-.71-3.45-1.38-5.11-2-2.07-.81-4.08-1.6-5.94-2.39A29.83,29.83,0,0,1,158,98.18ZM177,72.44c-3.23,1.06-6,4.45-8.14,7.06-1.3,1.58-2.76,3.38-3.31,3.13a1.18,1.18,0,0,1-.83-1.41C165.27,78.41,172.84,73.1,177,72.44Zm.86,44.51c5.67,2.35,11.4,5,15.7,8.58,6,5,13.81,14.43,19.88,24.78A280.11,280.11,0,0,0,194.34,129c-3.82-3.62-11.82-8-17.58-11.05C177.11,117.59,177.48,117.27,177.88,117Zm-1.79.61-2.23-1.15c-1.58-.83-2.73-1.42-3.14-1.68-.72-.46-1.43-1-2.11-1.47l3.78,1.5c1.55.61,3.13,1.23,4.73,1.88C176.75,116.94,176.41,117.25,176.09,117.56ZM119,138.41a.58.58,0,0,1-.74-.16c-1-1.09-1.22-5.08-.36-6.57a4.49,4.49,0,0,1,.49-.68c.13,1.19.34,2.34.52,3.38C119.25,136.32,119.57,138.14,119,138.41Zm9.83-12.74c-3.85-.26-7.64,1.84-9.83,3.74a9.29,9.29,0,0,1,1.9-6.71A40.43,40.43,0,0,0,129,108.16c1.89-5.33,3-8.55,10.79-9.31.77-.07,1.5-.11,2.19-.11,6.67,0,10.07,3.29,13.38,6.48a32,32,0,0,0,4.51,3.84,41.44,41.44,0,0,0,6.42,3.25,30.91,30.91,0,0,0,4,3c.44.27,1.6.87,3.2,1.7l2,1c-.35.37-.67.74-1,1.11-5.8-2.54-15-3.59-24-2.45a45.6,45.6,0,0,0-16.48,5.14A29.35,29.35,0,0,0,128.83,125.67Zm46-5.59A11.19,11.19,0,0,1,179,123.2c4,5.33,3.43,8.36,2.7,9.69a4.16,4.16,0,0,1-4,2.08c-2.5-.2-4.62-2.46-5.27-5.62A11.67,11.67,0,0,1,174.82,120.08Zm-36.9,56.57c-.53.35-.81.18-.91.12-.6-.37-1-1.68-.95-3.24A12,12,0,0,1,137.92,176.65ZM242,171.16c-2.36-1.6-3.85-4.61-5.41-7.79a33.06,33.06,0,0,0-4.33-7.16c-1.18-1.34-4-3.86-6-3.74a1.85,1.85,0,0,0-1.49.82c-1.76,2.53,3.18,8.12,7.55,13.06a46.46,46.46,0,0,1,3.94,4.79,15.43,15.43,0,0,1,2.22,9.71,42.43,42.43,0,0,1-1.87,6.29,55.28,55.28,0,0,0-2.12,7.11,14.31,14.31,0,0,0-.17,2.24,7.08,7.08,0,0,0-1.88-.21h-.15c-14.41.38-22.47-.81-24-3.54-2.11-3.9-.32-9.13,1.13-13.33.86-2.49,1.59-4.64,1.49-6.22-.52-8-3.54-9.56-6-9.42-3.37.19-5.2,3.93-4.91,10,.14,2.71,1.58,6.06,3,9.31,2,4.57,3.82,8.88,1.66,10.42-1,.74-4.1.89-7.35,1.05-5,.25-11.26.56-14.52,3.08a.7.7,0,0,1-.85.1c-3-1.71-5.14-19.72-4.25-26.31,1.07-7.92,4-14,6.17-18.47,1.84-3.81,3.06-6.32,1.82-7.66a2.67,2.67,0,0,0-2-.88,3.6,3.6,0,0,0-.9.12c-3.3.8-7.89,5.94-9.88,13.16-1.11,4-1.39,11.35-.75,19.55.46,5.89,1.5,13,3.09,15.9-1.74.22-6.27-.83-10.22-2.74-3.51-1.7-5.74-3.66-6.29-5.54a24.57,24.57,0,0,1-.56-12.11,58.34,58.34,0,0,1,2.07-6.57c2.67-7.65,3.61-11,2.55-11.64a1.42,1.42,0,0,0-1.37-.07c-1.66.7-4.21,4.48-6,12.84-.77,3.73.49,13.12.86,15.68-1.59-.67-5.87-2.43-7.31-2.61-.43,0-.79-.39-1.08-1-1.66-3.51-.14-13.81,2.73-18.37,2.22-3.54,6.29-6.76,9.88-9.61,5.26-4.17,9.81-7.78,7.27-11.17a4,4,0,0,0-3.14-1.73c-2.58-.09-5.92,2.16-9.65,6.49a18.11,18.11,0,0,0-2.83,5,46.48,46.48,0,0,1-5.8,10.11,39.36,39.36,0,0,1-5.33,5.32c-2.51,2.22-4.9,4.33-5.49,6.15-2.42-3.45-5.81-8.4-7.78-13.77-2.47-6.73-2.09-12.57,1.13-17.34,6.06-9,17.51-11.8,23.73-11.5,7.17.35,11.92.44,12.42-1.49a2.54,2.54,0,0,0-.79-2.48c-1.42-1.38-4.08-1.67-7.1-.77-11.34,3.35-15.18,2.92-24.45,1.87l-2.88-.32c5-4.3,12.17-7.2,20.85-8.31,8.86-1.12,17.8-.12,23.46,2.31a12.33,12.33,0,0,0-2.33,9.73c.71,3.47,3.09,6,5.92,6.19a4.84,4.84,0,0,0,4.63-2.45c.81-1.48,1.53-4.82-2.76-10.48a11.77,11.77,0,0,0-4.35-3.25,13.42,13.42,0,0,1,1-1.07c5.73,3,13.83,7.44,17.62,11.05,5.34,5.07,14.3,15.33,21.66,24.46a80.94,80.94,0,0,1,5.36,12.15,167.22,167.22,0,0,0,8.81,21.38,25.3,25.3,0,0,1,1.86,4.27.34.34,0,0,0,.38.28.35.35,0,0,0,.33-.35c.08-5.27-.46-15.25-4.91-22.89a154.53,154.53,0,0,0-11.15-15.13,113.64,113.64,0,0,0-7.09-11.54c-5-7.1-10.44-13.36-15.06-17.15-4.26-3.5-9.89-6.2-15.49-8.52a23.63,23.63,0,0,1,2.83-1.75c7.07-3.72,16.68-5.82,25.73-5.61,7.44.17,17.8,1.94,24.91,9.45a.38.38,0,0,0,.29.12.37.37,0,0,0,.27-.16,4.35,4.35,0,0,0,.22-3.61c-.58-1.78-2.3-4.28-7.21-6.11-2.82-1-7.6-1.56-12.67-2.09-5.38-.56-11.19-1.17-14.86-2.51q.9-.21,1.92-.54a81.23,81.23,0,0,1,12.13-3,32.92,32.92,0,0,1,6,6,.36.36,0,0,0,.62-.08,13.09,13.09,0,0,0,.62-6.51c5.47.12,9.56,1.66,12.15,4.58,5,5.63,6,8.77,6,12a25.52,25.52,0,0,1-.36,3.14c-.17,1.14-.36,2.37-.46,3.56-3.68-.43-7.93.28-12,1.16-2-1.15-3.86-2.43-5.59-3.62-3.89-2.68-7.25-5-9.86-4.37a4.35,4.35,0,0,0-2.8,2.37,4.29,4.29,0,0,0,.09,4.88c1.93,2.69,6.89,3.89,10.14,3.28,1.46-.27,3.07-.65,4.79-1.06,1-.23,2-.48,3.11-.71,4.07,2.33,8.62,4.08,13.48,3.38a.37.37,0,0,0,.3-.26.38.38,0,0,0-.14-.38c-.8-.6-1-2.11-.89-3.84a9.41,9.41,0,0,1,6.88,4.3c2.89,4.69,1.53,9.43.33,13.6-.81,2.82-1.52,5.31-.83,7.37a22.5,22.5,0,0,1-2.31-1.85,22,22,0,0,0-11-5.79c-5.16-1-8.11-.18-9.06.84a1.37,1.37,0,0,0-.38,1.3c.63,2.33,5.67,2.93,10.11,3.45a37.27,37.27,0,0,1,4.32.66c2.37.6,10.13,2.93,10.58,7.39.28,2.75-.93,5.29-2.09,7.74C242.52,165.94,241.31,168.48,242,171.16Zm-24.18-14.31a128.51,128.51,0,0,1,8.9,12.3c3.85,6.62,4.71,15.06,4.81,20.53-.32-.7-.72-1.53-1.2-2.52a165.28,165.28,0,0,1-8.78-21.29A76.57,76.57,0,0,0,217.81,156.85Zm19.42-28.74c-4.13.39-8-1-11.63-3a35.06,35.06,0,0,1,11-1A6.91,6.91,0,0,0,237.23,128.11Zm-13.6-3.29-2.37.55c-1.7.4-3.31.78-4.75,1-3,.57-7.65-.52-9.42-3a3.58,3.58,0,0,1-.06-4.11,3.73,3.73,0,0,1,2.34-2,2.92,2.92,0,0,1,.73-.08c2.24,0,5.2,2,8.56,4.34C220.21,122.62,221.87,123.77,223.63,124.82Z"/><path class="cls-6" d="M364.34,300s1.1-12.89,0-16.58-4.27-3.4-10.46-4.53l-14.58-2.7,13.76,4.11s.27,1.56-2.06,1.56-10.46-1.13-10.46-1.13,10.87,2.13,9.91,2.27-14.72,1.13-17.47,1.13,10.59-.57,10.18.43-4.82,2.12-4.82,2.12-3-1.27-2.47-.28,3,3.4.13,4.11a7.57,7.57,0,0,1-5.36-.85s.69,2.55-2.48,3.82-3.57-.56-3.57-.56a2.58,2.58,0,0,1-.83,2.55c-1.24,1-9.49,3.82-9.49,3.82v2.13S326.92,296.9,328,297s1.92-1,2.88-1,2.89-.57,3.86-.43,3.43-.14,4-.85,5-10.63,16-10.06,5.36,5.1,5.36,5.1l3.58-1-.27,3.33-3.37,1.2-2,.64s0-3.29-1.72-5.17-5.09-2.34-5.09-2.34,4.44.92,5.23,4.75c.72,3.46.48,6.52-1,8.36a9.18,9.18,0,0,1-7.71,3,7.94,7.94,0,0,1-6.12-3.18c-1.37-1.71,2.62,6,9,4.34s7.09-3.78,7.91-5.05a15.52,15.52,0,0,0,1.38-4.11l3.78-1.42Z"/><path class="cls-6" d="M313.26,295.57s0-4.91-3.48-4.53-13.39,3.59-20.36,4.53-19.44,2.08-20.18,3.78-1.46,9.45-1.46,9.45H265s-15.78,3.4-24.4,4.53-26.41,3-26.41,3l2.2,3.59,51.72-7s1.65-11,3.3-11.15,24-4.35,27.15-4.91S313.81,291.79,313.26,295.57Z"/><path class="cls-6" d="M359.11,304s-3.48,1.64-15.95,3.72-18,1.13-20,1.7-15.4,7.93-17.05,9.44-38.33,9.64-38.33,9.64l3.3-14.93.55,11.72,31.91-7.94.18-14.74,1.84,12.95s4.77-16.16,5.13-18.05.92,11,.55,12.28S327,304,327,304s-1.65,3.53,7.52,2.77S359.11,304,359.11,304Z"/><path class="cls-6" d="M267.78,314.75s-.69,8.79-4.68,11.34-14.21-.1-26.14,1.42a202.06,202.06,0,0,0-22.74,4.34l2.75-10Z"/><path class="cls-6" d="M211.1,320.7a13.63,13.63,0,0,0-8.66-10.2c-7.7-2.83-22.28,2.36-22.28,2.36l-5.37-3.21s-.55,5-3.71,5.53-10.59.71-16.51,1.27-19.12,4.25-19.12,4.25l13.62-2.12s-12,4.63-14.31,4.72-7.7-.75-14.44-2.74-8.94-4.08-8.94-4.08l17.19,4.08-24.07-7.37s-5.36-.71-8-2.12-5-7.8-8.52-8.08a3.65,3.65,0,0,0-4,3.26s2.1-4.35,4.4-1.7,1.56,2,1.56,2l-.83.76-.46,1.13s.28-1-1.37-.19-1.75,3.5-1.75,3.5,1.93-1.89,2.21-1.42-.37,2.36-.37,2.36-.92-.47-1,1.8a35.27,35.27,0,0,1-.55,4.63l-1.19.28s-.37,5.43.87,8,3.44,6.52,3.85,6.52-.34-2.19-.34-2.19l.62-1.63s.34.92.89,1.06a7.46,7.46,0,0,0,1.93-.07s-.9-.14-2.48-1.91A18.18,18.18,0,0,1,87.38,325s2.75.56,2.82-4.18-.83-6.1-.83-6.1,1.86,4.1,1.58,3.68a49.47,49.47,0,0,1-.62-5.73l.42-1L93,317.37l.68-1.63.76,1.07,3.23-3.4-1.92,5s11.07,5.82,11.14,7.45-12.59,1-12.93,1.06-1.58,1.7-1.58,1.7,10.73,4.25,20.49,7.51,18.3,7.37,21.74,1.56,7.29-18.42,23-17.86S177,329.92,177,329.92l12-2s-.41-4.82,3.3-10.63S205.88,307.67,211.1,320.7Z"/><path class="cls-6" d="M210.37,324.58c0,.56.37,10.49-6.6,14.93s-11.19.47-11.19.47-3.9-3.26-5.41-1.84-5.5,6.09-5.5,6.09-.69-6.2-2.2-3.6-9.36,14.65-26.69,13.38-23.11-3.83-34.8-8.5S98,336.72,98,336.72l9.21,2.62-11-5.17-1.79-3.12S120.59,342,126,341.82s9.77-.28,9.77-.28,3.85,7.08,9.07,8.78,22.56.15,27.65-6.94,5-9.64,5-9.64l6.33-1.27,5.37-1.42s1.52,7.58,6.05,8.93,8.11-2.13,10-4.68,2.61-10.72,2.61-10.72l.83,5.19Z"/><path class="cls-6" d="M355.44,291s.28,4.93-2,7.67-4.68,2.83-4.68,2.83,1.38-1.22.46-1.32-2.52,1.4-5,.28-2.56-1.88-2.56-1.88,5.22,3.4,8.53,0,2.65-7.22,0-8.52a11.48,11.48,0,0,0-4.59-1.31s4.49-.41,6.24,1.31a5.2,5.2,0,0,1,1.19,6C352.05,297.84,354.8,295.44,355.44,291Z"/><path class="cls-6" d="M348.53,263.45s9.66,1.13,8.56,3.21-4,5.1-13.2,6a95.69,95.69,0,0,1-17.79,0s16.87-.76,19.53-1.23,3.21-1.61.28-1.32-13.12.75-16.42,1l-3.3.28s-23.57,7.28-27.23,8a24.82,24.82,0,0,0-6.61,2.46s-27.51,1.51-31.18,2.08-55.57,4.68-55.57,4.68l.74-1.28s-9.72,2.8-10.46,2.63,8.81-5.66,8.81-5.66,49.88-4,65.65-4.91,18.89-2.74,18.89-2.74,6.79.65,9.73,0,24.94-5.95,24.94-5.95l-1.52-.71-25.72,6.09,26-7.65s31.5,1,28.06-2.27S348.53,263.45,348.53,263.45Z"/><path class="cls-6" d="M193.36,290.08s-9.9,5-18.43,6.67-24.35,2.41-28.2,2.41-13.48,3.65-18.43,3.81-40.3-9.48-42.23-9.48-3.16-3.41-3.16-3.41,5.36-4.1,6.32-4,23.25,5.67,30.81,6.1,55-3.12,60.94-4.68,16.51-3.26,17.88-4.53,4.82,0,4.82,0S195.51,289.07,193.36,290.08Z"/><path class="cls-6" d="M361.59,238.08s1.1,16.44-2.48,20.69-7.56,3.26-8.94,2.84c-1.21-.38-3.7-4.48-4.28-5.46l-.12-.21a10,10,0,0,1-5.5,7.49c-4.95,2.36-6.12.94-6.12.94s-3.24-2.76-4-4.75-.55-7.16-.48-8.18a45.39,45.39,0,0,1,1.1-4.78s.48,9.21,2,11.69,4.62,4.53,6.78,3.26a8.27,8.27,0,0,0,3.95-4.89c.55-1.91,1.72-5.28,1.72-5.28l1.44-.89s-.82,3.55.07,4.18,4.06,5.11,6,5.18a6.69,6.69,0,0,0,5.77-4.33,62.44,62.44,0,0,0,1.65-8.07c-.07-.22.48,2.19.48,2.19S361.59,242.19,361.59,238.08Z"/><path class="cls-6" d="M360.69,237.66s-10,2.19-10.79,2.34a5.81,5.81,0,0,0-1.93,1.2,16.92,16.92,0,0,0-3.92-1.77,15,15,0,0,0-7.29,1c-2.2,1.13-3.58,2.62-3.71,5.1s-.35,5.25-.35,5.25,1.45-5.74,5.92-8.86,5.29-2.13,5.29-2.13l-.89.57,2.65,7.16s3.95-4.68,6.08-6S360.69,237.66,360.69,237.66Z"/><path class="cls-6" d="M358.77,243.4a25.08,25.08,0,0,1,.34,3.47c0,1.49-1-.14-1.93-.5a12.85,12.85,0,0,0-3.3-.28l-.75,1.39h-2.27s-.14-3.66,1.24-4.86a8.08,8.08,0,0,1,3.78-1.49l2.06,4.68Z"/><path class="cls-6" d="M359.11,249.84s-1.37,10.21-5.43,8.15-3.71-8.15-3.71-8.15l.61,1.6.28-2.09.76,1.77.2-1.77.62,1.42.41-1.42,1.68-.28v1.7s1.28,1,1.83.67.28,2.23.28,2.23l.89-2.23-.35,3.15Z"/><path class="cls-6" d="M344,253.67s-.88,4.72-3.51,6.52-3.3.57-4.05-.71-2.21-8-2.21-8l3.79-.32,4.06,4-2,.14,1.51.88s-1.3,1.25-1.65,1.25a28.92,28.92,0,0,1-3.09-1.25l3.16,3.23-3.16-1.7a2.49,2.49,0,0,0,1.58,2.34C340,260.49,343,258,344,253.67Z"/><path class="cls-6" d="M344,249.7s-.89-5.45-2.13-6.45-3.78,0-4.61,1-2.41,5.49-2.41,5.49,2.69-2.69,3.1-2.69.34-1.77.34-1.77l1.14,1.77v-2l2.23,2.19-.48-2.48A37.45,37.45,0,0,1,344,249.7Z"/><path class="cls-6" d="M342.33,249.07s1.24,1.55.83,2.37-3.61.46-3.61.46L338,250.52A15.15,15.15,0,0,1,342.33,249.07Z"/><path class="cls-6" d="M198.86,243.61s4.68,5.38,4.82,11.2-1.51,17.12-7.84,21.95-11.7,6.53-17.89,2.7-6.6-7.79-11.41-8.64-3.85,0-3.85,0-4.68,10.34-7.29,11.62-11.15,6.52-21.05,3.4-11.14-9.08-11.14-9.08a27.33,27.33,0,0,0,8.94,5.68c5.5,2.13-1.51-2.83-1.51-2.83s-3.85-4.11-4.54-8.79a56.35,56.35,0,0,1-.69-7.39s1.79,8.81,4.26,12.21,8.26,8.36,14.45,7.65,11.28-5.38,14.72-11.62S160.9,264,160.9,264s-1.38-7.8-2.62-10.49,5.24,7.37,5.17,10.35,1,4.25,2.54,4a12,12,0,0,1,4.67.15c.55.28,0-6,1.1-9.36a43.61,43.61,0,0,1,3-6.8s-3,8.08-1.51,14.6,6.88,11.9,10.18,11.9,13.75-1.13,16.37-11.9A39.63,39.63,0,0,0,198.86,243.61Z"/><path class="cls-6" d="M196.71,242.76a173.44,173.44,0,0,0-21.19-1.14c-10.54.19-22.83.67-31.08,1.14s-17,2.74-20.73,8.41-2.84,16.15-2.84,16.15,1.56-8.31,2.34-9.45,1.05,4.16,1.05,4.16a40.59,40.59,0,0,1,3.67-8.41c2.2-3.49,9.81-9.92,16.32-10s13.12,0,13.12,0,2.2,3,.64,4.44-1,1.89-1,1.89a8.07,8.07,0,0,1,4.68.94c2.66,1.33,5.13-.09,5.68,2.93a49.79,49.79,0,0,1,.74,5c0,.28,5.41-9.07,8.25-11.72S185.7,242.66,196.71,242.76Z"/><path class="cls-6" d="M363.1,235.25A164.29,164.29,0,0,1,344,237.09c-9.63.28-16,1-16,1s-4.82,7-5.65,8.19a34.54,34.54,0,0,0-2.2,4.85h-1.51s5.37-9.35,6.47-10.63a8.52,8.52,0,0,0,1.51-2.41s-29-1.7-34-1.7-61.21,2.69-61.21,2.69l-24.89,1.14-2.89,9.49v-8.78s-14.32-1.7-23.67-2.7-54.2,3.39-54.2,3.39l-11.28,1.57s-2.34,9.78-2.34,12.33-1.65,8.93,1.1,15.31,3.86,9.78,5.51,11.62a61.56,61.56,0,0,0,6.19,5.24s-5.64-2-8.67-6.09-6.74-12.9-6-20.12,3-19.86,3-19.86,40.81-3.53,45.44-3.67,24-1,32.56-.42,13.94,1.36,13.94,1.36l48.14-1.6,39.34-1.61,35,1.42S359.3,234.07,363.1,235.25Z"/><path class="cls-6" d="M320.41,246.27l-2,4.25L285,253.62l-80.79,4.25v-5.8S240.82,248.71,253,248s36-.75,36-.75Z"/><path class="cls-6" d="M320.25,279.75s.42,1.27,0,1.49a3.51,3.51,0,0,1-1.51,0l1.17-1.49Z"/><path class="cls-6" d="M317.13,280.54s.41,1.27,0,1.49a3.51,3.51,0,0,1-1.51,0l1.17-1.49Z"/><path class="cls-6" d="M317.29,284.83s.52,1.27,0,1.48a5.34,5.34,0,0,1-1.91,0l1.48-1.48Z"/><path class="cls-6" d="M314.33,285.62s.52,1.27,0,1.48a5.34,5.34,0,0,1-1.91,0l1.48-1.48Z"/><path class="cls-6" d="M311.44,286.89s.53,1.28,0,1.49a5.59,5.59,0,0,1-1.91,0l1.48-1.49Z"/><path class="cls-6" d="M308.07,287.68s.53,1.28,0,1.49a5.59,5.59,0,0,1-1.91,0l1.48-1.49Z"/><path class="cls-6" d="M314.38,281.33s.41,1.27,0,1.49a3.51,3.51,0,0,1-1.51,0l1.17-1.49Z"/><path class="cls-6" d="M311.15,282.12s.41,1.28,0,1.49a3.51,3.51,0,0,1-1.51,0l1.16-1.49Z"/><path class="cls-6" d="M307.9,283.24s.41,1.28,0,1.49a3.51,3.51,0,0,1-1.51,0l1.16-1.49Z"/><path class="cls-6" d="M304.32,284s.41,1.28,0,1.49a3.51,3.51,0,0,1-1.51,0L304,284Z"/><path class="cls-6" d="M300.53,289.39s.36,1.12,0,1.31a3.17,3.17,0,0,1-1.33,0l1-1.31Z"/><path class="cls-6" d="M320.17,276.06s.36,1.12,0,1.31a3.18,3.18,0,0,1-1.33,0l1-1.31Z"/><path class="cls-6" d="M317.36,276.76s.36,1.12,0,1.3a3,3,0,0,1-1.33,0l1-1.3Z"/><path class="cls-6" d="M313.86,277.45s.36,1.12,0,1.31a3.18,3.18,0,0,1-1.33,0l1-1.31Z"/><path class="cls-6" d="M311.07,278.36s.36,1.12,0,1.3a3,3,0,0,1-1.33,0l1-1.3Z"/><path class="cls-6" d="M307.82,279.05s.36,1.12,0,1.31a3.18,3.18,0,0,1-1.33,0l1-1.31Z"/><path class="cls-6" d="M304.24,279.94s.36,1.12,0,1.31a3.18,3.18,0,0,1-1.33,0l1-1.31Z"/><path class="cls-6" d="M299.78,280.64s.36,1.11,0,1.3a3,3,0,0,1-1.32,0l1-1.3Z"/><path class="cls-6" d="M296.54,290.08s.36,1.12,0,1.31a3,3,0,0,1-1.33,0l1-1.31Z"/><path class="cls-6" d="M300.4,284.83s.42,1.27,0,1.48a3.36,3.36,0,0,1-1.51,0l1.17-1.48Z"/><path class="cls-6" d="M296.32,285.82s.41,1.27,0,1.48a3.36,3.36,0,0,1-1.51,0l1.17-1.48Z"/><path class="cls-6" d="M292,286.89s.41,1.28,0,1.49a3.55,3.55,0,0,1-1.52,0l1.17-1.49Z"/><path class="cls-6" d="M292.07,290.94s.28.86,0,1a2.24,2.24,0,0,1-1,0l.79-1Z"/><path class="cls-6" d="M287.88,291.47s.27.86,0,1a2.45,2.45,0,0,1-1,0l.79-1Z"/><path class="cls-6" d="M282.75,292.54s.28.86,0,1a2.4,2.4,0,0,1-1,0l.79-1Z"/><path class="cls-6" d="M287.52,287.68s.41,1.28,0,1.49a3.51,3.51,0,0,1-1.51,0l1.16-1.49Z"/><path class="cls-6" d="M282.52,289s.41,1.27,0,1.49a3.51,3.51,0,0,1-1.51,0l1.17-1.49Z"/><path class="cls-6" d="M275.16,289.89s.41,1.28,0,1.49a3.51,3.51,0,0,1-1.51,0l1.17-1.49Z"/><path class="cls-6" d="M275.3,293.61s.41,1.27,0,1.49a3.51,3.51,0,0,1-1.51,0l1.17-1.49Z"/><path class="cls-6" d="M267.59,291.21s.42,1.28,0,1.49a3.36,3.36,0,0,1-1.51,0l1.17-1.49Z"/><path class="cls-6" d="M259.48,292.28s.41,1.28,0,1.49a3.55,3.55,0,0,1-1.52,0l1.17-1.49Z"/><path class="cls-6" d="M259.25,286.89s.41,1.28,0,1.49a3.51,3.51,0,0,1-1.51,0l1.16-1.49Z"/><path class="cls-6" d="M267.59,285.82s.42,1.27,0,1.48a3.36,3.36,0,0,1-1.51,0l1.17-1.48Z"/><path class="cls-6" d="M275.16,285s.41,1.27,0,1.48a3.36,3.36,0,0,1-1.51,0l1.17-1.48Z"/><path class="cls-6" d="M259.25,297.05s.41,1.28,0,1.49a3.36,3.36,0,0,1-1.51,0l1.16-1.49Z"/><path class="cls-6" d="M251.3,293.35s.55,1.69,0,2a4.47,4.47,0,0,1-2,0l1.55-2Z"/><path class="cls-6" d="M242.22,294.4s.55,1.69,0,2a4.62,4.62,0,0,1-2,0l1.55-2Z"/><path class="cls-6" d="M233.24,295.75s.54,1.69,0,2a4.66,4.66,0,0,1-2,0l1.55-2Z"/><path class="cls-6" d="M233.24,289.89s.54,1.69,0,2a4.66,4.66,0,0,1-2,0l1.55-2Z"/><path class="cls-6" d="M223.7,290.94s.55,1.69,0,2a4.62,4.62,0,0,1-2,0l1.55-2Z"/><path class="cls-6" d="M224,296.8s.55,1.69,0,2a4.62,4.62,0,0,1-2,0l1.55-2Z"/><path class="cls-6" d="M214.12,297.84s.54,1.69,0,2a4.66,4.66,0,0,1-2,0l1.55-2Z"/><path class="cls-6" d="M203.85,299.19s.54,1.7,0,2a4.66,4.66,0,0,1-2,0l1.55-2Z"/><path class="cls-6" d="M193.3,300.54s.55,1.69,0,2a4.46,4.46,0,0,1-2,0l1.55-2Z"/><path class="cls-6" d="M193,294.7s.54,1.69,0,2a4.66,4.66,0,0,1-2,0l1.55-2Z"/><path class="cls-6" d="M203.44,293.35s.55,1.69,0,2a4.47,4.47,0,0,1-2,0l1.55-2Z"/><path class="cls-6" d="M214.12,292.3s.54,1.69,0,2a4.66,4.66,0,0,1-2,0l1.55-2Z"/><path class="cls-6" d="M242.22,288.84s.55,1.69,0,2a4.62,4.62,0,0,1-2,0l1.55-2Z"/><path class="cls-6" d="M250.68,287.79s.55,1.69,0,2a4.62,4.62,0,0,1-2,0l1.55-2Z"/><path class="cls-6" d="M251.3,298.64s.55,1.69,0,2a4.62,4.62,0,0,1-2,0l1.55-2Z"/><path class="cls-6" d="M243.12,299.94s.7,2.18,0,2.54a6,6,0,0,1-2.58,0l2-2.54Z"/><path class="cls-6" d="M233.49,300.73s.7,2.18,0,2.54a6,6,0,0,1-2.58,0l2-2.54Z"/><path class="cls-6" d="M224.27,302.08s.71,2.17,0,2.54a5.93,5.93,0,0,1-2.57,0l2-2.54Z"/><path class="cls-6" d="M214.37,303.21s.7,2.18,0,2.54a6,6,0,0,1-2.58,0l2-2.54Z"/><path class="cls-6" d="M204.1,304.56s.7,2.17,0,2.54a6,6,0,0,1-2.58,0l2-2.54Z"/><path class="cls-6" d="M267.83,294.59s.42,1.27,0,1.49a3.51,3.51,0,0,1-1.51,0l1.17-1.49Z"/><path class="cls-6" d="M304.6,288.47s.41,1.28,0,1.49a3.4,3.4,0,0,1-1.52,0l1.17-1.49Z"/><path class="cls-6" d="M338.11,278.36s-8.25,4.24-11.46,5.67-7.06,2.86-7.06,2.86,1.47,2.59,2.11,2.38-3-.8-3-.8l2.68,2.07L316,289.27c-.48-.12-3.61,1.27-3.61,1.27S327.2,282.12,338.11,278.36Z"/><path class="cls-6" d="M267.17,303l-4.9-2.24s-20,3.7-27.51,4.75l-30.35,4.27,1.1.66s24.85-3.12,29.71-3.88,26.32-4.94,26.32-4.94Z"/><path class="cls-6" d="M248.68,299.69l-5.11.91a4.12,4.12,0,0,1-.14-.45c0-.07,4.56-.68,4.56-.68Z"/><path class="cls-6" d="M240.66,268.53s.42,1.88-.2,2.12a5,5,0,0,1-2.15-.22l1.86-1.95Z"/><path class="cls-6" d="M245.33,268.79c-.49,0-4.34.33-4.34.33a2.65,2.65,0,0,1-.08-.39c0-.05,3.86-.17,3.86-.17Z"/><path class="cls-6" d="M231.59,269.17s.42,1.88-.2,2.12a5,5,0,0,1-2.15-.22l1.86-1.95Z"/><path class="cls-6" d="M236.26,269.43c-.49.05-4.34.33-4.34.33a2.65,2.65,0,0,1-.08-.39c0-.05,3.86-.18,3.86-.18Z"/><path class="cls-6" d="M222.79,269.75s.41,1.87-.21,2.12a5,5,0,0,1-2.15-.22l1.87-1.95Z"/><path class="cls-6" d="M227.46,270c-.49.05-4.35.33-4.35.33s-.08-.34-.08-.4,3.87-.17,3.87-.17Z"/><path class="cls-6" d="M212.61,270.87s.41,1.87-.21,2.12a5,5,0,0,1-2.15-.22l1.87-1.95Z"/><path class="cls-6" d="M217.28,271.13c-.49.05-4.35.33-4.35.33s-.08-.35-.08-.4,3.87-.17,3.87-.17Z"/><path class="cls-6" d="M202.52,272s.41,1.87-.2,2.11a4.9,4.9,0,0,1-2.16-.22l1.87-1.94Z"/><path class="cls-6" d="M207.19,272.25l-4.35.33a3,3,0,0,1-.07-.4c0-.05,3.86-.17,3.86-.17Z"/><path class="cls-6" d="M213.11,265.14s.42,1.87-.2,2.11a4.85,4.85,0,0,1-2.15-.22l1.86-1.94Z"/><path class="cls-6" d="M217.78,265.39c-.49.05-4.34.34-4.34.34a2.81,2.81,0,0,1-.08-.4c0-.05,3.86-.17,3.86-.17Z"/><path class="cls-6" d="M212.61,259.5s.41,1.87-.21,2.11a4.87,4.87,0,0,1-2.15-.22l1.87-1.94Z"/><path class="cls-6" d="M217.28,259.76l-4.35.33s-.08-.35-.08-.4,3.87-.17,3.87-.17Z"/><path class="cls-6" d="M221.88,258.73s.41,1.88-.21,2.12a5,5,0,0,1-2.15-.22l1.87-1.95Z"/><path class="cls-6" d="M226.54,259c-.48.05-4.34.33-4.34.33s-.08-.34-.08-.39,3.87-.18,3.87-.18Z"/><path class="cls-6" d="M231.47,258.14s.34,1.58-.18,1.78a4.12,4.12,0,0,1-1.82-.19l1.59-1.64Z"/><path class="cls-6" d="M235.41,258.38c-.41,0-3.67.26-3.67.26a2.12,2.12,0,0,1-.06-.34s3.26-.12,3.26-.12Z"/><path class="cls-6" d="M240.6,257.5s.32,1.59-.21,1.78a4.28,4.28,0,0,1-1.81-.22l1.61-1.61Z"/><path class="cls-6" d="M244.54,257.8l-3.68.2a2.27,2.27,0,0,1-.05-.34s3.26-.07,3.26-.07Z"/><path class="cls-6" d="M249.58,256.9s.31,1.59-.21,1.79a4.24,4.24,0,0,1-1.81-.23l1.6-1.61Z"/><path class="cls-6" d="M253.51,257.2l-3.67.2s-.06-.29-.06-.33S253,257,253,257Z"/><path class="cls-6" d="M257.44,256.31s.32,1.59-.2,1.78a4.3,4.3,0,0,1-1.82-.22l1.61-1.62Z"/><path class="cls-6" d="M261.38,256.61l-3.67.2a2.12,2.12,0,0,1-.06-.34s3.26-.07,3.26-.07Z"/><path class="cls-6" d="M265.44,255.71s.31,1.59-.21,1.78a4.12,4.12,0,0,1-1.81-.22l1.61-1.61Z"/><path class="cls-6" d="M273.14,255.12s.32,1.59-.21,1.78a4.28,4.28,0,0,1-1.81-.22l1.61-1.62Z"/><path class="cls-6" d="M280.7,254.77s.32,1.59-.2,1.78a4.15,4.15,0,0,1-1.82-.22l1.61-1.61Z"/><path class="cls-6" d="M285.49,254.38s.32,1.59-.2,1.78a4.15,4.15,0,0,1-1.82-.22l1.61-1.61Z"/><path class="cls-6" d="M289.88,254.42s.23,1.13-.15,1.27a3,3,0,0,1-1.3-.16l1.16-1.15Z"/><path class="cls-6" d="M294.22,254s.23,1.14-.15,1.27a2.82,2.82,0,0,1-1.29-.16l1.15-1.15Z"/><path class="cls-6" d="M298.3,253.74s.23,1.14-.15,1.28a3,3,0,0,1-1.29-.16L298,253.7Z"/><path class="cls-6" d="M302.29,253.6s.23,1.14-.15,1.27a3,3,0,0,1-1.29-.16l1.15-1.15Z"/><path class="cls-6" d="M305.76,253.28s.23,1.14-.14,1.28a3,3,0,0,1-1.3-.16l1.15-1.15Z"/><path class="cls-6" d="M309.07,252.92s.22,1.14-.15,1.28a3,3,0,0,1-1.3-.16l1.15-1.15Z"/><path class="cls-6" d="M312.37,252.61s.22,1.14-.15,1.28a3.12,3.12,0,0,1-1.3-.17l1.15-1.15Z"/><path class="cls-6" d="M315.12,256.47s.5,1,.17,1.27a2.9,2.9,0,0,1-1.3.18l.84-1.41Z"/><path class="cls-6" d="M312.13,256.89s.46,1.06.12,1.28a3,3,0,0,1-1.3.13l.88-1.38Z"/><path class="cls-6" d="M309,257.21s.46,1.06.13,1.28a3,3,0,0,1-1.3.14l.88-1.39Z"/><path class="cls-6" d="M305.73,257.62s.46,1.06.13,1.27a2.87,2.87,0,0,1-1.3.14l.87-1.38Z"/><path class="cls-6" d="M315.36,260.81s.61,1.05.13,1.28a5.64,5.64,0,0,1-1.81.19l1.27-1.42Z"/><path class="cls-6" d="M312.61,261.33s.6,1,.13,1.28a6,6,0,0,1-1.82.19l1.28-1.43Z"/><path class="cls-6" d="M309.26,262s.6,1,.12,1.28a5.93,5.93,0,0,1-1.81.19l1.28-1.43Z"/><path class="cls-6" d="M306,262.28s.6,1.05.12,1.28a5.62,5.62,0,0,1-1.81.19l1.27-1.42Z"/><path class="cls-6" d="M302.63,262.45s.78,1.23.15,1.52a8.86,8.86,0,0,1-2.41.25l1.71-1.72Z"/><path class="cls-6" d="M298.83,262.87s.79,1.23.16,1.52a8.47,8.47,0,0,1-2.41.25l1.71-1.71Z"/><path class="cls-6" d="M294.75,263.3s.79,1.23.15,1.52a8.77,8.77,0,0,1-2.4.25l1.71-1.72Z"/><path class="cls-6" d="M286.11,264.23s.32,1.59-.2,1.79a4.27,4.27,0,0,1-1.82-.23l1.61-1.61Z"/><path class="cls-6" d="M285.63,258.9s.44,1.55-.06,1.79a4.18,4.18,0,0,1-1.83-.07l1.47-1.74Z"/><path class="cls-6" d="M290,258.64s.44,1.56-.06,1.79a4.18,4.18,0,0,1-1.83-.07l1.48-1.74Z"/><path class="cls-6" d="M294.39,258.35s.44,1.55-.07,1.79a4.15,4.15,0,0,1-1.82-.07l1.47-1.74Z"/><path class="cls-6" d="M298.47,258s.44,1.56-.07,1.79a4.15,4.15,0,0,1-1.82-.07l1.47-1.74Z"/><path class="cls-6" d="M302.46,257.69s.44,1.55-.07,1.79a4.15,4.15,0,0,1-1.82-.07l1.47-1.74Z"/><path class="cls-6" d="M290.56,263.65s.32,1.59-.21,1.79a4.24,4.24,0,0,1-1.81-.23l1.61-1.61Z"/><path class="cls-6" d="M269.37,256l-3.67.2s-.06-.29-.06-.33,3.27-.08,3.27-.08Z"/><path class="cls-6" d="M221.88,264.37s.41,1.88-.21,2.12a5,5,0,0,1-2.15-.22l1.87-1.95Z"/><path class="cls-6" d="M226.54,264.63c-.48.05-4.34.33-4.34.33s-.08-.34-.08-.39,3.87-.18,3.87-.18Z"/><path class="cls-6" d="M231.59,263.61s.42,1.87-.2,2.12a5,5,0,0,1-2.15-.23l1.86-1.94Z"/><path class="cls-6" d="M236.26,263.87l-4.34.33a2.81,2.81,0,0,1-.08-.4c0-.05,3.86-.17,3.86-.17Z"/><path class="cls-6" d="M241,262.84s.41,1.88-.21,2.12a4.87,4.87,0,0,1-2.15-.22l1.87-1.95Z"/><path class="cls-6" d="M245.62,263.1c-.49,0-4.35.33-4.35.33s-.08-.34-.08-.39,3.87-.18,3.87-.18Z"/><path class="cls-6" d="M249.19,267.57s.41,1.88-.2,2.12a5,5,0,0,1-2.15-.22l1.86-2Z"/><path class="cls-6" d="M253.86,267.83c-.49.05-4.34.33-4.34.33a2.65,2.65,0,0,1-.08-.39s3.86-.18,3.86-.18Z"/><path class="cls-6" d="M249.48,261.88s.41,1.88-.21,2.12a5,5,0,0,1-2.15-.22l1.87-1.95Z"/><path class="cls-6" d="M254.14,262.14c-.48.05-4.34.33-4.34.33s-.08-.34-.08-.39,3.87-.18,3.87-.18Z"/><path class="cls-6" d="M258.16,267.07s.41,1.87-.21,2.11a4.87,4.87,0,0,1-2.15-.22l1.87-1.94Z"/><path class="cls-6" d="M262.83,267.33c-.49.05-4.35.33-4.35.33s-.08-.35-.08-.4,3.87-.17,3.87-.17Z"/><path class="cls-6" d="M257.85,261.38s.42,1.87-.2,2.11a4.85,4.85,0,0,1-2.15-.22l1.86-1.94Z"/><path class="cls-6" d="M262.52,261.64l-4.34.33a2.81,2.81,0,0,1-.08-.4c0-.05,3.86-.17,3.86-.17Z"/><path class="cls-6" d="M265.6,265.79s.39,1.74-.19,2a4.65,4.65,0,0,1-2-.21l1.73-1.8Z"/><path class="cls-6" d="M269.93,266c-.45.05-4,.31-4,.31s-.07-.32-.07-.37,3.58-.16,3.58-.16Z"/><path class="cls-6" d="M265.87,260.52s.38,1.74-.19,2a4.58,4.58,0,0,1-2-.2l1.73-1.81Z"/><path class="cls-6" d="M270.2,260.76l-4,.31s-.08-.32-.08-.37,3.59-.16,3.59-.16Z"/><path class="cls-6" d="M273.91,265.33s.39,1.73-.18,2a4.72,4.72,0,0,1-2-.2l1.73-1.81Z"/><path class="cls-6" d="M278.24,265.57l-4,.3s-.07-.32-.07-.36,3.59-.16,3.59-.16Z"/><path class="cls-6" d="M273.63,260.05s.39,1.74-.19,2a4.53,4.53,0,0,1-2-.2l1.73-1.8Z"/><path class="cls-6" d="M278,260.29c-.45,0-4,.31-4,.31s-.07-.32-.07-.37,3.58-.16,3.58-.16Z"/><path class="cls-6" d="M280.87,264.58s.3,1.73-.19,2-1.69-.17-1.69-.17l1.49-1.83Z"/><path class="cls-6" d="M284.53,264.76l-3.42.37a2.78,2.78,0,0,1-.05-.37c0-.05,3-.22,3-.22Z"/><path class="cls-6" d="M280.71,259.32s.3,1.73-.19,2-1.69-.17-1.69-.17l1.49-1.83Z"/><path class="cls-6" d="M284.37,259.49c-.38.06-3.42.37-3.42.37a2.6,2.6,0,0,1-.05-.36c0-.05,3-.22,3-.22Z"/><path class="cls-6" d="M239.27,300.94l-5.11.92a4.38,4.38,0,0,1-.14-.46c0-.06,4.57-.68,4.57-.68Z"/><path class="cls-6" d="M230.15,302.29l-5.11.91a4.12,4.12,0,0,1-.14-.45c0-.06,4.56-.68,4.56-.68Z"/><path class="cls-6" d="M220.56,303.75c-.58.1-5.15.71-5.15.71s-.12-.41-.12-.47,4.59-.48,4.59-.48Z"/><path class="cls-6" d="M210,305c-.58.1-5.13.79-5.13.79a4.63,4.63,0,0,1-.13-.46c0-.06,4.58-.56,4.58-.56Z"/><path class="cls-6" d="M210.14,299.13l-5.93.77a3.78,3.78,0,0,1-.15-.47c0-.06,5.29-.54,5.29-.54Z"/><path class="cls-6" d="M220.76,297.93c-.66.1-5.93.77-5.93.77a4.17,4.17,0,0,1-.15-.46c0-.06,5.29-.55,5.29-.55Z"/><path class="cls-6" d="M230.34,296.73c-.66.1-5.93.77-5.93.77a4.17,4.17,0,0,1-.15-.46c0-.06,5.29-.54,5.29-.54Z"/><path class="cls-6" d="M229.22,291.23c-.66.1-5.93.78-5.93.78a4.42,4.42,0,0,1-.15-.47c0-.06,5.29-.54,5.29-.54Z"/><path class="cls-6" d="M219.32,292.44c-.67.1-5.93.77-5.93.77a4.17,4.17,0,0,1-.15-.46c0-.06,5.29-.55,5.29-.55Z"/><path class="cls-6" d="M209.05,293.63c-.67.1-5.94.77-5.94.77a4.38,4.38,0,0,1-.14-.46c0-.06,5.29-.55,5.29-.55Z"/><path class="cls-6" d="M198.5,294.68c-.66.1-5.93.77-5.93.77a4.17,4.17,0,0,1-.15-.46c0-.06,5.29-.55,5.29-.55Z"/><path class="cls-6" d="M198.88,300.52c-.66.1-5.93.77-5.93.77a4.17,4.17,0,0,1-.15-.46c0-.06,5.29-.55,5.29-.55Z"/><path class="cls-6" d="M200.6,306c-.66.1-5.93.78-5.93.78a4.42,4.42,0,0,1-.15-.47c0-.06,5.29-.54,5.29-.54Z"/><path class="cls-6" d="M239.69,295.68c-.67.1-5.93.77-5.93.77a4.17,4.17,0,0,1-.15-.46c0-.06,5.29-.54,5.29-.54Z"/><path class="cls-6" d="M247.9,294.53l-5.93.77a4.17,4.17,0,0,1-.15-.46c0-.07,5.29-.55,5.29-.55Z"/><path class="cls-6" d="M256.8,293.42l-5.94.77a3.78,3.78,0,0,1-.15-.47c0-.06,5.3-.54,5.3-.54Z"/><path class="cls-6" d="M265.51,292.53c-.66.1-5.93.77-5.93.77a4.17,4.17,0,0,1-.15-.46c0-.06,5.29-.55,5.29-.55Z"/><path class="cls-6" d="M264.89,297.29c-.66.1-5.93.77-5.93.77a4.17,4.17,0,0,1-.15-.46c0-.06,5.29-.55,5.29-.55Z"/><path class="cls-6" d="M264.89,287.52c-.66.1-5.93.78-5.93.78a3.78,3.78,0,0,1-.15-.47c0-.06,5.29-.54,5.29-.54Z"/><path class="cls-6" d="M256.18,287.92c-.67.1-5.94.77-5.94.77a2.84,2.84,0,0,1-.14-.46c0-.06,5.29-.55,5.29-.55Z"/><path class="cls-6" d="M247.69,289.08l-5.93.77a3.78,3.78,0,0,1-.15-.47c0-.06,5.29-.54,5.29-.54Z"/><path class="cls-6" d="M238.83,290.12c-.66.1-5.93.78-5.93.78a4.42,4.42,0,0,1-.15-.47c0-.06,5.29-.54,5.29-.54Z"/><polygon class="cls-6" points="189.46 301.59 184.19 302.33 184.19 301.96 189.23 301.29 189.46 301.59"/><path class="cls-6" d="M150,302.33s-21.46,3-28.33,3.24S99.41,303,99.41,303l.9,4.27h-.55l-2.21-9.64h.56l1.3,4.82s15,2.71,22.29,2.62S150,302.33,150,302.33Z"/><path class="cls-6" d="M115.78,302.42l1.44,7.87s2.69.85,2.76,1.13,0,2.69,1.17,2.69,6.6.71,5.77.64-2.4-2.55-2.54-2.76-1.17-8.29-1.17-8.29h.58s.59,7.23,1.55,8.29,3.58,2.83,2.34,3.4-6.88-.57-7.84-.85a36,36,0,0,0-5.92-1.49c-2.33-.28-14-3.75-14-3.75a24.48,24.48,0,0,1,4.4-.64c1.72,0,11.83,1.49,11.83,1.49l-1-8.08Z"/><polygon class="cls-6" points="111.42 301.05 111.42 309.93 111.01 309.65 111.01 301.05 111.42 301.05"/><polygon class="cls-6" points="106.98 299.82 106.98 309.27 106.47 309.27 106.47 299.59 106.98 299.82"/><polygon class="cls-6" points="102.39 298.74 103.36 308.81 102.87 308.81 101.89 298.41 102.39 298.74"/><polygon class="cls-6" points="180.43 297.85 181.26 308.3 180.84 308.3 179.88 297.6 180.43 297.85"/><polygon class="cls-6" points="170.73 299.9 171.63 308.8 171.18 308.8 170.32 299.39 170.73 299.9"/><polygon class="cls-6" points="160.55 300.28 161.04 310.41 160.07 300.28 160.55 300.28"/><polygon class="cls-6" points="148.17 303.7 148.17 312.91 147.57 303.7 148.17 303.7"/><polygon class="cls-6" points="137.38 305.35 137.38 312.06 136.96 305.35 137.38 305.35"/><path class="cls-6" d="M201.8,325.66s-.23,4.68-2.2,7.28-4.13,3.59-5.32,3.73-2-.05-2.11-.28-2.39-5.62-2.2-7.28.27-8.55,2.93-11.48,5.09-5.05,8.35-4.34,5.59,5.71,5.59,5.71-3.19-5.13-5.78-5.38-6.23,2.27-7.15,3.59,1-.52,2.57.38,1.65,1.6,1.65,1.6l.05,1.42s-.46-2.36-2.62-2.17a3.68,3.68,0,0,0-3.25,2.83c0,.62,1.46-1.32,2.79-.94a2.22,2.22,0,0,1,1.61,1.22,2.07,2.07,0,0,0-2-.61,2.2,2.2,0,0,0-1.74,1.37s1,1.13,1.74,1,1,.72,1,1.64,1.29,2.05,1.47.91.37,1.33,0,2.79,2.06-1.84,1.92-2.6-.28,2.41-.69,3.21,1.84-2.22,1.7-3.21.05,3,0,3.31S201.8,325.66,201.8,325.66Z"/><path class="cls-6" d="M174.15,334.64s-2.66,7.51-7.93,10.35-12.11,4.25-15.87,4a25.7,25.7,0,0,1-7-1.51,36.58,36.58,0,0,0,9,.28,96.77,96.77,0,0,0,10.17-2.6s-10.22,2-14.71,1.7a16.81,16.81,0,0,1-7.66-2.5s9.17,1.8,13.75.71a33.83,33.83,0,0,0,11.42-5.39,23.7,23.7,0,0,0,4.45-4.15l-.83,3.21,3.08-3.26-1,3.35Z"/><path class="cls-6" d="M163.79,334.17,163,338v-2.18l-2.38,4.59s.82-3.5.73-3.31-3.44,4.39-3.58,4.44,1.61-2.74,1.61-2.74a10.74,10.74,0,0,1-7.89,3.73c-5.23.19-4.9-.94-5.18-1.09s3.07,2.56,3.07,2.56-4-1.75-4.12-1.89a21,21,0,0,1,1.51,1.89c-.37-.29-3.81-2.6-3.81-2.6s1.15,2.17,1.1,2-3.25-2.17-3.25-2.17l.87,2.17s-2.15-2.88-2.29-3.17a19.67,19.67,0,0,1,0-2.88l1.24,2,1.23-2.67,1.88,2a23.19,23.19,0,0,1-.32-3,21.7,21.7,0,0,1,1.47,2.36s-1.74-4.91,2.43-7.84,6.92-1.28,7.84-.85-4.77-.61-6.24,1.23-1.94,5.67-1.31,5.9,1.67-5.15,4-4.63,3.53,4,3.4,4.16,2-1.89,2-2.65a15.8,15.8,0,0,1,0,2.65,23.38,23.38,0,0,1,.88-2.36s.55,1.42.41,1.65,1.33-1.75,1.33-1.75l0,2.22,1.43-3.16.09,2.5,1.1-2.41v2.37l1.56-2.65Z"/><polygon class="cls-6" points="321.79 264.54 289.6 271.76 196.71 279.04 198.5 277.34 288.54 270.06 321.79 264.54"/><path class="cls-6" d="M198.5,261.68s-1.15,4.07-2.16,4.52-1.65.2-1.65,1.32-.87,3.44-2.27,3.37-.11-2.42-.39-2.05-1,2-1,2v-1.63l-.46,1.63-.36-1.34-.37,1.41-.37-1.41-.82,1.88-1,3.24.37-3.24-1.1,3.24v-3.14l-1.2,3.14s.09-3,0-2.81l-1.37,2.38.64-2.71-1.47,2.71v-3.28s0,3.9-1.1,3.71a8,8,0,0,1-4.4-2.81c-1.56-1.82-3.3-4.92-3.39-6.35s-.74-4.29,0-7.35a8.62,8.62,0,0,1,2.11-4.28s-1.93,7-1.65,8,3.3,3.61,3.3,3.61l-.28-3.76s1.1,3.78,1.74,4.52.37-2.29.37-2.29,2.94.45,3.21-.76,3-.65,3-.65l1.07,2.94.18-2.29.27,2.58.83-2.78.37,3.25.45-3.05.28,3.05,1.47-3.41v2.94l.64-4.05.48,1.75.8-1.75.28,1.95,1.19-1.41v1.85s2.2-.92,2-.16S197.82,262.56,198.5,261.68Z"/><path class="cls-6" d="M197.62,256.65a12.29,12.29,0,0,0-3.34-6.62c-2.89-2.83-5.05-3.3-7.16-3.35s-5.5.9-7.19,2.83a6.19,6.19,0,0,0-1.33,4.54,4.5,4.5,0,0,1,3.57-.47,4.18,4.18,0,0,1,2.94,2.36l-1.1-3.12,1.78,3.31-.54-2.79s1.42,3,1.42,2.88,0-3.07,0-3.07l1,3-.32-3.49,1.2,3.68-.65-5.19,1.65,5.48-.09-5,1.65,5-.5-5,2.06,5.41-.87-4.67,2.16,4.67-.69-4.58,2.57,4.58-.83-3.78Z"/><path class="cls-6" d="M157.18,264.21s-1.23,7.36-2.75,9.16-2.79,3-2.79,3l2.15-5.33-3.25,5.33.45-2.83-1.65,2.83.42-2.45-1.29,1.93V274l-1.37,2.13L145,272.9a4.62,4.62,0,0,1-.18,1.46c-.18.19-1.24-1.65-1.38-1.75a11,11,0,0,0-1.32-.33l-1.93-1.46-1.83-.95s2,4,2.79,5.44-3.76-2-3.76-2,3.17,5.24,3.4,5.48-1.24.47-1.24.47-3.4-.41-6.47-4.63-3.44-5.58-3.67-7.28,1.24-8.74,1.24-8.74l.6,6.63.41-4.83.64,4.83.55-6.63.37,5.86.64-4.63c-.09.66,0,5.4,0,5.4s.82-5.82.82-5.59.55,7.18.55,7.18S137.74,269,139,268a3.47,3.47,0,0,0,1.14-2.78l.6,2.68s0-4.2,0-3.83.73,3.64.73,3.64.41-3.54.41-3.35v3l.87-2.69.23,3.45.87-3.5.46,3.41.55-4.16.64,3.12a17.55,17.55,0,0,1,1-2.51,31.58,31.58,0,0,1,.92,3.26l.5-2.49.28,1.59,1-2.83.59,2.88.69-2.12S154.4,269,157.18,264.21Z"/><path class="cls-6" d="M155.35,256.27s-4.81-7.37-9.31-7.7-7.52.66-9.86,2.36a9.64,9.64,0,0,0-3,3.17l1.47,2.17.09-2.27a28.49,28.49,0,0,1,3.44,3.45c.32.71-1.38-3.78-1.38-3.78s3.12,4.63,3.07,4.39-.69-5-.55-4.77,2.48,5.58,2.34,5.29-1.24-5.85-1-5.52,2,6.09,2,5.85-1.15-7.08-1.15-7.08l2.75,6.52-.95-6.71s1.92,4.91,2,5.05-.73-6-.73-6l1.83,5.29-.18-5.81,2.06,4.86a30.76,30.76,0,0,1-.5-3.54c.14,0,1.79,3.26,1.79,3.26l-.74-3.64S155,255.37,155.35,256.27Z"/><path class="cls-6" d="M342.79,219.89s9.46,6,11.74,7,7.79,5.76,8.07,6.61-14.77-.1-20.91.57-17.7,1.6-20,1.51,2.38-3.4-3.76-7.84-16.42-6.52-26.41-8.51S278,216.78,278,216.78s18.79,2.93,23.47,4,15.68,2.27,19.63,6.52,2.38,5.39,5.5,5.39,29.25-1.51,29.25-1.51-7.89-7.47-17.15-8.69-32.28-2.84-32.28-2.84,14.22-1.51,24.85-.19,8.18-2.08,8.18-2.08Z"/><path class="cls-6" d="M252.92,212.86s12.27.7,12.81,2.12-13.8,1.8-13.8,1.8l16.19-.31s1.65-.76-.34-1.65l-2-.9s7.15,1.6,5.44,2.86-24.35.61-24.35.61l-50.07-.14,13.57-1.32-30.63-.73S251.36,212.34,252.92,212.86Z"/><path class="cls-6" d="M205.92,235s-5.37-12.76-14.72-15.88-25.59-3.92-25.59-3.92,26,3.5,22.84,5.06-7-.43-7-.43,4.4,2.27,7.43,2,4.54.43,5.23,1,5.5,4.81,3,4.81a6.83,6.83,0,0,1-4.12-1.41S202.48,235.83,205.92,235Z"/><path class="cls-6" d="M282.63,218.48s25.56,5.48,29.75,10,3.7,5.29,0,5.48-17.23-1.13-17.23-1.13l15.33-1.51s-11.32-2.27-13.62-2.27,7.54-1.89,7.54-1.89Z"/><path class="cls-6" d="M131.51,215.17s17.42-.24,21.64,2.38,13.57,10.56,14.86,14.72-42.92,4-48.06,4.54-11.73,1.7-11.73,1.7,2.3-5.1,2-6.43,4.07-1.13,4.07-1.13-1.47-4.26-2.94-4.11-8.43,0-11,0-5.69-.15-7.89,0S75.57,230.19,73.37,231a34.22,34.22,0,0,1-8.07,1.89c-2.75.19-2.2-.54-5.87,2.19s-5.5,4.8-7.34,5.56a24.73,24.73,0,0,1-8.25,1c-1.28-.27-13.39,6.69-15.22,6.9a50.85,50.85,0,0,0-5.32,1c-.73.19-11.56,4.24-11.56,4.24s13-6.93,25.5-12.1S83.82,221.32,131.51,215.17Z"/><path class="cls-6" d="M115.55,286.82s-22.56-2.4-27.14-4.38-9.54-11.86-14.67-13.53-13.94-1.3-15.41,1.91-3.12,8.22-2.94,16.86,2.94,20.65,4.59,24.38S63.83,320,63.83,320,56,296.14,57.6,285s2.93-15.68,9-14.17,8.07-.59,12.66,5.94S84,287.68,84,287.68s0-3.26,8.8-2.12S115.55,286.82,115.55,286.82Z"/><polygon class="cls-6" points="53.74 279.23 6.7 264.96 6.7 266.2 53.74 279.23"/><path class="cls-6" d="M111.22,240.59l-1,5.68L42,249.47S103.92,240,111.22,240.59Z"/><path class="cls-6" d="M105.33,347.21s-2.48,18.42-10,17.14-12.8-17.14-14-21.25-4.26-24-4.53-31-.55-20.16.55-25.24a27,27,0,0,1,2.61-7.59s1.51,6.33,1.51,8.45,1.52,7.8,1.52,7.8-1.52,15.35,0,24.47,5.36,22.58,8.94,27.26,7.56,7.08,10,2.69S105.33,347.21,105.33,347.21Z"/><polygon class="cls-6" points="47.42 303.89 28.43 291.42 24.4 283.29 27.43 291.89 47.78 305.02 47.42 303.89"/><path class="cls-6" d="M24.86,292.36s-.46,9.54-1.38,8.69-1.56-3.59-1.74-5.19-.92-8.7-.92-8.7S24.25,299.28,24.86,292.36Z"/><path class="cls-6" d="M41.36,236s-12.1,3.26-15.81,3.11-8.67-4.63-8.67-4.63l-4,.53a3.39,3.39,0,0,1,3,1.79c1,1.89,5.77,2.6,5.5,5s-7.15,8.64-7.15,8.64l14.3-7.23-1.44-.75Z"/><path class="cls-6" d="M40.4,212.43l-3,22-6.19,1.8S37.38,218.38,40.4,212.43Z"/><polygon class="cls-6" points="52.37 203.08 47.97 231.56 39.3 234.44 42.01 210.45 52.37 203.08"/><path class="cls-6" d="M48.79,232.7s7.57-33.17,6.88-35.15-3.3-1-6.19.85S37.65,208,35.79,211.86,30.5,229,30.5,229s5.36-15.45,6.33-16.58,16.78-18.28,17.05-13.75S48.79,232.7,48.79,232.7Z"/><path class="cls-6" d="M92.12,221.08,49.62,232.7s3.16-14.6,3.44-15.59,4-17.29,3.71-19a6.25,6.25,0,0,0-1.06-2.7s2.16-5.1,27.06-5,82.25,4.49,87.76,6,12.38,5.77,14.85,9a74.82,74.82,0,0,0,5.92,6.66s-11.69-11.62-16.23-12.9-25.18-4.53-41.41-5.38-63-3.41-69.74-.57-5.64,3.16-5.64,3.16a18.43,18.43,0,0,1-.55,6.62c-1,4.25-5.87,24.94-5.36,25.79C53.94,231.51,91.3,221.08,92.12,221.08Z"/><polygon class="cls-6" points="63.1 195.61 75.57 222.45 72.45 222.45 61.26 200.72 59.98 196.46 63.1 195.61"/><polygon class="cls-6" points="61.08 203.08 67.78 222.45 61.08 205.44 65.67 225.1 59.98 207.9 60.9 224.34 57.78 210.54 59.98 201.66 61.08 203.08"/><path class="cls-6" d="M182.91,212.79s-1.24-6.17-3.17-6.17-17.88,3.09-17.88,3.09l2.06,3.71Z"/><polygon class="cls-6" points="123.21 212.79 72.45 210.02 76.61 221.5 123.21 212.79"/><polygon class="cls-6" points="302.36 298.89 301.7 315.74 272.6 323.3 272.18 304.77 302.36 298.89"/><path class="cls-6" d="M350.35,291.7c.1.1.83,5.72-2.06,6.61a7.58,7.58,0,0,1-5,0s4.77-1.27,3.8-1.79-2.29.19-2.79-.38a1.92,1.92,0,0,1,.41-2.46c.69-.28,3.44.29,3.44.62s.73-4.11-1.83-3.28a8.16,8.16,0,0,0-3.86,2.57S345.63,286.27,350.35,291.7Z"/><path class="cls-6" d="M318.12,221.22s22.56,2.69,25.86,4,6.59,3.68,6,4.39-18.91,1.42-21.66,0,13.48-2.4,8.8-3.4S318.12,221.22,318.12,221.22Z"/><path class="cls-6" d="M238.31,221.22c.49-.29,50.21,6.36,49.83,9.18s-28.16,1.78-32,2.3-34.2,3.19-38.9,2.33-14-11.4-15.87-13.81c-1.69-2.2,21.13,13.79,25.13,11.48s5.3-3.26,2.93-5.53c-2.17-2.08,17.26,3,21.46,1S238.31,221.22,238.31,221.22Z"/><path class="cls-6" d="M172.38,222.07s6.13,9.21,7.36,11.9-4.67,1.23-4.67,1.23-7.78-11.79-11.62-15.82c-6.27-6.59-21.12-6.67-29.24-6a97.16,97.16,0,0,0-12.51,1.75l26-7.7s6.61-2,8.39-.85S172.38,222.07,172.38,222.07Z"/><polygon class="cls-6" points="63.88 323.78 66.27 329.83 62.7 326.99 33.26 303.61 62.78 324.58 63.88 323.78"/></g></g></g></g></svg>