<svg xmlns="http://www.w3.org/2000/svg" viewBox="0 0 36.97 20.27"><defs><style>.cls-1{opacity:0.6;}.cls-2{fill:#f3ca30;}.cls-3{fill:none;stroke:#5a5f7a;stroke-linecap:round;stroke-linejoin:round;stroke-width:1.09px;}</style></defs><title>Recurso 8</title><g id="Capa_2" data-name="Capa 2"><g id="Capa_1-2" data-name="Capa 1"><g class="cls-1"><path class="cls-2" d="M18.29,10.6c0,.64-.68,2.17-2,2.17h-.4a3.72,3.72,0,0,0-3,.82c-.79.85-1.08,2.45-.86,4.75,0,.06.3.93,2.13,1.56a43.89,43.89,0,0,0,6,.37,33.39,33.39,0,0,0,6-.37c1.8-.62,2.09-1.47,2.12-1.57.22-2.29-.07-3.89-.86-4.74a3.71,3.71,0,0,0-2.95-.82h-.41a2.08,2.08,0,0,1-2-2,9.55,9.55,0,0,1-2,.33A4.85,4.85,0,0,1,18.29,10.6Z" transform="translate(0)"/><path class="cls-2" d="M23.86,5.63V7.51a3.64,3.64,0,0,1-7.27,0V5.74a5.67,5.67,0,0,1,.26-1.56,3.4,3.4,0,0,1,3.38-2.42h0a3.4,3.4,0,0,1,3.38,2.42A4.49,4.49,0,0,1,23.86,5.63Z" transform="translate(0)"/></g><path class="cls-3" d="M27,11.08h.6c.95,0,1.44-.45,1.44-.92" transform="translate(0)"/><path class="cls-3" d="M30.43,16.57c-.64,0-1.28,0-1.89,0" transform="translate(0)"/><path class="cls-3" d="M31.85,10.1c0,.53.5,1,1.44,1h.3a2.72,2.72,0,0,1,2.16.61c.58.62.79,1.79.63,3.46,0,.07-.24.7-1.56,1.16" transform="translate(0)"/><path class="cls-3" d="M33.09,5.86V7.23a2.66,2.66,0,0,1-5.32,0V5.94A4,4,0,0,1,28,4.8,2.49,2.49,0,0,1,30.43,3h0A2.5,2.5,0,0,1,32.91,4.8,3.28,3.28,0,0,1,33.09,5.86Z" transform="translate(0)"/><path class="cls-3" d="M6.54,16.57a31.14,31.14,0,0,1-4.39-.26C.81,15.84.61,15.21.59,15.16c-.16-1.68.06-2.85.64-3.47a2.71,2.71,0,0,1,2.16-.61h.29c.94,0,1.44-.45,1.44-.92" transform="translate(0)"/><path class="cls-3" d="M8,10.1c0,.53.5,1,1.44,1h.3" transform="translate(0)"/><path class="cls-3" d="M9.2,5.86V7.23a2.66,2.66,0,0,1-5.32,0V5.94A4,4,0,0,1,4.07,4.8,2.48,2.48,0,0,1,6.54,3h0A2.5,2.5,0,0,1,9,4.8,3.28,3.28,0,0,1,9.2,5.86Z" transform="translate(0)"/><path class="cls-3" d="M18.29,19.05a42.44,42.44,0,0,1-6-.36c-1.83-.63-2.11-1.5-2.13-1.57-.21-2.3.08-3.89.87-4.74a3.69,3.69,0,0,1,3-.83h.4c1.29,0,2-1.53,2-2.18" transform="translate(0)"/><path class="cls-3" d="M20.23,9.57a2.09,2.09,0,0,0,2,2h.4a3.71,3.71,0,0,1,2.95.83c.79.85,1.08,2.44.86,4.74,0,.09-.32.95-2.12,1.57" transform="translate(0)"/><path class="cls-3" d="M21.92,4.42V6.29a3.63,3.63,0,0,1-7.26,0V4.52A5.87,5.87,0,0,1,14.91,3,3.41,3.41,0,0,1,18.29.54h0A3.41,3.41,0,0,1,21.67,3,4.59,4.59,0,0,1,21.92,4.42Z" transform="translate(0)"/></g></g></svg>