<svg xmlns="http://www.w3.org/2000/svg" viewBox="0 0 36.86 22.08"><defs><style>.cls-1{fill:#f3ca30;opacity:0.6;}.cls-2{fill:none;stroke:#5a5f7a;stroke-linecap:round;stroke-linejoin:round;stroke-width:1.09px;}</style></defs><title>Recurso 5</title><g id="Capa_2" data-name="Capa 2"><g id="Capa_1-2" data-name="Capa 1"><path class="cls-1" d="M31.32,17.6c-2,.07-2.59,1.51-4.14,1.53S25,17.68,23.31,17.6s-2.44,1.33-3.86,1.53-2.19-1.65-3.93-1.53-2.61,1.33-3.87,1.33S8.9,17.68,7.81,17.6,5,10.54,5,10.54H36.86S33.29,17.53,31.32,17.6Z"/><polygon class="cls-2" points="8.38 2.33 5.32 2.33 6.27 4.15 9.61 4.15 8.38 2.33"/><polyline class="cls-2" points="3.6 16.47 1.02 9.81 33.67 9.81 28.27 16.47"/><polyline class="cls-2" points="26.5 9.78 21.22 4.35 4.54 4.35 4.54 6.96"/><polyline class="cls-2" points="9.62 4.11 7.14 0.54 4.54 0.54 6.1 4.11"/><path class="cls-2" d="M19.45,21.54c-1.89,0-1.89-1.59-3.78-1.59s-1.89,1.59-3.78,1.59S10,20,8.11,20s-1.89,1.59-3.78,1.59S2.43,20,.54,20"/><path class="cls-2" d="M34.58,21.54c-1.89,0-1.89-1.59-3.78-1.59S28.9,21.54,27,21.54,25.12,20,23.23,20s-1.89,1.59-3.78,1.59S17.56,20,15.67,20"/></g></g></svg>