<svg xmlns="http://www.w3.org/2000/svg" viewBox="0 0 25.02 26.34"><defs><style>.cls-1{opacity:0.6;}.cls-2{fill:#f3ca30;}.cls-3{fill:none;stroke:#5a5f7a;stroke-linecap:round;stroke-linejoin:round;stroke-width:1.09px;}</style></defs><title>Recurso 9</title><g id="Capa_2" data-name="Capa 2"><g id="Capa_1-2" data-name="Capa 1"><g class="cls-1"><path class="cls-2" d="M19.65,6.42H7.29a4.75,4.75,0,0,0,0,9.5,4.69,4.69,0,0,0,3.07-1.15h0l.19-.18.12-.12c1.47-1.39,2.07-1.41,3-1.41a3.66,3.66,0,0,1,2.53,1.33l.23.24.15.14a.44.44,0,0,0,.18.12,4.68,4.68,0,0,0,2.91,1,4.75,4.75,0,0,0,0-9.5Z"/><rect class="cls-2" x="9.19" y="18.48" width="8.55" height="2.85" rx="1.23"/></g><path class="cls-3" d="M17.65,4.42H5.29a4.75,4.75,0,0,0,0,9.5,4.69,4.69,0,0,0,3.07-1.15h0l.19-.18.12-.12c1.47-1.39,2.07-1.41,3-1.41a3.66,3.66,0,0,1,2.53,1.33l.23.24.15.14a.44.44,0,0,0,.18.12,4.68,4.68,0,0,0,2.91,1,4.75,4.75,0,0,0,0-9.5Z"/><rect class="cls-3" x="7.19" y="16.48" width="8.55" height="2.85" rx="1.23"/><path class="cls-3" d="M13.84,19.36S13.54,22,17,22s3.41-2.93,3.41-2.93v-6"/><path class="cls-3" d="M9.59,19.33s.17,6.47,7.55,6.47,7.34-6.68,7.34-6.68"/><path class="cls-3" d="M24.48,14.82V2.62a2,2,0,1,0-4-.09V5.34"/></g></g></svg>