<svg xmlns="http://www.w3.org/2000/svg" viewBox="0 0 26.22 28.8"><defs><style>.cls-1{fill:#f3ca30;opacity:0.6;}.cls-2{fill:none;stroke:#5a5f7a;stroke-linecap:round;stroke-linejoin:round;stroke-width:1.09px;}</style></defs><title>Recurso 6</title><g id="Capa_2" data-name="Capa 2"><g id="Capa_1-2" data-name="Capa 1"><circle class="cls-1" cx="19.45" cy="8.87" r="4.23"/><path class="cls-1" d="M21.87,24.92a13.65,13.65,0,0,1-9.1,3.88,11.76,11.76,0,0,1-8.59-3.88S13,22.25,21.87,24.92Z"/><path class="cls-2" d="M1.36,26.31c2.13-1.44,6.47-2.43,11.47-2.43s9.44,1,11.54,2.49"/><path class="cls-2" d="M10.2,25.1s-.4-8.52,3-13"/><path class="cls-2" d="M7.78,25.1S8.19,9.47,4.57,5.41"/><path class="cls-2" d="M12.78,12.74c2.77.63,3.45,4.24,3.45,4.24"/><path class="cls-2" d="M12.81,12.72a5,5,0,0,1,6.24.61"/><path class="cls-2" d="M11.81,7.65a10.31,10.31,0,0,1,.94,5"/><path class="cls-2" d="M16.63,9.27a6.82,6.82,0,0,0-3.82,3.45"/><path class="cls-2" d="M10.2,10.49a4.3,4.3,0,0,1,2.51,2.24"/><path class="cls-2" d="M11.61,4.4s-4.9-1.54-7,.95"/><path class="cls-2" d="M8.39.54A8.53,8.53,0,0,0,4.57,5.33"/><path class="cls-2" d="M.74,10.28s.63-4,3.83-4.87"/><path class="cls-2" d="M.54,5s2.9-1.08,4,.4"/><path class="cls-2" d="M4.57,9.27s-.67-2.58,0-3.86"/><circle class="cls-2" cx="21.97" cy="6.99" r="3.71"/></g></g></svg>