<svg xmlns="http://www.w3.org/2000/svg" viewBox="0 0 32.16 28.05"><defs><style>.cls-1{fill:#f3ca30;opacity:0.6;}.cls-2{fill:none;stroke:#5a5f7a;stroke-linecap:round;stroke-linejoin:round;stroke-width:1.09px;}</style></defs><title>Recurso 4</title><g id="Capa_2" data-name="Capa 2"><g id="Capa_1-2" data-name="Capa 1"><path class="cls-1" d="M31.25,4.11a4.14,4.14,0,0,0-3.06-1.19h0a4.11,4.11,0,0,0-3.05,1.19,4,4,0,0,0-.32,4.66c.55,1,1.46,1.6,2.08,2.51a7.71,7.71,0,0,1,1.29,3.62V15a.2.2,0,0,0,0-.07.15.15,0,0,1,0,.07V14.9a7.84,7.84,0,0,1,1.3-3.62c.62-.91,1.53-1.55,2.07-2.51A4,4,0,0,0,31.25,4.11Z"/><polygon class="cls-1" points="15.68 28.05 8.97 25.15 8.97 5.53 15.68 7.47 15.68 28.05"/><polygon class="cls-2" points="7.05 2.92 7.05 22.16 0.54 24.66 0.54 5.41 7.05 2.92"/><polyline class="cls-2" points="19.84 22.16 13.45 24.78 13.45 5.53 19.84 2.92 19.84 22.16 26.46 24.78 26.46 15.27"/><line class="cls-2" x1="7.05" y1="22.17" x2="13.44" y2="24.78"/><line class="cls-2" x1="13.44" y1="5.53" x2="10.37" y2="4.34"/><path class="cls-2" d="M26.5,12.66A7.61,7.61,0,0,1,27.82,8.9c.61-.91,1.53-1.55,2.07-2.51a4,4,0,0,0-.32-4.66A4.16,4.16,0,0,0,26.5.54"/><path class="cls-2" d="M26.46,12.66A7.81,7.81,0,0,0,25.14,8.9c-.62-.91-1.53-1.55-2.07-2.51a4,4,0,0,1,.32-4.66A4.14,4.14,0,0,1,26.46.54"/><ellipse class="cls-2" cx="26.47" cy="4.34" rx="1.18" ry="1.19"/></g></g></svg>